<?xml version="1.0" encoding="UTF-8"?>
<svg id="Layer_2" data-name="Layer 2" xmlns="http://www.w3.org/2000/svg" viewBox="0 0 158 178.9">
  <defs>
    <style>
      .cls-1 {
        fill: #231f20;
      }
    </style>
  </defs>
  <g id="calcalc">
    <path class="cls-1" d="m149.79,139.24l-12.66-12.23-7.35-7.1-12.75-12.31-7.42-7.16-1.01-.98-.73,1.2c-1.69,2.76-4.02,5.15-6.73,6.9-3.48,2.26-7.53,3.45-11.69,3.45-11.9,0-21.57-9.68-21.57-21.57s9.68-21.57,21.57-21.57c4.22,0,8.31,1.22,11.82,3.54,2.7,1.77,5.01,4.18,6.68,6.95l.73,1.21,1.02-.98,7.42-7.17.69-.67-.55-.79c-2.02-2.88-4.47-5.43-7.27-7.56-5.95-4.53-13.06-6.93-20.54-6.93-18.73,0-33.97,15.24-33.97,33.97s15.24,33.97,33.97,33.97c7.1,0,13.87-2.16,19.63-6.26l12.07,11.66,7.35,7.09,11.8,11.39c-2.23,1.96-4.58,3.8-6.99,5.48-12.93,8.98-28.09,13.73-43.85,13.73-42.49,0-77.06-34.57-77.06-77.06S46.96,12.4,89.45,12.4c18.81,0,36.86,6.85,50.96,19.31l-11.06,10.68c-5.42-4.61-11.5-8.2-18.11-10.69-6.94-2.62-14.28-3.94-21.8-3.94-16.48,0-31.98,6.42-43.64,18.07-11.66,11.66-18.07,27.15-18.07,43.64s6.42,31.98,18.07,43.64c11.66,11.65,27.15,18.07,43.64,18.07,11.41,0,22.52-3.11,32.13-9l1.24-.76-1.05-1.01-7.62-7.35-.59-.57-.73.39c-7.14,3.87-15.23,5.91-23.39,5.91-27.19,0-49.31-22.12-49.31-49.31s22.12-49.31,49.31-49.31c11.66,0,22.98,4.16,31.88,11.72,2.52,2.14,4.84,4.54,6.88,7.14l.77.98.9-.87,7.35-7.09,12.67-12.23,7.34-7.08.76-.74-.69-.81c-1.44-1.67-2.98-3.34-4.6-4.96-.83-.83-1.68-1.65-2.53-2.44-7.63-7.06-16.34-12.69-25.9-16.73C113.24,2.37,101.53,0,89.45,0s-23.79,2.37-34.82,7.03c-10.65,4.51-20.22,10.96-28.43,19.17-8.21,8.21-14.66,17.78-19.17,28.43C2.37,65.66,0,77.38,0,89.45s2.37,23.79,7.03,34.82c4.51,10.65,10.96,20.22,19.17,28.43,8.22,8.22,17.79,14.67,28.43,19.17,11.03,4.67,22.75,7.03,34.82,7.03s23.79-2.37,34.82-7.03c6.31-2.67,12.29-6.05,17.79-10.06,2.76-2.01,5.45-4.22,7.99-6.56.9-.83,1.8-1.69,2.65-2.55,1.54-1.54,3.06-3.17,4.49-4.83l.7-.81-.77-.74-7.34-7.08Z"/>
  </g>
</svg>