<?xml version="1.0" encoding="UTF-8"?>
<svg id="Layer_2" data-name="Layer 2" xmlns="http://www.w3.org/2000/svg" viewBox="0 0 354.17 190.98">
  <defs>
    <style>
      .cls-1 {
        fill: #231f20;
      }
    </style>
  </defs>
  <g id="calcalc">
    <g>
      <g>
        <path class="cls-1" d="m49.22,182.09c-.05.1-.55.61-1.49,1.53-.95.92-2.33,1.93-4.14,3.03-1.81,1.1-4.08,2.1-6.78,2.99-2.71.89-5.85,1.34-9.43,1.34-4.5,0-8.45-.7-11.84-2.11-3.4-1.4-6.25-3.33-8.55-5.79-2.3-2.45-4.04-5.33-5.21-8.62-1.18-3.3-1.76-6.83-1.76-10.62s.6-7.24,1.8-10.54c1.2-3.3,2.96-6.18,5.29-8.66,2.32-2.48,5.2-4.45,8.62-5.9,3.42-1.46,7.36-2.19,11.81-2.19,3.42,0,6.37.41,8.85,1.23,2.48.82,4.56,1.74,6.25,2.76,1.69,1.02,3,2.02,3.95,2.99.95.97,1.55,1.64,1.8,1.99l-6.82,6.59c-.1-.1-.46-.47-1.07-1.11-.61-.64-1.49-1.33-2.64-2.07-1.15-.74-2.56-1.4-4.22-1.99-1.66-.59-3.57-.88-5.71-.88-2.76,0-5.15.49-7.17,1.46-2.02.97-3.71,2.26-5.06,3.87-1.35,1.61-2.36,3.49-3.03,5.63-.66,2.15-1,4.37-1,6.67,0,2.56.38,4.91,1.15,7.05s1.85,4.01,3.26,5.6c1.41,1.58,3.12,2.82,5.14,3.72,2.02.89,4.25,1.34,6.71,1.34,2.2,0,4.18-.28,5.94-.84,1.76-.56,3.28-1.2,4.56-1.92,1.28-.72,2.29-1.4,3.03-2.07.74-.66,1.21-1.1,1.42-1.3l6.36,6.82Z"/>
        <path class="cls-1" d="m93.91,189.75l-4.14-10.04h-22.23l-4.14,10.04h-11.73l21.31-51.98h11.81l21.24,51.98h-12.11Zm-15.26-39.94l-7.82,20.62h15.64l-7.82-20.62Z"/>
        <path class="cls-1" d="m111.77,189.75v-51.98h11.35v42.39h25.91v9.58h-37.26Z"/>
        <path class="cls-1" d="m201.7,182.09c-.05.1-.55.61-1.49,1.53-.95.92-2.33,1.93-4.14,3.03-1.81,1.1-4.08,2.1-6.78,2.99-2.71.89-5.85,1.34-9.43,1.34-4.5,0-8.45-.7-11.84-2.11-3.4-1.4-6.25-3.33-8.55-5.79-2.3-2.45-4.04-5.33-5.21-8.62-1.18-3.3-1.76-6.83-1.76-10.62s.6-7.24,1.8-10.54c1.2-3.3,2.96-6.18,5.29-8.66,2.32-2.48,5.2-4.45,8.62-5.9,3.42-1.46,7.36-2.19,11.81-2.19,3.42,0,6.37.41,8.85,1.23,2.48.82,4.56,1.74,6.25,2.76,1.69,1.02,3,2.02,3.95,2.99.95.97,1.55,1.64,1.8,1.99l-6.82,6.59c-.1-.1-.46-.47-1.07-1.11-.61-.64-1.49-1.33-2.64-2.07-1.15-.74-2.56-1.4-4.22-1.99-1.66-.59-3.57-.88-5.71-.88-2.76,0-5.15.49-7.17,1.46-2.02.97-3.71,2.26-5.06,3.87-1.35,1.61-2.36,3.49-3.03,5.63-.66,2.15-1,4.37-1,6.67,0,2.56.38,4.91,1.15,7.05.77,2.15,1.85,4.01,3.26,5.6,1.41,1.58,3.12,2.82,5.14,3.72,2.02.89,4.25,1.34,6.71,1.34,2.2,0,4.18-.28,5.94-.84,1.76-.56,3.28-1.2,4.56-1.92,1.28-.72,2.29-1.4,3.03-2.07.74-.66,1.21-1.1,1.42-1.3l6.36,6.82Z"/>
        <path class="cls-1" d="m246.39,189.75l-4.14-10.04h-22.23l-4.14,10.04h-11.73l21.31-51.98h11.81l21.24,51.98h-12.11Zm-15.26-39.94l-7.82,20.62h15.64l-7.82-20.62Z"/>
        <path class="cls-1" d="m264.25,189.75v-51.98h11.35v42.39h25.91v9.58h-37.26Z"/>
        <path class="cls-1" d="m354.17,182.09c-.05.1-.55.61-1.49,1.53-.95.92-2.33,1.93-4.14,3.03-1.81,1.1-4.08,2.1-6.78,2.99-2.71.89-5.85,1.34-9.43,1.34-4.5,0-8.45-.7-11.84-2.11-3.4-1.4-6.25-3.33-8.55-5.79-2.3-2.45-4.04-5.33-5.21-8.62-1.18-3.3-1.76-6.83-1.76-10.62s.6-7.24,1.8-10.54c1.2-3.3,2.96-6.18,5.29-8.66,2.32-2.48,5.2-4.45,8.62-5.9,3.42-1.46,7.36-2.19,11.81-2.19,3.42,0,6.37.41,8.85,1.23,2.48.82,4.56,1.74,6.25,2.76,1.69,1.02,3,2.02,3.95,2.99.95.97,1.55,1.64,1.8,1.99l-6.82,6.59c-.1-.1-.46-.47-1.07-1.11-.61-.64-1.49-1.33-2.64-2.07-1.15-.74-2.56-1.4-4.22-1.99-1.66-.59-3.57-.88-5.71-.88-2.76,0-5.15.49-7.17,1.46-2.02.97-3.71,2.26-5.06,3.87-1.35,1.61-2.36,3.49-3.03,5.63-.66,2.15-1,4.37-1,6.67,0,2.56.38,4.91,1.15,7.05.77,2.15,1.85,4.01,3.26,5.6,1.41,1.58,3.12,2.82,5.14,3.72,2.02.89,4.25,1.34,6.71,1.34,2.2,0,4.18-.28,5.94-.84,1.76-.56,3.28-1.2,4.56-1.92,1.28-.72,2.29-1.4,3.03-2.07.74-.66,1.21-1.1,1.42-1.3l6.36,6.82Z"/>
      </g>
      <path class="cls-1" d="m211.74,78.03l-7.1-6.85-4.12-3.98-7.14-6.9-4.16-4.01-.57-.55-.41.67c-.95,1.55-2.25,2.88-3.77,3.87-1.95,1.27-4.22,1.93-6.55,1.93-6.67,0-12.09-5.42-12.09-12.09s5.42-12.09,12.09-12.09c2.36,0,4.65.69,6.62,1.98,1.51.99,2.81,2.34,3.74,3.9l.41.68.57-.55,4.16-4.02.39-.38-.31-.44c-1.13-1.62-2.51-3.04-4.08-4.24-3.34-2.54-7.32-3.88-11.51-3.88-10.5,0-19.04,8.54-19.04,19.04s8.54,19.04,19.04,19.04c3.98,0,7.77-1.21,11-3.51l6.77,6.53,4.12,3.98,6.61,6.38c-1.25,1.1-2.56,2.13-3.92,3.07-7.24,5.03-15.74,7.69-24.57,7.69-23.81,0-43.18-19.37-43.18-43.18S154.12,6.95,177.93,6.95c10.54,0,20.66,3.84,28.56,10.82l-6.2,5.98c-3.04-2.58-6.45-4.6-10.15-5.99-3.89-1.47-8-2.21-12.22-2.21-9.24,0-17.92,3.6-24.45,10.13-6.53,6.53-10.13,15.22-10.13,24.45s3.6,17.92,10.13,24.45c6.53,6.53,15.22,10.13,24.45,10.13,6.39,0,12.62-1.74,18.01-5.04l.7-.43-.59-.57-4.27-4.12-.33-.32-.41.22c-4,2.17-8.54,3.31-13.11,3.31-15.24,0-27.64-12.4-27.64-27.64s12.4-27.64,27.64-27.64c6.53,0,12.88,2.33,17.86,6.57,1.41,1.2,2.71,2.55,3.86,4l.43.55.5-.49,4.12-3.98,7.1-6.85,4.11-3.97.43-.41-.39-.45c-.8-.94-1.67-1.87-2.58-2.78-.46-.46-.94-.92-1.42-1.37-4.27-3.96-9.16-7.11-14.51-9.38-6.18-2.61-12.75-3.94-19.51-3.94s-13.33,1.33-19.51,3.94c-5.97,2.53-11.33,6.14-15.93,10.74-4.6,4.6-8.22,9.96-10.74,15.93-2.62,6.18-3.94,12.75-3.94,19.51s1.33,13.33,3.94,19.51c2.53,5.97,6.14,11.33,10.74,15.93,4.61,4.61,9.97,8.22,15.93,10.74,6.18,2.62,12.75,3.94,19.51,3.94s13.33-1.33,19.51-3.94c3.54-1.5,6.89-3.39,9.97-5.64,1.55-1.13,3.05-2.37,4.48-3.68.51-.47,1.01-.95,1.49-1.43.87-.87,1.71-1.78,2.52-2.71l.39-.45-.43-.42-4.11-3.97Z"/>
    </g>
  </g>
</svg>