<?xml version="1.0" encoding="UTF-8"?>
<svg id="Layer_2" data-name="Layer 2" xmlns="http://www.w3.org/2000/svg" viewBox="0 0 790.13 150.64">
  <defs>
    <style>
      .cls-1 {
        fill: #231f20;
      }
    </style>
  </defs>
  <g id="calcalc">
    <g>
      <path class="cls-1" d="m126.12,117.24l-10.66-10.3-6.18-5.97-10.73-10.37-6.24-6.03-.85-.82-.62,1.01c-1.42,2.32-3.38,4.33-5.67,5.81-2.93,1.9-6.34,2.91-9.84,2.91-10.02,0-18.17-8.15-18.17-18.16s8.15-18.16,18.17-18.16c3.55,0,6.99,1.03,9.95,2.98,2.28,1.49,4.22,3.52,5.63,5.85l.61,1.02.86-.83,6.25-6.03.58-.56-.47-.66c-1.7-2.43-3.76-4.57-6.13-6.36-5.01-3.82-10.99-5.83-17.29-5.83-15.77,0-28.6,12.83-28.6,28.6s12.83,28.6,28.6,28.6c5.98,0,11.67-1.82,16.53-5.27l10.17,9.82,6.18,5.97,9.93,9.59c-1.88,1.65-3.85,3.2-5.89,4.61-10.88,7.56-23.65,11.56-36.92,11.56-35.78,0-64.88-29.11-64.88-64.88S39.54,10.44,75.32,10.44c15.84,0,31.04,5.77,42.91,16.26l-9.31,8.99c-4.56-3.88-9.69-6.91-15.25-9-5.85-2.2-12.02-3.32-18.35-3.32-13.88,0-26.93,5.4-36.74,15.22-9.81,9.81-15.22,22.86-15.22,36.74s5.4,26.93,15.22,36.74c9.81,9.81,22.86,15.22,36.74,15.22,9.6,0,18.96-2.62,27.05-7.58l1.05-.64-.88-.85-6.41-6.19-.5-.48-.61.33c-6.01,3.25-12.82,4.98-19.69,4.98-22.9,0-41.52-18.63-41.52-41.52s18.63-41.52,41.52-41.52c9.82,0,19.35,3.5,26.84,9.87,2.12,1.8,4.07,3.83,5.8,6.01l.65.82.75-.73,6.18-5.97,10.67-10.3,6.18-5.96.64-.62-.58-.68c-1.21-1.41-2.51-2.81-3.87-4.17-.7-.7-1.42-1.39-2.13-2.05-6.42-5.94-13.76-10.68-21.81-14.09-9.29-3.93-19.15-5.92-29.32-5.92s-20.03,1.99-29.32,5.92c-8.97,3.79-17.02,9.22-23.94,16.14-6.91,6.91-12.34,14.97-16.14,23.94C1.99,55.29,0,65.15,0,75.32s1.99,20.03,5.92,29.32c3.79,8.97,9.22,17.03,16.14,23.94,6.92,6.92,14.98,12.35,23.94,16.14,9.29,3.93,19.15,5.92,29.32,5.92s20.03-1.99,29.32-5.92c5.31-2.25,10.35-5.1,14.98-8.47,2.32-1.69,4.59-3.55,6.73-5.53.76-.7,1.51-1.42,2.23-2.14,1.3-1.3,2.57-2.67,3.78-4.07l.59-.68-.65-.62-6.18-5.96Z"/>
      <g>
        <path class="cls-1" d="m328.41,123.12l-7.64-18.53h-41.02l-7.64,18.53h-21.64l39.32-95.9h21.78l39.18,95.9h-22.35Zm-28.15-73.69l-14.43,38.05h28.85l-14.43-38.05Z"/>
        <path class="cls-1" d="m361.37,123.12V27.22h20.93v78.22h47.81v17.68h-68.74Z"/>
        <path class="cls-1" d="m601.74,123.12l-7.64-18.53h-41.02l-7.64,18.53h-21.64l39.32-95.9h21.78l39.18,95.9h-22.35Zm-28.15-73.69l-14.43,38.05h28.85l-14.43-38.05Z"/>
        <path class="cls-1" d="m634.69,123.12V27.22h20.93v78.22h47.81v17.68h-68.74Z"/>
        <circle class="cls-1" cx="208.36" cy="75.32" r="14.21"/>
        <path class="cls-1" d="m208.35,107.53c-17.76,0-32.21-14.45-32.21-32.21s14.45-32.21,32.21-32.21c9.09,0,17.31,3.78,23.16,9.85l12.96-12.52c-9.13-9.45-21.94-15.33-36.12-15.33-27.73,0-50.21,22.48-50.21,50.21s22.48,50.21,50.21,50.21c14.18,0,26.99-5.88,36.12-15.33l-12.96-12.52c-5.85,6.07-14.07,9.85-23.16,9.85Z"/>
        <circle class="cls-1" cx="481.68" cy="75.32" r="14.21"/>
        <path class="cls-1" d="m481.68,107.53c-17.76,0-32.21-14.45-32.21-32.21s14.45-32.21,32.21-32.21c9.09,0,17.31,3.78,23.16,9.85l12.96-12.52c-9.13-9.45-21.94-15.33-36.12-15.33-27.73,0-50.21,22.48-50.21,50.21s22.48,50.21,50.21,50.21c14.18,0,26.99-5.88,36.12-15.33l-12.96-12.52c-5.85,6.07-14.07,9.85-23.16,9.85Z"/>
        <circle class="cls-1" cx="754.01" cy="75.32" r="14.21"/>
        <path class="cls-1" d="m754.01,107.53c-17.76,0-32.21-14.45-32.21-32.21s14.45-32.21,32.21-32.21c9.09,0,17.31,3.78,23.16,9.85l12.96-12.52c-9.13-9.45-21.94-15.33-36.12-15.33-27.73,0-50.21,22.48-50.21,50.21s22.48,50.21,50.21,50.21c14.18,0,26.99-5.88,36.12-15.33l-12.96-12.52c-5.85,6.07-14.07,9.85-23.16,9.85Z"/>
      </g>
    </g>
  </g>
</svg>