<?xml version="1.0" encoding="UTF-8"?>
<svg id="Layer_2" data-name="Layer 2" xmlns="http://www.w3.org/2000/svg" viewBox="0 0 246.69 279.08">
  <defs>
    <style>
      .cls-1 {
        stroke: #231f20;
        stroke-miterlimit: 10;
        stroke-width: .75px;
      }

      .cls-1, .cls-2 {
        fill: #231f20;
      }
    </style>
  </defs>
  <g id="calcalc">
    <g>
      <path class="cls-1" d="m233.42,217l-19.71-19.02-11.42-11.04-19.83-19.15-11.54-11.13-1.58-1.52-1.13,1.87c-2.63,4.29-6.26,8-10.49,10.74-5.42,3.51-11.71,5.36-18.18,5.36-18.51,0-33.57-15.05-33.57-33.55s15.06-33.57,33.57-33.57c5.82,0,11.48,1.5,16.49,4.36.65.35,1.28.74,1.9,1.14,4.21,2.75,7.79,6.5,10.4,10.82l1.13,1.88,14.22-13.72,17.38-16.78,1.38-1.35,11.44-11.03,31.12-30.05,1.19-1.14-1.07-1.26c-2.24-2.6-4.65-5.19-7.16-7.7-1.29-1.29-2.62-2.57-3.94-3.79-.41-.38-.81-.75-1.23-1.11-11.56-10.47-24.69-18.84-39.06-24.92C176.56,4.05,158.32.38,139.54.38s-37.01,3.67-54.17,10.94c-16.58,7-31.46,17.03-44.24,29.82-12.77,12.77-22.81,27.66-29.82,44.22C4.05,102.53.38,120.76.38,139.54s3.67,37,10.94,54.17c7.01,16.58,17.05,31.46,29.82,44.24,12.79,12.79,27.67,22.81,44.24,29.82,17.15,7.25,35.37,10.94,54.17,10.94s37.01-3.69,54.17-10.94c9.83-4.15,19.12-9.42,27.67-15.65,4.3-3.13,8.49-6.56,12.44-10.22,1.4-1.29,2.8-2.63,4.12-3.96,2.41-2.41,4.75-4.93,6.98-7.51l1.1-1.26-1.2-1.14-11.41-11.03Zm-25.65,21.07c-20.12,13.96-43.7,21.35-68.22,21.35-66.1,0-119.89-53.78-119.89-119.88S73.44,19.65,139.54,19.65c29.27,0,57.34,10.65,79.3,30.05l-17.21,16.61-13.98,13.5-17.36,16.78c-9.01-6.49-19.59-9.89-30.74-9.89-29.15,0-52.84,23.7-52.84,52.84s23.7,52.84,52.84,52.84c11.04,0,21.58-3.36,30.53-9.74l18.79,18.15,11.42,11.03,18.36,17.72c-3.48,3.04-7.12,5.91-10.88,8.52Z"/>
      <polygon class="cls-1" points="244.99 51.25 213.87 81.3 201.05 93.68 244.99 51.25"/>
      <g>
        <path class="cls-2" d="m178.76,209.44c-1.4-1.75-3.07-3.14-4.98-4.15-1.91-1.01-4.07-1.59-6.41-1.73-2.34-.14-4.9.26-7.61,1.2-2.15.74-3.97,1.68-5.43,2.79-1.44,1.1-2.61,2.18-3.48,3.22-.87,1.04-1.5,1.95-1.89,2.72-.58,1.17-.6,1.25-.61,1.33l-.04.26,5.75,3.05.17-.35c.08-.16.27-.51.57-1.05.29-.52.73-1.12,1.33-1.78.59-.66,1.35-1.34,2.26-2.02.89-.67,1.99-1.23,3.25-1.66,1.4-.48,2.78-.67,4.1-.56,1.32.11,2.55.48,3.66,1.11,1.11.62,2.11,1.49,2.97,2.56.87,1.08,1.56,2.37,2.07,3.84.46,1.32.71,2.69.76,4.05.04,1.35-.16,2.64-.62,3.82-.45,1.18-1.17,2.26-2.12,3.2-.96.95-2.24,1.7-3.81,2.25-1.23.42-2.39.64-3.45.63-1.07,0-2.02-.11-2.83-.31-.8-.2-1.44-.42-1.91-.66-.5-.26-.79-.41-.88-.45l-.33-.15-3.01,5.92.26.19c.25.17.75.45,1.53.84.79.4,1.81.73,3.05,1,1.14.25,2.47.37,3.98.37.12,0,.25,0,.38,0,1.67-.02,3.57-.4,5.63-1.11,2.68-.92,4.93-2.2,6.69-3.79,1.76-1.59,3.11-3.41,4-5.4.89-1.99,1.36-4.13,1.4-6.38.04-2.23-.34-4.51-1.11-6.76-.79-2.28-1.89-4.31-3.29-6.05Z"/>
        <path class="cls-2" d="m165.07,239.3c-1.53,0-2.9-.13-4.06-.38-1.27-.27-2.32-.62-3.14-1.03-.81-.41-1.31-.68-1.57-.87l-.53-.38,3.32-6.54.66.31c.07.03.3.15.69.35l.2.1c.44.23,1.06.44,1.83.62.77.19,1.69.29,2.74.3.98,0,2.11-.19,3.32-.61,1.52-.52,2.76-1.25,3.67-2.16.92-.91,1.61-1.94,2.04-3.07.43-1.14.63-2.37.59-3.67-.04-1.32-.29-2.65-.73-3.94-.49-1.42-1.16-2.68-2-3.73-.83-1.04-1.8-1.87-2.86-2.47-1.06-.6-2.24-.95-3.51-1.06-1.27-.11-2.6.07-3.95.54-1.23.42-2.28.97-3.15,1.61-.89.67-1.63,1.33-2.2,1.97-.57.65-1,1.22-1.28,1.71-.3.53-.48.87-.56,1.03l-.34.7-6.33-3.36.08-.53c.02-.14.03-.23.64-1.45.41-.8,1.06-1.74,1.93-2.79.88-1.06,2.07-2.17,3.54-3.28,1.48-1.13,3.34-2.09,5.53-2.84,2.76-.95,5.37-1.36,7.76-1.22,2.4.14,4.61.74,6.57,1.77,1.96,1.03,3.67,2.46,5.1,4.25h0c1.42,1.78,2.55,3.86,3.35,6.17.79,2.29,1.17,4.61,1.13,6.88-.04,2.3-.52,4.5-1.43,6.52-.91,2.03-2.29,3.89-4.09,5.52-1.8,1.63-4.1,2.93-6.82,3.87-2.1.72-4.03,1.1-5.74,1.13h-.38Zm-8.34-2.89h0c.23.16.72.44,1.48.81.76.38,1.75.71,2.96.97,1.11.24,2.43.36,3.9.36h.37c1.64-.03,3.49-.39,5.51-1.09,2.63-.91,4.84-2.16,6.56-3.72,1.73-1.56,3.04-3.33,3.91-5.27.87-1.93,1.33-4.03,1.36-6.23.04-2.19-.33-4.42-1.09-6.63-.77-2.23-1.85-4.23-3.22-5.94h0c-1.36-1.7-3-3.07-4.86-4.05-1.86-.98-3.97-1.55-6.26-1.68-2.28-.14-4.8.26-7.47,1.18-2.11.73-3.9,1.65-5.32,2.73-1.42,1.08-2.57,2.15-3.41,3.17-.84,1.01-1.46,1.9-1.84,2.65-.45.89-.56,1.15-.57,1.2h0s5.18,2.76,5.18,2.76c.08-.17.27-.52.58-1.07.3-.54.76-1.16,1.37-1.85.6-.68,1.38-1.37,2.31-2.07.93-.69,2.06-1.27,3.35-1.72,1.45-.5,2.88-.69,4.26-.58,1.38.12,2.66.51,3.81,1.15,1.15.65,2.19,1.54,3.08,2.66.89,1.12,1.61,2.45,2.13,3.95.47,1.36.73,2.76.78,4.16.05,1.4-.17,2.73-.64,3.97-.47,1.23-1.22,2.35-2.21,3.34s-2.33,1.77-3.96,2.33c-1.29.44-2.49.65-3.58.65-1.1,0-2.09-.12-2.91-.32-.83-.2-1.5-.43-1.99-.69l-.21-.1c-.37-.19-.58-.3-.66-.33h0s-2.7,5.31-2.7,5.31Z"/>
      </g>
      <g>
        <path class="cls-2" d="m121.04,213.09l-12.74-4.34-.42-6.81-7.97-2.72,2.12,35.76.02.25,7.5,2.56,23.74-27.19-7.74-2.64-4.5,5.13Zm-4.36,5.46l-7.85,9.49-.42-12.31,8.27,2.82Z"/>
        <path class="cls-2" d="m109.66,238.23l-7.97-2.72-.03-.5-2.15-36.32,8.74,2.98.42,6.81,12.26,4.18,4.5-5.13,8.51,2.9-24.27,27.8Zm-7.26-3.27l7.02,2.39,23.2-26.58-6.97-2.38-4.5,5.13-13.22-4.51-.42-6.81-7.2-2.45,2.09,35.2Zm6.09-5.91l-.47-13.85,9.3,3.17-8.83,10.68Zm.32-12.78l.37,10.77,6.87-8.3-7.23-2.47Z"/>
      </g>
      <g>
        <polygon class="cls-2" points="68.93 172.32 78.41 185.55 56.77 201.06 61.36 207.46 88.5 188.01 74.43 168.38 68.93 172.32"/>
        <path class="cls-2" d="m61.27,207.99l-5.03-7.01,21.64-15.51-9.48-13.23,6.11-4.38,14.51,20.24-27.75,19.89Zm-3.98-6.84l4.15,5.79,26.53-19.02-13.63-19.02-4.89,3.51,9.48,13.23-21.64,15.51Z"/>
      </g>
      <g>
        <path class="cls-2" d="m65.19,149.99c1.55-1.5,2.77-3.37,3.64-5.56.86-2.18,1.28-4.74,1.23-7.6-.04-2.28-.36-4.3-.96-6.03-.59-1.71-1.26-3.16-1.98-4.31-.72-1.15-1.39-2.03-2-2.64-.93-.92-1-.96-1.08-.99l-.24-.11-4.69,4.52.28.27c.13.12.4.41.82.86.4.43.83,1.05,1.28,1.81.45.77.86,1.7,1.22,2.78.36,1.06.55,2.27.57,3.61.02,1.48-.23,2.85-.74,4.07-.52,1.22-1.25,2.28-2.19,3.13-.94.86-2.07,1.54-3.36,2.03-1.29.49-2.74.75-4.29.77-1.43.02-2.77-.16-4.09-.54-1.3-.38-2.46-.98-3.44-1.77s-1.78-1.81-2.38-3.02c-.6-1.2-.92-2.66-.95-4.32-.02-1.3.14-2.46.48-3.47.34-1.02.74-1.89,1.17-2.59.44-.7.85-1.24,1.22-1.61.4-.4.63-.63.7-.69l.25-.27-4.7-4.71-.26.19c-.24.18-.66.57-1.28,1.19-.62.63-1.26,1.5-1.89,2.58-.64,1.09-1.21,2.45-1.7,4.03-.5,1.6-.73,3.51-.7,5.69.04,2.83.56,5.36,1.52,7.54.97,2.17,2.27,4.02,3.89,5.48,1.61,1.46,3.5,2.58,5.62,3.31,2.01.7,4.17,1.05,6.41,1.05.12,0,.24,0,.35,0,2.41-.04,4.69-.46,6.78-1.24,2.1-.79,3.94-1.95,5.49-3.44Z"/>
        <path class="cls-2" d="m52.57,155.05c-2.29,0-4.48-.36-6.54-1.07-2.17-.75-4.1-1.89-5.75-3.39-1.65-1.5-2.99-3.38-3.98-5.61-.99-2.22-1.51-4.81-1.56-7.68-.04-2.22.21-4.17.72-5.81.5-1.61,1.08-2.99,1.74-4.11.65-1.12,1.31-2.01,1.95-2.66.63-.63,1.06-1.03,1.32-1.23l.52-.39,5.19,5.2-.5.53c-.07.07-.3.3-.71.7-.36.35-.75.87-1.16,1.54-.42.68-.81,1.53-1.14,2.51-.32.96-.48,2.09-.46,3.34.02,1.61.33,3.01.91,4.16.58,1.16,1.35,2.13,2.28,2.89.94.77,2.05,1.34,3.31,1.7,1.27.37,2.58.52,3.97.53,1.51-.02,2.91-.28,4.16-.75,1.25-.47,2.34-1.12,3.24-1.95.9-.82,1.6-1.83,2.1-3,.5-1.17.74-2.49.71-3.92-.02-1.3-.21-2.47-.55-3.49-.36-1.06-.76-1.97-1.19-2.71-.44-.76-.86-1.34-1.23-1.75-.41-.45-.68-.73-.8-.85l-.56-.54,5.16-4.97.47.22c.14.06.21.1,1.18,1.07.62.62,1.31,1.53,2.05,2.71.74,1.17,1.42,2.64,2.02,4.38.61,1.76.94,3.83.98,6.14.05,2.92-.38,5.52-1.26,7.75-.88,2.23-2.13,4.15-3.72,5.69h0c-1.59,1.54-3.48,2.72-5.62,3.53-2.13.8-4.45,1.22-6.9,1.26h-.36Zm-11.65-30.95h0c-.22.17-.64.55-1.23,1.15-.6.6-1.22,1.45-1.84,2.51-.62,1.07-1.18,2.4-1.67,3.95-.49,1.56-.72,3.44-.68,5.57.04,2.78.55,5.26,1.49,7.39.95,2.13,2.22,3.93,3.79,5.36,1.58,1.43,3.42,2.52,5.5,3.23,1.97.68,4.09,1.03,6.29,1.03h.35c2.36-.04,4.6-.45,6.65-1.22,2.05-.77,3.85-1.9,5.36-3.36,1.51-1.47,2.71-3.29,3.55-5.43.84-2.13,1.25-4.64,1.2-7.46-.04-2.24-.35-4.22-.94-5.91-.58-1.68-1.24-3.1-1.95-4.23-.71-1.13-1.36-1.99-1.94-2.57-.57-.57-.89-.87-.97-.92h-.01s-4.22,4.06-4.22,4.06c.13.13.41.42.83.88.41.44.86,1.08,1.33,1.88.46.78.88,1.74,1.25,2.84.37,1.09.57,2.35.59,3.72.02,1.53-.24,2.95-.77,4.23s-1.31,2.37-2.28,3.26c-.97.89-2.14,1.6-3.48,2.1-1.33.5-2.82.77-4.42.79-1.45.01-2.86-.17-4.2-.56-1.35-.39-2.55-1.01-3.57-1.84-1.02-.83-1.85-1.88-2.48-3.14-.63-1.25-.96-2.76-.99-4.49-.02-1.34.15-2.55.5-3.6.35-1.04.76-1.94,1.21-2.67.45-.72.87-1.29,1.27-1.68.39-.39.62-.62.69-.69l-4.21-4.22Z"/>
      </g>
      <g>
        <path class="cls-2" d="m78.1,103.59l-3.4-5.92,8.24-10.64,6.58,1.8,5.15-6.66-34.76-9.65-4.85,6.26,18.03,31.27,5-6.47Zm-1.81-18.72l-5.35,6.91-6.43-10.5,11.78,3.59Z"/>
        <path class="cls-2" d="m73.05,110.74l-18.44-31.98,5.16-6.66,35.55,9.86-5.65,7.3-6.58-1.8-7.93,10.25,3.4,5.92-5.5,7.11Zm-17.53-31.91l17.63,30.56,4.51-5.83-3.4-5.92,8.55-11.04,6.58,1.8,4.66-6.02-33.98-9.43-4.54,5.86Zm15.39,13.62l-7.24-11.81,13.25,4.04-6.01,7.77Zm-5.56-10.51l5.63,9.19,4.68-6.04-10.31-3.14Z"/>
      </g>
      <g>
        <polygon class="cls-2" points="108.93 74.95 132.06 68.01 130.12 61.52 114.53 66.2 106.99 41.06 106.88 40.7 99.33 42.96 108.82 74.59 108.93 74.95"/>
        <path class="cls-2" d="m108.67,75.42l-.21-.72-9.6-31.99,8.27-2.48,7.65,25.5,15.59-4.68,2.16,7.21-23.86,7.16Zm-8.88-32.2l9.38,31.27,22.41-6.73-1.73-5.76-15.59,4.68-.11-.36-7.54-25.14-6.83,2.05Z"/>
      </g>
      <g>
        <path class="cls-2" d="m156.38,70.3c1.77,1.54,4.04,2.79,6.75,3.7,2.16.73,4.18,1.1,6,1.11h.21c1.72,0,3.24-.14,4.52-.43,1.32-.29,2.38-.63,3.15-1,1.18-.56,1.24-.62,1.3-.69l.18-.18-2.69-5.93-.35.17c-.16.08-.52.24-1.09.48-.55.24-1.27.44-2.14.6-.88.17-1.89.24-3.02.22-1.12-.02-2.33-.24-3.59-.67-1.41-.47-2.61-1.17-3.59-2.06-.98-.89-1.73-1.94-2.22-3.11-.5-1.17-.76-2.47-.79-3.84-.02-1.38.21-2.83.71-4.3.45-1.33,1.08-2.56,1.88-3.67.79-1.1,1.74-1.99,2.82-2.65,1.08-.66,2.3-1.07,3.64-1.24,1.34-.17,2.81.02,4.39.55,1.23.41,2.28.95,3.11,1.61.84.66,1.53,1.32,2.05,1.97.51.65.89,1.21,1.11,1.69.24.51.38.81.42.89l.17.33,6.01-2.85-.09-.31c-.09-.28-.31-.81-.69-1.6-.38-.79-.99-1.68-1.8-2.65-.81-.96-1.9-1.96-3.23-2.95-1.34-1-3.07-1.87-5.13-2.56-2.68-.9-5.24-1.27-7.61-1.08-2.37.18-4.55.8-6.47,1.83-1.92,1.03-3.6,2.44-5,4.19-1.4,1.75-2.49,3.77-3.25,6.03-.77,2.28-1.14,4.57-1.1,6.8.04,2.24.51,4.37,1.41,6.33.9,1.96,2.25,3.74,4.02,5.29Z"/>
        <path class="cls-2" d="m169.34,75.49h-.21c-1.86-.01-3.92-.39-6.12-1.13-2.76-.93-5.07-2.2-6.88-3.78-1.81-1.58-3.2-3.4-4.12-5.41-.92-2-1.4-4.18-1.44-6.48-.04-2.28.34-4.61,1.12-6.93.77-2.29,1.89-4.36,3.31-6.14,1.43-1.79,3.16-3.24,5.12-4.29,1.96-1.05,4.19-1.68,6.61-1.87,2.43-.18,5.03.19,7.76,1.1,2.1.71,3.86,1.59,5.23,2.62,1.35,1.01,2.45,2.02,3.29,3.01.84.99,1.46,1.91,1.85,2.73s.62,1.35.71,1.65l.19.62-6.63,3.15-.34-.65c-.04-.09-.19-.38-.43-.9-.21-.45-.57-.99-1.07-1.61-.49-.62-1.16-1.26-1.99-1.91-.8-.63-1.81-1.15-3-1.55-1.53-.52-2.96-.7-4.23-.54-1.28.16-2.46.56-3.49,1.19-1.04.63-1.95,1.49-2.71,2.54-.78,1.08-1.4,2.28-1.83,3.57-.48,1.43-.72,2.83-.69,4.18.02,1.32.28,2.57.76,3.7.47,1.12,1.19,2.12,2.13,2.98.94.86,2.1,1.53,3.45,1.99,1.23.42,2.4.63,3.48.65,1.14.02,2.12-.06,2.95-.21.84-.16,1.53-.35,2.06-.58.55-.24.91-.4,1.07-.47l.7-.35,2.96,6.52-.37.37c-.1.1-.17.17-1.4.76-.79.38-1.88.73-3.23,1.03-1.3.29-2.85.44-4.6.44Zm-1.38-35.32c-.4,0-.79.01-1.17.04-2.32.18-4.45.78-6.32,1.79-1.87,1-3.51,2.38-4.89,4.1-1.37,1.71-2.44,3.7-3.18,5.91-.75,2.24-1.12,4.49-1.08,6.68.04,2.19.5,4.27,1.38,6.18.87,1.91,2.2,3.65,3.93,5.16h0c1.73,1.51,3.96,2.73,6.63,3.63,2.12.71,4.1,1.08,5.88,1.09h.2c1.7,0,3.19-.14,4.43-.42,1.3-.29,2.33-.62,3.07-.97.95-.45,1.15-.57,1.19-.61h0s-2.42-5.34-2.42-5.34c-.16.08-.53.25-1.1.49-.58.25-1.33.46-2.22.62-.88.17-1.9.23-3.1.23-1.16-.02-2.4-.25-3.71-.69-1.45-.49-2.71-1.21-3.72-2.14-1.02-.93-1.8-2.02-2.31-3.24-.52-1.22-.79-2.56-.82-3.98-.02-1.43.22-2.92.73-4.43.46-1.36,1.1-2.63,1.93-3.77.82-1.14,1.81-2.07,2.93-2.75,1.12-.68,2.4-1.12,3.79-1.29,1.38-.17,2.92.02,4.56.57,1.27.43,2.35.99,3.22,1.67.87.68,1.58,1.37,2.11,2.03.53.67.92,1.26,1.16,1.76.24.5.37.79.42.88l5.38-2.56c-.08-.26-.31-.78-.67-1.55-.37-.76-.96-1.63-1.75-2.57-.8-.95-1.87-1.92-3.17-2.89-1.31-.98-3-1.82-5.02-2.51-2.19-.74-4.31-1.11-6.29-1.11Z"/>
      </g>
    </g>
  </g>
</svg>