<?xml version="1.0" encoding="UTF-8"?>
<svg id="Layer_2" data-name="Layer 2" xmlns="http://www.w3.org/2000/svg" viewBox="0 0 386.26 146.05">
  <defs>
    <style>
      .cls-1 {
        fill: #231f20;
      }
    </style>
  </defs>
  <g id="calcalc">
    <g>
      <g>
        <circle class="cls-1" cx="73.03" cy="73.03" r="20.67"/>
        <path class="cls-1" d="m73.03,119.87c-25.83,0-46.85-21.02-46.85-46.85s21.02-46.85,46.85-46.85c13.22,0,25.18,5.5,33.68,14.33l18.85-18.21C112.28,8.55,93.65,0,73.03,0,32.7,0,0,32.7,0,73.03s32.7,73.03,73.03,73.03c20.62,0,39.26-8.55,52.53-22.3l-18.85-18.21c-8.51,8.83-20.46,14.33-33.68,14.33Z"/>
      </g>
      <g>
        <circle class="cls-1" cx="203.38" cy="73.03" r="20.67"/>
        <path class="cls-1" d="m203.38,119.87c-25.83,0-46.85-21.02-46.85-46.85s21.02-46.85,46.85-46.85c13.22,0,25.18,5.5,33.68,14.33l18.85-18.21C242.63,8.55,224,0,203.38,0c-40.33,0-73.03,32.7-73.03,73.03s32.7,73.03,73.03,73.03c20.62,0,39.26-8.55,52.53-22.3l-18.85-18.21c-8.51,8.83-20.46,14.33-33.68,14.33Z"/>
      </g>
      <g>
        <circle class="cls-1" cx="333.73" cy="73.03" r="20.67"/>
        <path class="cls-1" d="m333.73,119.87c-25.83,0-46.85-21.02-46.85-46.85s21.02-46.85,46.85-46.85c13.22,0,25.18,5.5,33.68,14.33l18.85-18.21c-13.28-13.74-31.91-22.3-52.53-22.3-40.33,0-73.03,32.7-73.03,73.03s32.7,73.03,73.03,73.03c20.62,0,39.26-8.55,52.53-22.3l-18.85-18.21c-8.51,8.83-20.46,14.33-33.68,14.33Z"/>
      </g>
    </g>
  </g>
</svg>