<?xml version="1.0" encoding="UTF-8"?>
<svg id="Layer_2" data-name="Layer 2" xmlns="http://www.w3.org/2000/svg" viewBox="0 0 854.25 200.03">
  <defs>
    <style>
      .cls-1 {
        fill: #231f20;
      }
    </style>
  </defs>
  <g id="calcalc">
    <g>
      <path class="cls-1" d="m244.81,83.92l-6.55-15.89h-35.18l-6.55,15.89h-18.56L211.69,1.66h18.68l33.61,82.26h-19.17Zm-24.14-63.21l-12.38,32.64h24.75l-12.38-32.64Z"/>
      <path class="cls-1" d="m273.08,83.92V1.66h17.96v67.09h41.01v15.17h-58.97Z"/>
      <path class="cls-1" d="m585.95,83.92l-6.55-15.89h-35.18l-6.55,15.89h-18.56L552.83,1.66h18.68l33.61,82.26h-19.17Zm-24.14-63.21l-12.38,32.64h24.75l-12.38-32.64Z"/>
      <path class="cls-1" d="m614.22,83.92V1.66h17.96v67.09h41.01v15.17h-58.97Z"/>
      <path class="cls-1" d="m244.81,197.8l-6.55-15.89h-35.18l-6.55,15.89h-18.56l33.73-82.26h18.68l33.61,82.26h-19.17Zm-24.14-63.21l-12.38,32.64h24.75l-12.38-32.64Z"/>
      <path class="cls-1" d="m273.08,197.8v-82.26h17.96v67.09h41.01v15.17h-58.97Z"/>
      <path class="cls-1" d="m585.95,197.8l-6.55-15.89h-35.18l-6.55,15.89h-18.56l33.73-82.26h18.68l33.61,82.26h-19.17Zm-24.14-63.21l-12.38,32.64h24.75l-12.38-32.64Z"/>
      <path class="cls-1" d="m614.22,197.8v-82.26h17.96v67.09h41.01v15.17h-58.97Z"/>
      <g>
        <circle class="cls-1" cx="100.02" cy="100.01" r="28.31"/>
        <path class="cls-1" d="m100.01,164.17c-35.38,0-64.16-28.78-64.16-64.16s28.78-64.16,64.16-64.16c18.11,0,34.48,7.53,46.13,19.62l25.81-24.94C153.78,11.71,128.26,0,100.01,0,44.78,0,0,44.78,0,100.01s44.78,100.01,100.01,100.01c28.25,0,53.76-11.71,71.95-30.54l-25.81-24.94c-11.65,12.09-28.03,19.62-46.13,19.62Z"/>
      </g>
      <g>
        <circle class="cls-1" cx="441.16" cy="100.01" r="28.31"/>
        <path class="cls-1" d="m441.16,164.17c-35.38,0-64.16-28.78-64.16-64.16s28.78-64.16,64.16-64.16c18.11,0,34.48,7.53,46.13,19.62l25.81-24.94C494.92,11.71,469.4,0,441.16,0c-55.24,0-100.01,44.78-100.01,100.01s44.78,100.01,100.01,100.01c28.25,0,53.76-11.71,71.95-30.54l-25.81-24.94c-11.65,12.09-28.03,19.62-46.13,19.62Z"/>
      </g>
      <g>
        <circle class="cls-1" cx="782.31" cy="100.01" r="28.31"/>
        <path class="cls-1" d="m782.3,164.17c-35.38,0-64.16-28.78-64.16-64.16s28.78-64.16,64.16-64.16c18.11,0,34.48,7.53,46.13,19.62l25.81-24.94c-18.19-18.82-43.7-30.54-71.95-30.54-55.24,0-100.01,44.78-100.01,100.01s44.78,100.01,100.01,100.01c28.25,0,53.76-11.71,71.95-30.54l-25.81-24.94c-11.65,12.09-28.03,19.62-46.13,19.62Z"/>
      </g>
    </g>
  </g>
</svg>