<?xml version="1.0" encoding="UTF-8"?>
<svg id="Layer_2" data-name="Layer 2" xmlns="http://www.w3.org/2000/svg" viewBox="0 0 854.25 192.6">
  <defs>
    <style>
      .cls-1 {
        fill: #231f20;
      }
    </style>
  </defs>
  <g id="calcalc">
    <g>
      <path class="cls-1" d="m247.29,81.08l-6.31-15.3h-33.88l-6.31,15.3h-17.87L215.39,1.87h17.99l32.36,79.21h-18.46Zm-23.25-60.87l-11.92,31.43h23.83l-11.92-31.43Z"/>
      <path class="cls-1" d="m274.51,81.08V1.87h17.29v64.6h39.49v14.6h-56.78Z"/>
      <path class="cls-1" d="m587.33,81.08l-6.31-15.3h-33.88l-6.31,15.3h-17.87L555.44,1.87h17.99l32.36,79.21h-18.46Zm-23.25-60.87l-11.92,31.43h23.83l-11.92-31.43Z"/>
      <path class="cls-1" d="m614.55,81.08V1.87h17.29v64.6h39.49v14.6h-56.78Z"/>
      <path class="cls-1" d="m174.16,161.14c-.18.36-1.95,2.17-5.29,5.43-3.35,3.25-8.23,6.83-14.65,10.71-6.42,3.89-14.42,7.42-24.01,10.58-9.59,3.16-20.71,4.75-33.37,4.75-15.92,0-29.89-2.49-41.91-7.46-12.03-4.97-22.11-11.8-30.25-20.48-8.14-8.68-14.29-18.85-18.45-30.52C2.08,122.48,0,109.96,0,96.57s2.12-25.64,6.37-37.3c4.25-11.66,10.49-21.88,18.72-30.65,8.23-8.77,18.4-15.73,30.52-20.89C67.72,2.58,81.65,0,97.39,0c12.11,0,22.56,1.45,31.33,4.34,8.77,2.9,16.14,6.15,22.11,9.77,5.97,3.62,10.62,7.15,13.97,10.58,3.34,3.44,5.47,5.79,6.38,7.05l-24.14,23.33c-.36-.36-1.63-1.67-3.8-3.93-2.17-2.26-5.29-4.7-9.36-7.33-4.07-2.62-9.05-4.97-14.92-7.05-5.88-2.08-12.61-3.12-20.21-3.12-9.77,0-18.22,1.72-25.36,5.15-7.15,3.44-13.12,8-17.9,13.7-4.79,5.7-8.37,12.34-10.71,19.94-2.35,7.6-3.53,15.46-3.53,23.6,0,9.04,1.36,17.36,4.07,24.96,2.71,7.6,6.55,14.2,11.53,19.8,4.97,5.61,11.03,9.99,18.18,13.16,7.14,3.17,15.06,4.75,23.74,4.75,7.77,0,14.79-.99,21.02-2.98,6.24-1.99,11.62-4.25,16.14-6.78,4.52-2.53,8.09-4.97,10.71-7.32,2.62-2.35,4.29-3.89,5.02-4.61l22.52,24.14Z"/>
      <path class="cls-1" d="m514.2,161.14c-.18.36-1.95,2.17-5.29,5.43-3.35,3.25-8.23,6.83-14.65,10.71-6.42,3.89-14.42,7.42-24.01,10.58-9.59,3.16-20.71,4.75-33.37,4.75-15.92,0-29.89-2.49-41.91-7.46-12.03-4.97-22.11-11.8-30.25-20.48-8.14-8.68-14.29-18.85-18.45-30.52-4.16-11.67-6.24-24.19-6.24-37.57s2.12-25.64,6.37-37.3c4.25-11.66,10.49-21.88,18.72-30.65,8.23-8.77,18.4-15.73,30.52-20.89,12.11-5.15,26.04-7.73,41.78-7.73,12.11,0,22.56,1.45,31.33,4.34,8.77,2.9,16.14,6.15,22.11,9.77,5.97,3.62,10.62,7.15,13.97,10.58,3.34,3.44,5.47,5.79,6.38,7.05l-24.14,23.33c-.36-.36-1.63-1.67-3.8-3.93-2.17-2.26-5.29-4.7-9.36-7.33-4.07-2.62-9.05-4.97-14.92-7.05-5.88-2.08-12.61-3.12-20.21-3.12-9.77,0-18.22,1.72-25.36,5.15-7.15,3.44-13.12,8-17.9,13.7-4.79,5.7-8.37,12.34-10.71,19.94-2.35,7.6-3.53,15.46-3.53,23.6,0,9.04,1.36,17.36,4.07,24.96,2.71,7.6,6.55,14.2,11.53,19.8,4.97,5.61,11.03,9.99,18.18,13.16,7.14,3.17,15.06,4.75,23.74,4.75,7.77,0,14.79-.99,21.02-2.98,6.24-1.99,11.62-4.25,16.14-6.78,4.52-2.53,8.09-4.97,10.71-7.32,2.62-2.35,4.29-3.89,5.02-4.61l22.52,24.14Z"/>
      <path class="cls-1" d="m854.25,161.14c-.18.36-1.95,2.17-5.29,5.43-3.35,3.25-8.23,6.83-14.65,10.71-6.42,3.89-14.42,7.42-24.01,10.58-9.59,3.16-20.71,4.75-33.37,4.75-15.92,0-29.89-2.49-41.91-7.46-12.03-4.97-22.11-11.8-30.25-20.48-8.14-8.68-14.29-18.85-18.45-30.52-4.16-11.67-6.24-24.19-6.24-37.57s2.12-25.64,6.37-37.3c4.25-11.66,10.49-21.88,18.72-30.65,8.23-8.77,18.4-15.73,30.52-20.89,12.11-5.15,26.04-7.73,41.78-7.73,12.11,0,22.56,1.45,31.33,4.34,8.77,2.9,16.14,6.15,22.11,9.77,5.97,3.62,10.62,7.15,13.97,10.58,3.34,3.44,5.47,5.79,6.38,7.05l-24.14,23.33c-.36-.36-1.63-1.67-3.8-3.93-2.17-2.26-5.29-4.7-9.36-7.33-4.07-2.62-9.05-4.97-14.92-7.05-5.88-2.08-12.61-3.12-20.21-3.12-9.77,0-18.22,1.72-25.36,5.15-7.15,3.44-13.12,8-17.9,13.7-4.79,5.7-8.37,12.34-10.71,19.94-2.35,7.6-3.53,15.46-3.53,23.6,0,9.04,1.36,17.36,4.07,24.96,2.71,7.6,6.55,14.2,11.53,19.8,4.97,5.61,11.03,9.99,18.18,13.16,7.14,3.17,15.06,4.75,23.74,4.75,7.77,0,14.79-.99,21.02-2.98,6.24-1.99,11.62-4.25,16.14-6.78,4.52-2.53,8.09-4.97,10.71-7.32,2.62-2.35,4.29-3.89,5.02-4.61l22.52,24.14Z"/>
      <path class="cls-1" d="m247.29,190.73l-6.31-15.3h-33.88l-6.31,15.3h-17.87l32.48-79.21h17.99l32.36,79.21h-18.46Zm-23.25-60.87l-11.92,31.43h23.83l-11.92-31.43Z"/>
      <path class="cls-1" d="m274.51,190.73v-79.21h17.29v64.6h39.49v14.6h-56.78Z"/>
      <path class="cls-1" d="m587.33,190.73l-6.31-15.3h-33.88l-6.31,15.3h-17.87l32.48-79.21h17.99l32.36,79.21h-18.46Zm-23.25-60.87l-11.92,31.43h23.83l-11.92-31.43Z"/>
      <path class="cls-1" d="m614.55,190.73v-79.21h17.29v64.6h39.49v14.6h-56.78Z"/>
    </g>
  </g>
</svg>