<?xml version="1.0" encoding="UTF-8"?>
<svg id="Layer_2" data-name="Layer 2" xmlns="http://www.w3.org/2000/svg" viewBox="0 0 950 222.45">
  <defs>
    <style>
      .cls-1 {
        fill: #231f20;
      }
    </style>
  </defs>
  <g id="calcalc">
    <g>
      <g>
        <circle class="cls-1" cx="111.23" cy="111.22" r="31.49"/>
        <path class="cls-1" d="m111.22,182.58c-39.34,0-71.35-32.01-71.35-71.35S71.88,39.87,111.22,39.87c20.14,0,38.34,8.37,51.3,21.82l28.71-27.73C171.01,13.03,142.64,0,111.22,0,49.8,0,0,49.8,0,111.22s49.8,111.22,111.22,111.22c31.41,0,59.79-13.03,80.01-33.96l-28.71-27.73c-12.96,13.45-31.17,21.82-51.3,21.82Z"/>
      </g>
      <g>
        <circle class="cls-1" cx="490.62" cy="111.22" r="31.49"/>
        <path class="cls-1" d="m490.61,182.58c-39.34,0-71.35-32.01-71.35-71.35s32.01-71.35,71.35-71.35c20.14,0,38.34,8.37,51.3,21.82l28.71-27.73C550.39,13.03,522.02,0,490.61,0c-61.43,0-111.22,49.8-111.22,111.22s49.8,111.22,111.22,111.22c31.41,0,59.79-13.03,80.01-33.96l-28.71-27.73c-12.96,13.45-31.17,21.82-51.3,21.82Z"/>
      </g>
      <g>
        <circle class="cls-1" cx="870" cy="111.22" r="31.49"/>
        <path class="cls-1" d="m869.99,182.58c-39.34,0-71.35-32.01-71.35-71.35s32.01-71.35,71.35-71.35c20.14,0,38.34,8.37,51.3,21.82l28.71-27.73C929.78,13.03,901.4,0,869.99,0c-61.43,0-111.22,49.8-111.22,111.22s49.8,111.22,111.22,111.22c31.41,0,59.79-13.03,80.01-33.96l-28.71-27.73c-12.96,13.45-31.17,21.82-51.3,21.82Z"/>
      </g>
    </g>
  </g>
</svg>