<?xml version="1.0" encoding="UTF-8"?>
<svg id="Layer_2" data-name="Layer 2" xmlns="http://www.w3.org/2000/svg" viewBox="0 0 632.65 278.33">
  <defs>
    <style>
      .cls-1 {
        fill: #231f20;
      }
    </style>
  </defs>
  <g id="calcalc">
    <g>
      <path class="cls-1" d="m233.04,216.63l-19.7-19.03-11.43-11.04-19.83-19.15-11.54-11.14-1.57-1.52-1.14,1.87c-2.63,4.29-6.25,8.01-10.47,10.74-5.42,3.51-11.71,5.37-18.18,5.37-18.51,0-33.56-15.06-33.56-33.56s15.06-33.56,33.56-33.56c6.56,0,12.92,1.9,18.39,5.5,4.2,2.76,7.8,6.5,10.4,10.81l1.14,1.89,1.58-1.53,11.55-11.15,1.08-1.04-.86-1.23c-3.15-4.49-6.96-8.44-11.32-11.76-9.26-7.05-20.31-10.78-31.95-10.78-29.14,0-52.85,23.71-52.85,52.85s23.71,52.85,52.85,52.85c11.05,0,21.57-3.36,30.53-9.74l18.78,18.14,11.43,11.04,18.35,17.72c-3.47,3.05-7.12,5.91-10.88,8.52-20.11,13.97-43.7,21.35-68.22,21.35-66.1,0-119.88-53.78-119.88-119.88S73.07,19.29,139.17,19.29c29.27,0,57.35,10.65,79.29,30.04l-17.2,16.61c-8.43-7.17-17.9-12.76-28.18-16.64-10.8-4.07-22.21-6.14-33.91-6.14-25.64,0-49.75,9.99-67.89,28.12-18.13,18.13-28.12,42.24-28.12,67.89s9.99,49.75,28.12,67.89c18.13,18.13,42.24,28.12,67.89,28.12,17.75,0,35.03-4.84,49.99-14l1.93-1.18-1.63-1.57-11.85-11.44-.92-.89-1.13.61c-11.11,6.01-23.7,9.19-36.39,9.19-42.3,0-76.72-34.42-76.72-76.72s34.42-76.72,76.72-76.72c18.14,0,35.75,6.47,49.59,18.23,3.92,3.33,7.52,7.07,10.71,11.11l1.2,1.52,1.39-1.35,11.43-11.03,19.71-19.03,11.41-11.02,1.19-1.15-1.08-1.25c-2.23-2.6-4.64-5.2-7.15-7.71-1.29-1.29-2.61-2.56-3.94-3.79-11.86-10.98-25.42-19.74-40.29-26.03C176.18,3.68,157.95,0,139.17,0s-37.01,3.68-54.17,10.94c-16.57,7.01-31.45,17.04-44.23,29.82-12.77,12.77-22.81,27.66-29.82,44.23C3.68,102.16,0,120.39,0,139.17s3.68,37.01,10.94,54.17c7.01,16.58,17.04,31.46,29.82,44.23,12.79,12.78,27.67,22.82,44.23,29.82,17.16,7.26,35.39,10.94,54.17,10.94s37.01-3.68,54.17-10.94c9.82-4.15,19.13-9.41,27.67-15.64,4.29-3.13,8.48-6.57,12.43-10.21,1.41-1.3,2.8-2.63,4.13-3.96,2.4-2.4,4.75-4.93,6.99-7.51l1.09-1.26-1.19-1.15-11.41-11.02Z"/>
      <g>
        <path class="cls-1" d="m372.12,69.25l-4.31-10.46h-23.14l-4.31,10.46h-12.21l22.19-54.11h12.29l22.11,54.11h-12.61Zm-15.88-41.58l-8.14,21.47h16.28l-8.14-21.47Z"/>
        <path class="cls-1" d="m390.72,69.25V15.14h11.81v44.14h26.98v9.98h-38.79Z"/>
        <path class="cls-1" d="m526.35,69.25l-4.31-10.46h-23.14l-4.31,10.46h-12.21l22.19-54.11h12.29l22.11,54.11h-12.61Zm-15.88-41.58l-8.14,21.47h16.28l-8.14-21.47Z"/>
        <path class="cls-1" d="m544.94,69.25V15.14h11.81v44.14h26.98v9.98h-38.79Z"/>
        <circle class="cls-1" cx="304.38" cy="42.27" r="8.02"/>
        <path class="cls-1" d="m304.38,60.45c-10.02,0-18.17-8.15-18.17-18.18s8.15-18.17,18.17-18.17c5.13,0,9.77,2.13,13.07,5.56l7.31-7.06c-5.15-5.33-12.38-8.65-20.38-8.65-15.65,0-28.33,12.68-28.33,28.33s12.68,28.33,28.33,28.33c8,0,15.23-3.32,20.38-8.65l-7.31-7.06c-3.3,3.43-7.94,5.56-13.07,5.56Z"/>
        <circle class="cls-1" cx="458.61" cy="42.27" r="8.02"/>
        <path class="cls-1" d="m458.6,60.45c-10.02,0-18.17-8.15-18.17-18.18s8.15-18.17,18.17-18.17c5.13,0,9.77,2.13,13.07,5.56l7.31-7.06c-5.15-5.33-12.38-8.65-20.38-8.65-15.65,0-28.33,12.68-28.33,28.33s12.68,28.33,28.33,28.33c8,0,15.23-3.32,20.38-8.65l-7.31-7.06c-3.3,3.43-7.94,5.56-13.07,5.56Z"/>
        <circle class="cls-1" cx="612.27" cy="42.27" r="8.02"/>
        <path class="cls-1" d="m612.27,60.45c-10.02,0-18.17-8.15-18.17-18.18s8.15-18.17,18.17-18.17c5.13,0,9.77,2.13,13.07,5.56l7.31-7.06c-5.15-5.33-12.38-8.65-20.38-8.65-15.65,0-28.33,12.68-28.33,28.33s12.68,28.33,28.33,28.33c8,0,15.23-3.32,20.38-8.65l-7.31-7.06c-3.3,3.43-7.94,5.56-13.07,5.56Z"/>
      </g>
      <g>
        <path class="cls-1" d="m372.12,264.01l-4.31-10.46h-23.14l-4.31,10.46h-12.21l22.19-54.11h12.29l22.11,54.11h-12.61Zm-15.88-41.58l-8.14,21.47h16.28l-8.14-21.47Z"/>
        <path class="cls-1" d="m390.72,264.01v-54.11h11.81v44.14h26.98v9.98h-38.79Z"/>
        <path class="cls-1" d="m526.35,264.01l-4.31-10.46h-23.14l-4.31,10.46h-12.21l22.19-54.11h12.29l22.11,54.11h-12.61Zm-15.88-41.58l-8.14,21.47h16.28l-8.14-21.47Z"/>
        <path class="cls-1" d="m544.94,264.01v-54.11h11.81v44.14h26.98v9.98h-38.79Z"/>
        <circle class="cls-1" cx="304.38" cy="237.04" r="8.02"/>
        <path class="cls-1" d="m304.38,255.21c-10.02,0-18.17-8.15-18.17-18.18s8.15-18.17,18.17-18.17c5.13,0,9.77,2.13,13.07,5.56l7.31-7.06c-5.15-5.33-12.38-8.65-20.38-8.65-15.65,0-28.33,12.68-28.33,28.33s12.68,28.33,28.33,28.33c8,0,15.23-3.32,20.38-8.65l-7.31-7.06c-3.3,3.43-7.94,5.56-13.07,5.56Z"/>
        <circle class="cls-1" cx="458.61" cy="237.04" r="8.02"/>
        <path class="cls-1" d="m458.6,255.21c-10.02,0-18.17-8.15-18.17-18.18s8.15-18.17,18.17-18.17c5.13,0,9.77,2.13,13.07,5.56l7.31-7.06c-5.15-5.33-12.38-8.65-20.38-8.65-15.65,0-28.33,12.68-28.33,28.33s12.68,28.33,28.33,28.33c8,0,15.23-3.32,20.38-8.65l-7.31-7.06c-3.3,3.43-7.94,5.56-13.07,5.56Z"/>
        <circle class="cls-1" cx="612.27" cy="237.04" r="8.02"/>
        <path class="cls-1" d="m612.27,255.21c-10.02,0-18.17-8.15-18.17-18.18s8.15-18.17,18.17-18.17c5.13,0,9.77,2.13,13.07,5.56l7.31-7.06c-5.15-5.33-12.38-8.65-20.38-8.65-15.65,0-28.33,12.68-28.33,28.33s12.68,28.33,28.33,28.33c8,0,15.23-3.32,20.38-8.65l-7.31-7.06c-3.3,3.43-7.94,5.56-13.07,5.56Z"/>
      </g>
      <g>
        <path class="cls-1" d="m372.12,166.63l-4.31-10.46h-23.14l-4.31,10.46h-12.21l22.19-54.11h12.29l22.11,54.11h-12.61Zm-15.88-41.58l-8.14,21.47h16.28l-8.14-21.47Z"/>
        <path class="cls-1" d="m390.72,166.63v-54.11h11.81v44.14h26.98v9.98h-38.79Z"/>
        <path class="cls-1" d="m526.35,166.63l-4.31-10.46h-23.14l-4.31,10.46h-12.21l22.19-54.11h12.29l22.11,54.11h-12.61Zm-15.88-41.58l-8.14,21.47h16.28l-8.14-21.47Z"/>
        <path class="cls-1" d="m544.94,166.63v-54.11h11.81v44.14h26.98v9.98h-38.79Z"/>
        <circle class="cls-1" cx="304.38" cy="139.66" r="8.02"/>
        <path class="cls-1" d="m304.38,157.83c-10.02,0-18.17-8.15-18.17-18.18s8.15-18.17,18.17-18.17c5.13,0,9.77,2.13,13.07,5.56l7.31-7.06c-5.15-5.33-12.38-8.65-20.38-8.65-15.65,0-28.33,12.68-28.33,28.33s12.68,28.33,28.33,28.33c8,0,15.23-3.32,20.38-8.65l-7.31-7.06c-3.3,3.43-7.94,5.56-13.07,5.56Z"/>
        <circle class="cls-1" cx="458.61" cy="139.66" r="8.02"/>
        <path class="cls-1" d="m458.6,157.83c-10.02,0-18.17-8.15-18.17-18.18s8.15-18.17,18.17-18.17c5.13,0,9.77,2.13,13.07,5.56l7.31-7.06c-5.15-5.33-12.38-8.65-20.38-8.65-15.65,0-28.33,12.68-28.33,28.33s12.68,28.33,28.33,28.33c8,0,15.23-3.32,20.38-8.65l-7.31-7.06c-3.3,3.43-7.94,5.56-13.07,5.56Z"/>
        <circle class="cls-1" cx="612.27" cy="139.66" r="8.02"/>
        <path class="cls-1" d="m612.27,157.83c-10.02,0-18.17-8.15-18.17-18.18s8.15-18.17,18.17-18.17c5.13,0,9.77,2.13,13.07,5.56l7.31-7.06c-5.15-5.33-12.38-8.65-20.38-8.65-15.65,0-28.33,12.68-28.33,28.33s12.68,28.33,28.33,28.33c8,0,15.23-3.32,20.38-8.65l-7.31-7.06c-3.3,3.43-7.94,5.56-13.07,5.56Z"/>
      </g>
    </g>
  </g>
</svg>