<?xml version="1.0" encoding="utf-8"?>
<!-- Generator: Adobe Illustrator 27.3.1, SVG Export Plug-In . SVG Version: 6.00 Build 0)  -->
<svg version="1.1" id="Layer_2_00000113328889369302180750000018318815295441507250_"
	 xmlns="http://www.w3.org/2000/svg" xmlns:xlink="http://www.w3.org/1999/xlink" x="0px" y="0px" viewBox="0 0 363.6 440.2"
	 style="enable-background:new 0 0 363.6 440.2;" xml:space="preserve">
<path d="M35.5,377c-3.6-3-5-6-6.2-10.2v-0.1c0-0.1,0-0.3,0.2-0.4l12.2-6.6l0.2,0c0.2,0,0.4,0.1,0.4,0.4l0,0.2
	c-0.9,1.8-1.4,4.1-1.4,6.3c0,1.8,0.3,3.4,0.8,4.8c1.7,4,5.7,6,9.4,6c4.3,0,8.2-2.6,8.2-7.6c0-0.4,0-0.8-0.1-1.3
	c-1.3-10.1-27.4-15-27.4-30.4c0-0.6,0-1.2,0.1-1.8c1-8.1,10.4-13.1,19.8-13.1c13.2,0,19.6,7.8,19.8,21c0,0.2-0.2,0.5-0.4,0.5H57.9
	c-0.2,0-0.3-0.1-0.4-0.4c0-0.1,0-0.2,0.1-0.3c2.2-2.4,3.8-6.8,3.8-9.8c0-0.4,0-0.8-0.1-1.1c-0.7-4.3-4.7-6.5-8.7-6.5
	c-4.5,0-9.1,2.7-9.1,7.9c0,0.5,0.1,1,0.2,1.6c1.7,10,27.5,15.1,27.5,30.5c0,0.7-0.1,1.5-0.2,2.3c-1.3,8.1-10.9,12.9-20.5,12.9
	C45,381.9,39.5,380.4,35.5,377L35.5,377z M99.7,381.5c0-0.1,0-0.3,0.2-0.4c2-1.6,2.8-5.1,2.8-7.5v-16.5h-15v16.5
	c0,2.4,0.8,5.9,2.8,7.5c0.1,0.1,0.2,0.2,0.2,0.3c-0.1,0.3-0.2,0.4-0.4,0.4c-5.4,0-10.8,0-16.2,0c-0.3,0-0.4-0.1-0.4-0.4
	c0-0.1,0-0.3,0.2-0.4c2-1.6,2.8-5.1,2.8-7.5v-42.1c0-2.3-0.8-5.9-2.8-7.5c-0.1-0.1-0.2-0.2-0.2-0.3c0-0.2,0-0.3,0.2-0.4h16.3
	c0.3,0,0.3,0.1,0.4,0.4c0,0.1-0.1,0.3-0.2,0.4c-2,1.6-2.8,5.1-2.8,7.5v21.6h15v-21.7c0-2.3-0.8-5.9-2.8-7.5
	c-0.1-0.1-0.2-0.2-0.2-0.3c0-0.2,0-0.3,0.2-0.4h16.3c0.3,0,0.3,0.1,0.4,0.5c0,0.1-0.1,0.2-0.2,0.3c-2.1,1.6-2.8,5.1-2.8,7.5v42
	c0,2.4,0.8,5.9,2.8,7.5c0.1,0.1,0.2,0.2,0.2,0.3c-0.1,0.3-0.1,0.4-0.4,0.4c-5.4,0-10.7,0-16.2,0C99.9,381.9,99.7,381.7,99.7,381.5
	L99.7,381.5z M149.7,323.4c0.2,0,0.3,0.1,0.4,0.3l12.6,46.5c0.9,3.4,2.3,8.6,5.4,10.9c0.1,0.1,0.1,0.2,0.1,0.4v0.1
	c-0.1,0.2-0.2,0.3-0.4,0.3h-17c-0.2,0-0.4-0.1-0.4-0.3v-0.1c0-0.1,0-0.2,0.1-0.3c1.4-1,1.9-2.7,1.9-4.6c0-1.3-0.2-2.5-0.6-3.7
	l-2.5-9.7h-16.2l-2.5,9.7c-0.3,1.1-0.5,2.4-0.5,3.6c0,1.8,0.5,3.6,1.8,4.7c0.1,0.1,0.1,0.2,0.1,0.4v0.1c-0.1,0.2-0.2,0.3-0.4,0.3
	h-10.8c-0.2,0-0.3-0.1-0.4-0.3c0,0,0-0.1,0-0.1c0-0.1,0.1-0.2,0.2-0.3c2.9-2.2,4.5-7.6,5.4-10.9l12.5-46.5c0-0.2,0.2-0.3,0.4-0.3
	L149.7,323.4L149.7,323.4z M134.1,359.3h14.2l-7.1-27L134.1,359.3z M172.3,381.8c-0.3,0-0.4-0.1-0.4-0.4c0-0.1,0-0.3,0.1-0.3
	c2-1.6,2.8-5.2,2.8-7.5v-42c0-2.3-0.8-5.9-2.8-7.5c-0.1-0.1-0.1-0.2-0.1-0.3c0-0.3,0.1-0.4,0.4-0.4l18.8,0c2.3,0,4.6,0,6.9,0
	c10,1.5,14.9,15.4,14.9,29.2c0,14.5-5.4,29-16.2,29.2l-6.3,0.1L172.3,381.8L172.3,381.8z M202.5,351.3c0-12.2-3.9-24-11.7-24h-4.9
	v50.7h3.3C198.1,377.9,202.5,364.4,202.5,351.3z M217.5,352.5c0-14.6,7.7-29.2,23.3-29.2s23.3,14.6,23.3,29.2s-7.8,29.3-23.3,29.3
	S217.5,367.2,217.5,352.5L217.5,352.5z M253.1,352.4c0-12.8-4.7-25.2-12.3-25.2s-12.2,12.5-12.3,25.4c0,12.7,4.6,25.5,12.3,25.5
	S253.1,365.2,253.1,352.4L253.1,352.4z M305.6,381.9c-0.2,0-0.4-0.1-0.4-0.4l-7.2-32.6l-8.4,32.7c0,0.2-0.2,0.3-0.4,0.3h-11
	c-0.2,0-0.4-0.1-0.4-0.4l-10-46.5c-0.7-3.1-2.5-8.5-5.6-10.9c-0.1-0.1-0.2-0.2-0.2-0.3c0.1-0.3,0.2-0.4,0.4-0.4h17.6
	c0.2,0,0.4,0.1,0.4,0.4c0,0.1,0,0.3-0.1,0.3c-1.5,1.1-2.1,2.7-2.1,4.6c0,1.1,0.2,2.3,0.4,3.6l8.2,40.6l8.8-37
	c-0.9-3.8-2.5-9.2-5.9-11.9c-0.1-0.1-0.2-0.2-0.2-0.3c0.1-0.3,0.2-0.4,0.4-0.4h17.6c0.2,0,0.4,0.1,0.4,0.5c0,0.1-0.1,0.2-0.2,0.3
	c-1.5,1.1-2,2.7-2,4.6c0,1.1,0.1,2.3,0.4,3.6l8.2,40.6l9.8-40.6c0.2-1.3,0.4-2.6,0.4-3.7c0-1.8-0.5-3.4-2.1-4.5
	c-0.1-0.1-0.2-0.2-0.2-0.3c0-0.3,0.1-0.4,0.4-0.4h11.4c0.3,0,0.4,0.1,0.4,0.4c0,0.1,0,0.3-0.1,0.3c-3.1,2.4-4.8,7.8-5.5,10.9
	l-11.5,46.6c0,0.2-0.2,0.3-0.4,0.3L305.6,381.9L305.6,381.9z M133.6,400.1l-1,0.8c-0.6-0.7-1.2-1.3-2-1.7s-1.7-0.6-2.6-0.6
	c-1,0-2,0.2-2.9,0.7c-0.9,0.5-1.6,1.2-2.1,2c-0.5,0.8-0.7,1.8-0.7,2.8c0,1.6,0.5,2.9,1.6,4s2.4,1.6,4.1,1.6c1.8,0,3.3-0.7,4.6-2.1
	l1,0.8c-0.6,0.8-1.4,1.5-2.4,1.9c-1,0.5-2,0.7-3.2,0.7c-2.3,0-4.1-0.8-5.4-2.3c-1.1-1.3-1.7-2.8-1.7-4.6c0-1.9,0.7-3.5,2-4.8
	c1.3-1.3,3-1.9,5-1.9c1.2,0,2.3,0.2,3.3,0.7C132.2,398.5,133,399.2,133.6,400.1L133.6,400.1z M145.6,401v9.6h-1.2V409
	c-0.5,0.6-1.1,1.1-1.7,1.4s-1.3,0.5-2.1,0.5c-1.4,0-2.5-0.5-3.5-1.5c-1-1-1.4-2.2-1.4-3.6s0.5-2.6,1.4-3.5s2.1-1.5,3.5-1.5
	c0.8,0,1.5,0.2,2.1,0.5s1.2,0.8,1.7,1.5V401H145.6L145.6,401z M140.6,402c-0.7,0-1.3,0.2-1.9,0.5s-1,0.8-1.4,1.4
	c-0.3,0.6-0.5,1.2-0.5,1.9s0.2,1.3,0.5,1.9c0.3,0.6,0.8,1.1,1.4,1.4s1.2,0.5,1.9,0.5s1.3-0.2,1.9-0.5s1.1-0.8,1.4-1.4s0.5-1.2,0.5-2
	c0-1.1-0.4-2-1.1-2.8C142.6,402.3,141.7,402,140.6,402L140.6,402z M152.3,397.3v1.2c-0.4-0.2-0.8-0.3-1.2-0.3c-0.2,0-0.4,0-0.6,0.1
	s-0.3,0.2-0.3,0.3c0,0.1-0.1,0.5-0.1,1v1.3h2v1.1h-2v8.5h-1.2v-8.5h-1.3V401h1.3v-1.5c0-0.7,0.1-1.2,0.2-1.5s0.3-0.5,0.6-0.7
	s0.7-0.3,1.1-0.3C151.2,397.1,151.7,397.2,152.3,397.3L152.3,397.3z M162.1,407.4l1,0.5c-0.3,0.7-0.7,1.2-1.2,1.6s-0.9,0.7-1.5,0.9
	c-0.6,0.2-1.2,0.3-1.9,0.3c-1.6,0-2.8-0.5-3.7-1.5s-1.3-2.2-1.3-3.5c0-1.2,0.4-2.3,1.1-3.2c0.9-1.2,2.2-1.8,3.8-1.8s2.9,0.6,3.9,1.9
	c0.7,0.9,1.1,2,1.1,3.3h-8.6c0,1.1,0.4,2,1.1,2.7c0.7,0.7,1.5,1.1,2.6,1.1c0.5,0,1-0.1,1.4-0.2c0.5-0.2,0.9-0.4,1.2-0.7
	C161.3,408.5,161.7,408.1,162.1,407.4L162.1,407.4z M162.1,404.9c-0.2-0.7-0.4-1.2-0.7-1.6c-0.3-0.4-0.7-0.7-1.2-1
	c-0.5-0.2-1.1-0.4-1.6-0.4c-0.9,0-1.8,0.3-2.4,0.9c-0.5,0.4-0.9,1.1-1.1,2L162.1,404.9L162.1,404.9z M159.1,396.5h1.9l-2.6,2.7h-1.2
	L159.1,396.5L159.1,396.5z M180.7,405.8l0.9,0.9c-0.6,0.5-1.1,0.9-1.6,1.3c0.4,0.3,0.8,0.8,1.4,1.3c0.4,0.4,0.8,0.9,1.1,1.2h-1.8
	l-1.7-1.8c-1.1,0.9-2,1.4-2.6,1.7s-1.4,0.4-2.1,0.4c-1,0-1.8-0.3-2.4-0.9c-0.6-0.6-0.9-1.3-0.9-2.1c0-0.6,0.2-1.3,0.6-1.9
	s1.2-1.5,2.5-2.5c-0.7-0.9-1.2-1.5-1.4-1.9c-0.2-0.4-0.3-0.8-0.3-1.2c0-0.6,0.2-1.2,0.8-1.6c0.6-0.5,1.3-0.7,2.1-0.7
	c0.5,0,1,0.1,1.5,0.3s0.8,0.5,1,0.9c0.2,0.4,0.4,0.8,0.4,1.2c0,0.4-0.1,0.9-0.5,1.4s-0.9,1.1-1.8,1.9l2,2.1l1.3,1.3
	C179.8,406.6,180.3,406.2,180.7,405.8L180.7,405.8z M174.9,404.5c-1.1,0.8-1.8,1.5-2.2,2c-0.3,0.5-0.5,0.9-0.5,1.4
	c0,0.5,0.2,0.9,0.6,1.3s0.9,0.6,1.5,0.6c0.5,0,0.9-0.1,1.4-0.3c0.7-0.3,1.5-0.8,2.4-1.5l-2-2.1C175.7,405.5,175.3,405,174.9,404.5
	L174.9,404.5z M175,402.8c0.6-0.5,1.1-1,1.4-1.4c0.2-0.3,0.3-0.6,0.3-0.9c0-0.3-0.1-0.6-0.4-0.8c-0.3-0.2-0.7-0.3-1.2-0.3
	s-0.8,0.1-1.1,0.3s-0.4,0.5-0.4,0.8c0,0.2,0.1,0.5,0.2,0.7C174.1,401.7,174.5,402.2,175,402.8L175,402.8z M189.6,397.7h2.6
	c1,0,1.8,0.1,2.4,0.4c0.6,0.2,1,0.6,1.3,1.1c0.3,0.5,0.5,1.1,0.5,1.7c0,0.6-0.1,1.1-0.4,1.6s-0.7,0.9-1.2,1.1
	c0.7,0.2,1.2,0.5,1.6,0.8s0.6,0.7,0.9,1.1s0.3,0.9,0.3,1.4c0,1-0.4,1.9-1.1,2.6s-1.8,1.1-3.1,1.1h-3.6L189.6,397.7L189.6,397.7z
	 M190.9,398.9v4.1h0.7c0.9,0,1.6-0.1,2-0.2s0.8-0.4,1-0.8c0.2-0.4,0.4-0.8,0.4-1.2c0-0.6-0.2-1.1-0.6-1.4c-0.4-0.3-1.1-0.5-2-0.5
	L190.9,398.9L190.9,398.9z M190.9,404.4v5h1.6c0.9,0,1.6-0.1,2.1-0.3c0.4-0.2,0.8-0.5,1.1-0.9c0.3-0.4,0.4-0.8,0.4-1.3
	c0-0.6-0.2-1.1-0.6-1.5c-0.4-0.4-0.9-0.7-1.6-0.9c-0.4-0.1-1.2-0.2-2.3-0.2L190.9,404.4L190.9,404.4z M200.1,397.1
	c0.3,0,0.5,0.1,0.7,0.3c0.2,0.2,0.3,0.4,0.3,0.7s-0.1,0.5-0.3,0.7c-0.2,0.2-0.4,0.3-0.7,0.3s-0.5-0.1-0.7-0.3
	c-0.2-0.2-0.3-0.4-0.3-0.7s0.1-0.5,0.3-0.7S199.9,397.1,200.1,397.1z M199.5,401h1.2v9.6h-1.2V401z M208.1,402.1l-0.8,0.8
	c-0.7-0.6-1.3-1-1.9-1c-0.4,0-0.7,0.1-1,0.4c-0.3,0.3-0.4,0.6-0.4,0.9c0,0.3,0.1,0.6,0.4,0.9c0.2,0.3,0.7,0.6,1.5,1
	c0.9,0.5,1.5,0.9,1.9,1.4c0.3,0.5,0.5,1,0.5,1.5c0,0.8-0.3,1.5-0.8,2s-1.2,0.8-2.1,0.8c-0.6,0-1.1-0.1-1.6-0.4s-0.9-0.6-1.2-1
	l0.8-0.9c0.6,0.7,1.3,1.1,2,1.1c0.5,0,0.9-0.2,1.3-0.5c0.4-0.3,0.5-0.7,0.5-1.1c0-0.4-0.1-0.7-0.3-0.9s-0.8-0.6-1.6-1
	c-0.9-0.5-1.4-0.9-1.8-1.3s-0.5-0.9-0.5-1.5c0-0.7,0.2-1.3,0.8-1.8s1.1-0.7,1.9-0.7C206.3,400.8,207.2,401.2,208.1,402.1
	L208.1,402.1z M211.4,397.5h1.2v3.6h1.9v1.1h-1.9v8.5h-1.2v-8.5h-1.7V401h1.7V397.5z M215.9,401h1.3v1.4c0.4-0.5,0.8-1,1.2-1.2
	c0.4-0.3,0.9-0.4,1.3-0.4c0.3,0,0.7,0.1,1.1,0.3l-0.6,1c-0.3-0.1-0.5-0.2-0.6-0.2c-0.4,0-0.8,0.2-1.2,0.5s-0.7,0.9-0.9,1.6
	c-0.1,0.5-0.2,1.6-0.2,3.3v3.2H216L215.9,401L215.9,401z M226.4,400.8c1.5,0,2.7,0.5,3.7,1.6c0.9,1,1.3,2.1,1.3,3.5
	s-0.5,2.5-1.4,3.5s-2.1,1.5-3.6,1.5s-2.7-0.5-3.6-1.5c-0.9-1-1.4-2.2-1.4-3.5s0.4-2.5,1.3-3.5C223.7,401.3,224.9,400.8,226.4,400.8
	L226.4,400.8z M226.4,402c-1,0-1.9,0.4-2.6,1.1s-1.1,1.7-1.1,2.8c0,0.7,0.2,1.3,0.5,1.9s0.8,1.1,1.4,1.4c0.6,0.3,1.2,0.5,1.9,0.5
	s1.3-0.2,1.9-0.5s1-0.8,1.4-1.4s0.5-1.2,0.5-1.9c0-1.1-0.4-2-1.1-2.8S227.4,402,226.4,402L226.4,402z M234.7,397.5h1.2v3.6h1.9v1.1
	h-1.9v8.5h-1.2v-8.5H233V401h1.7V397.5z M145.2,199.5c3.8,8,9.6,15.6,17.9,18.7c13.6,5.1,29.4-4.1,36.2-16.9
	c7.3-13.7,6.8-30.5,2.2-45.3s-12.8-28.2-20.6-41.6c-7.9-13.4-15.5-27.2-18.8-42.4c-1.9-8.7-2.2-18,1.1-26.3
	c3.3-8.3,10.7-15.2,19.6-16.2c9.2-1,18.1,4.7,23.3,12.3c5.1,7.7,7.1,17,8,26.2c-2.1-4.5-4.4-9-8.2-12.2c-3.7-3.2-9.2-4.8-13.7-2.9
	c-4.7,2-7.2,7.5-7.1,12.6c0.1,5.1,2.2,9.9,4.7,14.4c10.4,19,26,34.5,39.8,51.2c6.6,7.9,12.7,16.3,17.7,25.4
	c15.5,28.1,16.1,64.3,2,93.2c-9.2,18.8-25.4,34.5-45.3,41c-25.9,8.4-56,0-75.1-19.5s-26.9-48.7-22.1-75.5s21.7-50.8,44.2-66.1
	C137,149.6,134.7,177.4,145.2,199.5L145.2,199.5z"/>
</svg>
