<?xml version="1.0" encoding="UTF-8"?>
<svg id="Layer_2" data-name="Layer 2" xmlns="http://www.w3.org/2000/svg" viewBox="0 0 343.81 126.45">
  <defs>
    <style>
      .cls-1 {
        fill: none;
      }

      .cls-2 {
        fill: #231f20;
      }
    </style>
  </defs>
  <g id="Final">
    <g>
      <g>
        <g>
          <path class="cls-2" d="m24.08,73.13c-3.61-2.96-4.95-5.99-6.18-10.17v-.12c0-.15.04-.31.19-.38l12.2-6.56.19-.04c.19,0,.42.15.42.42l-.04.19c-.92,1.8-1.38,4.11-1.38,6.33,0,1.77.27,3.42.84,4.8,1.73,4.03,5.72,5.99,9.44,5.99,4.3,0,8.25-2.57,8.25-7.56,0-.42-.04-.84-.08-1.3-1.3-10.13-27.44-15-27.44-30.39,0-.58.04-1.19.12-1.8,1-8.06,10.44-13.09,19.84-13.09,13.24,0,19.65,7.83,19.76,20.99,0,.19-.15.46-.42.46h-13.24c-.23,0-.35-.15-.42-.42,0-.12.04-.23.12-.31,2.19-2.38,3.76-6.79,3.76-9.82,0-.42,0-.81-.08-1.15-.69-4.34-4.68-6.45-8.71-6.45-4.53,0-9.13,2.69-9.13,7.91,0,.5.08,1.04.15,1.61,1.65,10.02,27.55,15.08,27.55,30.51,0,.73-.08,1.5-.19,2.3-1.27,8.1-10.86,12.93-20.53,12.93-5.45,0-10.94-1.54-15.01-4.87Z"/>
          <path class="cls-2" d="m88.36,77.58c0-.15.04-.27.15-.35,2.03-1.65,2.84-5.14,2.84-7.48v-16.54h-14.97v16.46c0,2.38.8,5.87,2.84,7.52.12.08.19.19.19.31-.08.27-.15.42-.42.42-5.37.04-10.75.04-16.16.04-.27,0-.42-.12-.42-.38,0-.15.04-.27.15-.35,2.04-1.65,2.84-5.14,2.84-7.48V27.62c0-2.34-.8-5.87-2.84-7.48-.12-.08-.15-.23-.15-.34,0-.23.04-.27.23-.38h16.35c.27,0,.35.15.42.42,0,.15-.08.27-.19.35-2.04,1.65-2.84,5.14-2.84,7.48v21.64h14.97v-21.68c0-2.34-.81-5.87-2.84-7.48-.12-.08-.15-.23-.15-.34,0-.23.04-.27.23-.38h16.35c.27,0,.35.15.42.46,0,.12-.08.23-.15.31-2.07,1.65-2.84,5.14-2.84,7.48v42.02c0,2.38.77,5.87,2.84,7.52.08.08.15.19.15.31-.08.27-.12.42-.42.42-5.37.04-10.74.04-16.16.04-.27,0-.42-.12-.42-.38Z"/>
          <path class="cls-2" d="m138.33,19.48c.19,0,.34.12.42.31l12.59,46.55c.88,3.38,2.3,8.63,5.41,10.9.12.08.15.19.15.35v.12c-.08.19-.23.31-.42.31h-16.96c-.19,0-.38-.12-.42-.31v-.15c0-.11.04-.23.15-.31,1.38-1,1.92-2.72,1.92-4.57,0-1.27-.23-2.53-.65-3.72l-2.53-9.67h-16.23l-2.53,9.67c-.31,1.15-.54,2.42-.54,3.61,0,1.84.5,3.57,1.84,4.68.12.08.15.23.15.35v.12c-.08.19-.23.31-.42.31h-10.82c-.19,0-.31-.12-.38-.31-.04-.04-.04-.08-.04-.15,0-.11.08-.23.15-.31,2.92-2.23,4.49-7.64,5.37-10.9l12.51-46.55c.04-.19.19-.31.38-.31h10.9Zm-15.58,35.92h14.2l-7.14-26.98-7.06,26.98Z"/>
          <path class="cls-2" d="m160.92,77.93c-.27,0-.38-.12-.38-.38,0-.15.04-.27.15-.34,2.04-1.65,2.84-5.18,2.84-7.52V27.73c0-2.34-.8-5.87-2.84-7.48-.12-.08-.15-.23-.15-.34.04-.27.15-.42.38-.42l18.84-.04c2.3,0,4.6,0,6.95.04,9.98,1.54,14.89,15.39,14.89,29.2,0,14.51-5.41,28.97-16.16,29.24l-6.29.08-18.23-.08Zm30.24-30.55c0-12.24-3.88-24.02-11.71-24.02h-4.95v50.69h3.34c8.87,0,13.32-13.58,13.32-26.67Z"/>
          <path class="cls-2" d="m297.24,78c-.19,0-.38-.15-.42-.35l-7.25-32.62-8.37,32.66c-.04.19-.23.31-.42.31h-11.01c-.23,0-.38-.15-.42-.35l-9.98-46.55c-.69-3.11-2.53-8.48-5.6-10.86-.12-.08-.19-.19-.19-.34.08-.27.19-.42.42-.42h17.58c.23,0,.38.15.38.42,0,.15-.04.27-.15.34-1.54,1.15-2.07,2.72-2.07,4.61,0,1.11.19,2.34.42,3.65l8.17,40.6,8.75-36.99c-.88-3.84-2.46-9.25-5.87-11.86-.12-.08-.19-.19-.19-.34.08-.27.19-.42.42-.42h17.61c.23,0,.35.15.42.46,0,.12-.08.23-.19.31-1.54,1.15-2.03,2.72-2.03,4.64,0,1.07.15,2.3.38,3.61l8.17,40.6,9.75-40.6c.23-1.34.42-2.61.42-3.72,0-1.84-.5-3.38-2.07-4.53-.15-.08-.19-.19-.19-.34,0-.27.15-.42.42-.42h11.36c.27,0,.38.15.42.42,0,.11-.04.27-.15.34-3.07,2.38-4.76,7.79-5.53,10.86l-11.55,46.59c-.04.19-.19.31-.38.31h-11.05Z"/>
          <path d="m252.06,33.57c5.03,9.42,5.2,21.6.73,31.28-2.91,6.3-8.08,11.55-14.43,13.71-8.25,2.81-17.88-.06-23.97-6.61-6.09-6.55-8.63-16.35-7.11-25.34,1.52-8.98,6.88-17.03,14.04-22.15-4.49,6.7-5.21,16-1.82,23.42,1.22,2.68,3.08,5.23,5.73,6.28,4.35,1.74,9.37-1.34,11.54-5.65,2.31-4.59,2.13-10.21.67-15.19,0,0-2.18-9.81-8.94-15.7,0,0,15.06,0,23.56,15.94Z"/>
        </g>
        <g>
          <path class="cls-2" d="m126.1,96.18l-1.02.78c-.56-.73-1.24-1.29-2.03-1.67s-1.66-.57-2.6-.57c-1.03,0-1.99.25-2.87.74-.88.5-1.56,1.16-2.05,2-.48.84-.73,1.78-.73,2.82,0,1.58.54,2.9,1.62,3.95s2.45,1.58,4.1,1.58c1.81,0,3.33-.71,4.55-2.13l1.02.77c-.65.82-1.45,1.46-2.42,1.91-.96.45-2.04.67-3.23.67-2.27,0-4.05-.75-5.36-2.26-1.1-1.27-1.65-2.81-1.65-4.61,0-1.9.66-3.49,1.99-4.78,1.33-1.29,2.99-1.94,5-1.94,1.21,0,2.3.24,3.27.72.98.48,1.77,1.15,2.39,2.01Z"/>
          <path class="cls-2" d="m138.03,97.14v9.58h-1.22v-1.65c-.52.63-1.1,1.1-1.74,1.42-.64.32-1.34.48-2.11.48-1.36,0-2.51-.49-3.47-1.48-.96-.98-1.44-2.18-1.44-3.59s.48-2.56,1.45-3.54,2.13-1.47,3.5-1.47c.79,0,1.5.17,2.13.5s1.2.84,1.68,1.51v-1.76h1.22Zm-4.93.94c-.69,0-1.32.17-1.9.51s-1.04.81-1.38,1.42c-.34.61-.52,1.25-.52,1.93s.17,1.32.52,1.93c.34.62.81,1.09,1.39,1.44s1.21.51,1.88.51,1.31-.17,1.92-.51,1.07-.8,1.39-1.38.49-1.23.49-1.96c0-1.11-.37-2.03-1.1-2.78-.73-.74-1.63-1.12-2.69-1.12Z"/>
          <path class="cls-2" d="m144.75,93.45v1.21c-.45-.19-.84-.29-1.16-.29-.24,0-.44.05-.6.15-.16.1-.26.21-.3.33-.04.13-.06.46-.06,1.01v1.29h2v1.07h-2v8.51h-1.24v-8.51h-1.26v-1.07h1.26v-1.5c0-.69.06-1.18.19-1.47.13-.29.34-.53.64-.71.3-.18.67-.27,1.1-.27.4,0,.88.08,1.43.25Z"/>
          <path class="cls-2" d="m154.53,103.54l1.04.55c-.34.67-.73,1.21-1.18,1.62-.45.41-.95.72-1.51.94-.56.21-1.19.32-1.89.32-1.56,0-2.79-.51-3.67-1.54s-1.32-2.18-1.32-3.47c0-1.22.37-2.3,1.12-3.25.95-1.21,2.21-1.81,3.8-1.81s2.94.62,3.91,1.86c.69.87,1.05,1.97,1.06,3.28h-8.62c.02,1.11.38,2.02,1.07,2.74.69.71,1.54,1.07,2.55,1.07.49,0,.96-.08,1.42-.25.46-.17.85-.39,1.18-.68.32-.28.67-.73,1.05-1.36Zm0-2.58c-.16-.66-.4-1.18-.72-1.58-.32-.39-.73-.71-1.25-.95-.52-.24-1.06-.36-1.63-.36-.94,0-1.75.3-2.42.91-.49.44-.87,1.1-1.12,1.98h7.14Zm-2.97-8.31h1.89l-2.6,2.71h-1.22l1.92-2.71Z"/>
          <path class="cls-2" d="m173.18,101.93l.88.93c-.56.5-1.1.93-1.6,1.29.35.32.81.77,1.38,1.34.45.44.83.86,1.15,1.23h-1.81l-1.72-1.77c-1.08.87-1.96,1.44-2.63,1.7-.67.26-1.39.4-2.14.4-1,0-1.8-.29-2.4-.86-.61-.57-.91-1.29-.91-2.14,0-.65.2-1.29.61-1.94s1.24-1.47,2.49-2.46c-.71-.86-1.16-1.49-1.37-1.9-.2-.41-.3-.8-.3-1.17,0-.65.25-1.18.75-1.6.58-.49,1.29-.74,2.15-.74.54,0,1.03.11,1.48.33s.79.51,1.02.88c.24.37.35.76.35,1.17,0,.43-.15.9-.46,1.39s-.91,1.12-1.81,1.88l1.96,2.06,1.29,1.31c.69-.51,1.24-.94,1.63-1.31Zm-5.84-1.31c-1.1.83-1.82,1.49-2.16,1.98-.34.49-.51.94-.51,1.36,0,.49.21.93.63,1.31.42.38.93.57,1.53.57.46,0,.91-.09,1.35-.28.69-.3,1.49-.81,2.39-1.52l-2.04-2.1c-.35-.37-.75-.8-1.18-1.3Zm.16-1.71c.63-.49,1.1-.97,1.42-1.43.22-.34.34-.63.34-.89,0-.3-.15-.56-.44-.77-.29-.22-.68-.33-1.16-.33s-.83.11-1.12.33c-.29.22-.43.49-.43.79,0,.23.06.46.18.66.29.5.7,1.04,1.22,1.64Z"/>
          <path class="cls-2" d="m182.05,93.77h2.55c1.03,0,1.82.12,2.37.37.55.24.99.62,1.31,1.12.32.51.48,1.07.48,1.68,0,.58-.14,1.1-.42,1.57-.28.47-.69.86-1.24,1.15.67.23,1.19.5,1.55.81.36.31.65.68.85,1.12s.3.91.3,1.42c0,1.04-.38,1.92-1.14,2.64s-1.78,1.08-3.06,1.08h-3.56v-12.95Zm1.27,1.27v4.15h.74c.9,0,1.56-.08,1.98-.25.42-.17.76-.43,1.01-.79.25-.36.37-.76.37-1.2,0-.59-.21-1.06-.62-1.39-.42-.34-1.08-.51-1.98-.51h-1.5Zm0,5.45v4.97h1.6c.95,0,1.64-.09,2.08-.28.44-.18.8-.47,1.06-.87.27-.39.4-.82.4-1.28,0-.58-.19-1.08-.56-1.51-.38-.43-.89-.72-1.55-.88-.44-.11-1.21-.16-2.3-.16h-.73Z"/>
          <path class="cls-2" d="m192.59,93.2c.28,0,.52.1.72.3.2.2.3.44.3.72s-.1.51-.3.71c-.2.2-.44.3-.72.3s-.51-.1-.71-.3c-.2-.2-.3-.44-.3-.71s.1-.52.3-.72c.2-.2.44-.3.71-.3Zm-.61,3.94h1.23v9.58h-1.23v-9.58Z"/>
          <path class="cls-2" d="m200.59,98.19l-.79.82c-.66-.64-1.3-.96-1.93-.96-.4,0-.74.13-1.03.4-.29.26-.43.57-.43.92,0,.31.12.61.35.89.24.29.73.63,1.48,1.01.92.48,1.54.93,1.87,1.37.32.45.48.95.48,1.51,0,.79-.28,1.45-.83,2s-1.24.82-2.07.82c-.55,0-1.08-.12-1.58-.36-.5-.24-.92-.57-1.25-.99l.77-.88c.63.71,1.3,1.07,2,1.07.49,0,.91-.16,1.26-.48.35-.32.52-.69.52-1.12,0-.35-.11-.67-.34-.94-.23-.27-.75-.61-1.55-1.02-.86-.45-1.45-.89-1.76-1.32-.31-.43-.47-.93-.47-1.49,0-.73.25-1.33.75-1.81.5-.48,1.13-.72,1.88-.72.88,0,1.77.43,2.66,1.29Z"/>
          <path class="cls-2" d="m203.85,93.59h1.23v3.56h1.95v1.07h-1.95v8.51h-1.23v-8.51h-1.68v-1.07h1.68v-3.56Z"/>
          <path class="cls-2" d="m208.42,97.14h1.26v1.4c.38-.55.77-.96,1.19-1.24.42-.27.85-.41,1.3-.41.34,0,.7.11,1.09.33l-.64,1.04c-.26-.11-.48-.17-.65-.17-.41,0-.81.17-1.19.51-.38.34-.67.86-.87,1.57-.15.55-.23,1.65-.23,3.31v3.24h-1.26v-9.58Z"/>
          <path class="cls-2" d="m218.84,96.9c1.48,0,2.7.53,3.67,1.6.88.97,1.32,2.13,1.32,3.46s-.47,2.51-1.4,3.51c-.93,1-2.13,1.5-3.59,1.5s-2.67-.5-3.6-1.5c-.93-1-1.4-2.17-1.4-3.51s.44-2.48,1.32-3.45c.97-1.07,2.2-1.61,3.68-1.61Zm0,1.21c-1.02,0-1.9.38-2.64,1.14s-1.1,1.67-1.1,2.75c0,.69.17,1.34.5,1.94s.79,1.06,1.36,1.39c.57.33,1.2.49,1.88.49s1.31-.16,1.88-.49c.57-.33,1.03-.79,1.36-1.39.33-.6.5-1.24.5-1.94,0-1.07-.37-1.99-1.11-2.75-.74-.76-1.62-1.14-2.64-1.14Z"/>
          <path class="cls-2" d="m227.19,93.59h1.23v3.56h1.95v1.07h-1.95v8.51h-1.23v-8.51h-1.68v-1.07h1.68v-3.56Z"/>
        </g>
      </g>
      <rect class="cls-1" width="343.81" height="126.45"/>
    </g>
  </g>
</svg>