<?xml version="1.0" encoding="UTF-8"?>
<svg id="Layer_2" data-name="Layer 2" xmlns="http://www.w3.org/2000/svg" viewBox="0 0 421.21 136.57">
  <defs>
    <style>
      .cls-1 {
        fill: none;
      }

      .cls-2 {
        fill: #E6DCC7;
      }
    </style>
  </defs>
  <g id="Final">
    <g>
      <path d="m34.31,82.19c1.41,2.94,3.55,5.74,6.6,6.89,5.02,1.9,10.83-1.51,13.35-6.25,2.69-5.05,2.5-11.24.82-16.71s-4.71-10.41-7.61-15.35-5.73-10.04-6.92-15.63c-.69-3.21-.8-6.65.41-9.7,1.21-3.05,3.95-5.63,7.22-5.98,3.39-.36,6.69,1.72,8.59,4.55s2.61,6.28,2.95,9.67c-.76-1.65-1.63-3.3-3.01-4.48-1.38-1.18-3.39-1.78-5.05-1.05-1.73.75-2.65,2.76-2.62,4.65s.83,3.67,1.73,5.33c3.82,7.01,9.6,12.72,14.68,18.87,2.42,2.93,4.7,6.01,6.53,9.35,5.71,10.38,5.94,23.73.74,34.4-3.38,6.94-9.38,12.73-16.73,15.13-9.55,3.11-20.66-.01-27.69-7.19s-9.92-17.96-8.14-27.84c1.78-9.88,8-18.75,16.31-24.4-5.21,7.38-6.07,17.61-2.18,25.77Z"/>
      <g>
        <path class="cls-2" d="m102.88,92.67c-3.61-2.96-4.95-5.99-6.18-10.17v-.12c0-.15.04-.31.19-.38l12.2-6.56.19-.04c.19,0,.42.15.42.42l-.04.19c-.92,1.8-1.38,4.11-1.38,6.33,0,1.77.27,3.42.84,4.8,1.73,4.03,5.72,5.99,9.44,5.99,4.3,0,8.25-2.57,8.25-7.56,0-.42-.04-.84-.08-1.3-1.3-10.13-27.44-15-27.44-30.39,0-.58.04-1.19.12-1.8,1-8.06,10.44-13.09,19.84-13.09,13.24,0,19.65,7.83,19.76,20.99,0,.19-.15.46-.42.46h-13.24c-.23,0-.35-.15-.42-.42,0-.12.04-.23.12-.31,2.19-2.38,3.76-6.79,3.76-9.82,0-.42,0-.81-.08-1.15-.69-4.34-4.68-6.45-8.71-6.45-4.53,0-9.13,2.69-9.13,7.91,0,.5.08,1.04.15,1.61,1.65,10.02,27.55,15.08,27.55,30.51,0,.73-.08,1.5-.19,2.3-1.27,8.1-10.86,12.93-20.53,12.93-5.45,0-10.94-1.54-15.01-4.87Z"/>
        <path class="cls-2" d="m167.16,97.12c0-.15.04-.27.15-.35,2.03-1.65,2.84-5.14,2.84-7.48v-16.54h-14.97v16.46c0,2.38.8,5.87,2.84,7.52.12.08.19.19.19.31-.08.27-.15.42-.42.42-5.37.04-10.75.04-16.16.04-.27,0-.42-.12-.42-.38,0-.15.04-.27.15-.35,2.04-1.65,2.84-5.14,2.84-7.48v-42.14c0-2.34-.8-5.87-2.84-7.48-.12-.08-.15-.23-.15-.34,0-.23.04-.27.23-.38h16.35c.27,0,.35.15.42.42,0,.15-.08.27-.19.35-2.04,1.65-2.84,5.14-2.84,7.48v21.64h14.97v-21.68c0-2.34-.81-5.87-2.84-7.48-.12-.08-.15-.23-.15-.34,0-.23.04-.27.23-.38h16.35c.27,0,.35.15.42.46,0,.12-.08.23-.15.31-2.07,1.65-2.84,5.14-2.84,7.48v42.02c0,2.38.77,5.87,2.84,7.52.08.08.15.19.15.31-.08.27-.12.42-.42.42-5.37.04-10.74.04-16.16.04-.27,0-.42-.12-.42-.38Z"/>
        <path class="cls-2" d="m217.12,39.02c.19,0,.34.12.42.31l12.59,46.55c.88,3.38,2.3,8.63,5.41,10.9.12.08.15.19.15.35v.12c-.08.19-.23.31-.42.31h-16.96c-.19,0-.38-.12-.42-.31v-.15c0-.11.04-.23.15-.31,1.38-1,1.92-2.72,1.92-4.57,0-1.27-.23-2.53-.65-3.72l-2.53-9.67h-16.23l-2.53,9.67c-.31,1.15-.54,2.42-.54,3.61,0,1.84.5,3.57,1.84,4.68.12.08.15.23.15.35v.12c-.08.19-.23.31-.42.31h-10.82c-.19,0-.31-.12-.38-.31-.04-.04-.04-.08-.04-.15,0-.11.08-.23.15-.31,2.92-2.23,4.49-7.64,5.37-10.9l12.51-46.55c.04-.19.19-.31.38-.31h10.9Zm-15.58,35.92h14.2l-7.14-26.98-7.06,26.98Z"/>
        <path class="cls-2" d="m239.72,97.46c-.27,0-.38-.12-.38-.38,0-.15.04-.27.15-.34,2.04-1.65,2.84-5.18,2.84-7.52v-41.95c0-2.34-.8-5.87-2.84-7.48-.12-.08-.15-.23-.15-.34.04-.27.15-.42.38-.42l18.84-.04c2.3,0,4.6,0,6.95.04,9.98,1.54,14.89,15.39,14.89,29.2,0,14.51-5.41,28.97-16.16,29.24l-6.29.08-18.23-.08Zm30.24-30.55c0-12.24-3.88-24.02-11.71-24.02h-4.95v50.69h3.34c8.87,0,13.32-13.58,13.32-26.67Z"/>
        <path class="cls-2" d="m284.97,68.18c0-14.58,7.71-29.2,23.26-29.2s23.26,14.62,23.26,29.24-7.75,29.28-23.26,29.28-23.26-14.66-23.26-29.32Zm35.54-.15c-.04-12.78-4.72-25.21-12.28-25.21s-12.24,12.51-12.28,25.37c0,12.74,4.64,25.48,12.28,25.48s12.28-12.82,12.28-25.63Z"/>
        <path class="cls-2" d="m373.04,97.54c-.19,0-.38-.15-.42-.35l-7.25-32.62-8.37,32.66c-.04.19-.23.31-.42.31h-11.01c-.23,0-.38-.15-.42-.35l-9.98-46.55c-.69-3.11-2.53-8.48-5.6-10.86-.12-.08-.19-.19-.19-.34.08-.27.19-.42.42-.42h17.58c.23,0,.38.15.38.42,0,.15-.04.27-.15.34-1.54,1.15-2.07,2.72-2.07,4.61,0,1.11.19,2.34.42,3.65l8.17,40.6,8.75-36.99c-.88-3.84-2.46-9.25-5.87-11.86-.12-.08-.19-.19-.19-.34.08-.27.19-.42.42-.42h17.61c.23,0,.35.15.42.46,0,.12-.08.23-.19.31-1.54,1.15-2.03,2.72-2.03,4.64,0,1.07.15,2.3.38,3.61l8.17,40.6,9.75-40.6c.23-1.34.42-2.61.42-3.72,0-1.84-.5-3.38-2.07-4.53-.15-.08-.19-.19-.19-.34,0-.27.15-.42.42-.42h11.36c.27,0,.38.15.42.42,0,.11-.04.27-.15.34-3.07,2.38-4.76,7.79-5.53,10.86l-11.55,46.59c-.04.19-.19.31-.38.31h-11.05Z"/>
      </g>
      <rect class="cls-1" width="421.21" height="136.57"/>
    </g>
  </g>
</svg>