<?xml version="1.0" encoding="UTF-8"?>
<svg id="Layer_2" data-name="Layer 2" xmlns="http://www.w3.org/2000/svg" viewBox="0 0 124.47 188.45">
  <defs>
    <style>
      .cls-1 {
        fill: none;
      }
    </style>
  </defs>
  <g id="Final">
    <g>
      <path d="m41.45,115.77c2.17,4.54,5.48,8.86,10.19,10.64,7.76,2.93,16.73-2.33,20.62-9.65,4.15-7.81,3.86-17.36,1.27-25.81-2.59-8.45-7.27-16.08-11.75-23.71-4.47-7.63-8.84-15.5-10.69-24.14-1.06-4.96-1.24-10.26.64-14.97,1.87-4.71,6.1-8.69,11.14-9.23,5.23-.56,10.33,2.65,13.27,7.02,2.93,4.36,4.03,9.7,4.56,14.93-1.18-2.54-2.52-5.1-4.65-6.92-2.13-1.82-5.24-2.75-7.8-1.63-2.67,1.17-4.09,4.27-4.05,7.18s1.28,5.67,2.68,8.22c5.9,10.83,14.82,19.64,22.68,29.14,3.74,4.53,7.25,9.28,10.09,14.44,8.82,16.04,9.17,36.65,1.15,53.11-5.23,10.72-14.49,19.66-25.83,23.36-14.75,4.81-31.91-.02-42.75-11.11-10.85-11.09-15.32-27.73-12.57-42.99,2.76-15.26,12.36-28.95,25.18-37.68-8.04,11.4-9.38,27.2-3.36,39.79Z"/>
      <rect class="cls-1" width="124.47" height="188.45"/>
    </g>
  </g>
</svg>