<?xml version="1.0" encoding="UTF-8"?>
<svg id="Layer_2" data-name="Layer 2" xmlns="http://www.w3.org/2000/svg" viewBox="0 0 1250 133.8">
  <defs>
    <style>
      .cls-1 {
        fill: #231f20;
      }
    </style>
  </defs>
  <g id="Layer_1-2" data-name="Layer 1">
    <g>
      <path class="cls-1" d="m104.25,86.24H27.82l-4.16,11.26h84.74l-4.16-11.26ZM73.83,1.15h-13.68L0,132.65h14.49l15.76-35.15,5.02-11.26L66.9,15.53l31.63,70.71,5.02,11.26,15.76,35.15h14.66L73.83,1.15Z"/>
      <path class="cls-1" d="m243.87,117.64c-6.52,2.48-13.56,3.75-21.07,3.75-7.91,0-15.24-1.33-21.99-4.04-6.75-2.71-12.64-6.52-17.66-11.49-4.96-4.91-8.89-10.68-11.72-17.26-2.83-6.58-4.21-13.8-4.21-21.7s1.39-15.12,4.21-21.7,6.75-12.35,11.72-17.26c5.02-4.96,10.91-8.77,17.66-11.49,6.75-2.66,14.08-4.04,21.99-4.04s14.55,1.21,21.07,3.69c6.46,2.42,12.41,6.41,17.84,11.89l8.83-8.83c-5.77-6.35-12.87-11.14-21.24-14.37-8.43-3.17-17.37-4.79-26.84-4.79-9.93,0-19.05,1.67-27.48,5.02-8.37,3.29-15.64,7.97-21.88,13.97-6.18,6-11.02,13.1-14.43,21.24-3.46,8.14-5.19,17.03-5.19,26.67s1.73,18.53,5.19,26.67c3.41,8.14,8.2,15.24,14.37,21.24,6.12,6,13.39,10.68,21.76,13.97,8.37,3.35,17.55,5.02,27.42,5.02s18.64-1.67,27.07-4.91c8.37-3.23,15.47-8.08,21.24-14.49l-8.83-8.83c-5.43,5.54-11.37,9.52-17.84,12.06Z"/>
      <path class="cls-1" d="m380.68,117.64c-6.52,2.48-13.56,3.75-21.07,3.75-7.91,0-15.24-1.33-21.99-4.04-6.75-2.71-12.64-6.52-17.66-11.49-4.96-4.91-8.89-10.68-11.72-17.26-2.83-6.58-4.21-13.8-4.21-21.7s1.39-15.12,4.21-21.7c2.83-6.58,6.75-12.35,11.72-17.26,5.02-4.96,10.91-8.77,17.66-11.49,6.75-2.66,14.08-4.04,21.99-4.04s14.55,1.21,21.07,3.69c6.46,2.42,12.41,6.41,17.84,11.89l8.83-8.83c-5.77-6.35-12.87-11.14-21.24-14.37-8.37-3.17-17.37-4.79-26.84-4.79s-19.05,1.67-27.48,5.02c-8.37,3.29-15.64,7.97-21.88,13.97-6.18,6-11.02,13.1-14.43,21.24-3.46,8.14-5.19,17.03-5.19,26.67s1.73,18.53,5.19,26.67c3.41,8.14,8.2,15.24,14.37,21.24,6.12,6,13.39,10.68,21.76,13.97,8.43,3.35,17.55,5.02,27.42,5.02s18.7-1.67,27.07-4.91c8.37-3.23,15.47-8.08,21.24-14.49l-8.83-8.83c-5.43,5.54-11.37,9.52-17.84,12.06Z"/>
      <path class="cls-1" d="m560.03,40.23c-3.46-8.14-8.25-15.24-14.49-21.24-6.18-6-13.51-10.68-21.88-13.97-8.37-3.35-17.55-5.02-27.42-5.02s-19.22,1.67-27.59,5.02c-8.43,3.29-15.7,8.02-21.93,14.08-6.18,6.06-11.02,13.16-14.43,21.24-3.46,8.02-5.2,16.91-5.2,26.55s1.73,18.53,5.2,26.61c3.41,8.02,8.25,15.12,14.43,21.18,6.23,6.12,13.56,10.79,21.99,14.08,8.49,3.35,17.66,5.02,27.53,5.02s19.05-1.67,27.42-5.02c8.37-3.29,15.7-7.97,21.88-13.97,6.23-6,11.03-13.1,14.49-21.24,3.46-8.14,5.14-17.03,5.14-26.67s-1.67-18.53-5.14-26.67Zm-12.87,48.37c-2.77,6.58-6.64,12.35-11.54,17.26-4.96,4.96-10.79,8.77-17.49,11.49-6.7,2.71-13.97,4.04-21.88,4.04s-15.24-1.33-21.99-4.04c-6.75-2.71-12.64-6.52-17.66-11.49-5.02-4.91-8.89-10.74-11.6-17.37-2.77-6.64-4.16-13.8-4.16-21.59s1.39-15.12,4.16-21.7c2.71-6.58,6.58-12.35,11.6-17.26,5.02-4.96,10.91-8.77,17.66-11.49,6.75-2.66,14.08-4.04,21.99-4.04s15.18,1.39,21.88,4.04c6.7,2.71,12.53,6.52,17.49,11.49,4.91,4.91,8.77,10.68,11.54,17.26,2.77,6.58,4.16,13.8,4.16,21.7s-1.39,15.12-4.16,21.7Z"/>
      <path class="cls-1" d="m679.4,1.15v74.75c0,15.53-3.52,27.01-10.51,34.4-7.04,7.39-16.97,11.08-29.9,11.08s-22.68-3.69-29.67-11.08c-7.04-7.39-10.51-18.88-10.51-34.4V1.15h-13.91v75.33c0,18.93,4.79,33.19,14.43,42.83,9.64,9.64,22.86,14.49,39.65,14.49s29.96-4.85,39.54-14.49c9.58-9.64,14.37-23.9,14.37-42.83V1.15h-13.51Z"/>
      <path class="cls-1" d="m808.82,1.15v106.67L724.08,1.15h-11.43v131.49h13.85V25.97l84.56,106.67h11.43V1.15h-13.68Z"/>
      <path class="cls-1" d="m842.24,1.15v12.01h46.24v119.48h13.91V13.16h46.18V1.15h-106.32Z"/>
      <path class="cls-1" d="m968.31,1.15v131.49h13.91V1.15h-13.91Z"/>
      <path class="cls-1" d="m1098.19,1.15v106.67L1013.45,1.15h-11.49v131.49h13.91V25.97l84.56,106.67h11.43V1.15h-13.68Z"/>
      <path class="cls-1" d="m1235.86,66.9v48.49l13.39,1.67v-50.16h-13.39Zm0,44.21c-4.1,3.06-8.43,5.31-13.05,6.87-6.7,2.25-13.8,3.41-21.3,3.41-8.02,0-15.47-1.33-22.28-4.04-6.81-2.71-12.76-6.52-17.84-11.49-5.08-4.91-9-10.74-11.83-17.37-2.83-6.64-4.21-13.8-4.21-21.59s1.39-15.12,4.21-21.7c2.83-6.58,6.75-12.35,11.83-17.26,5.08-4.96,11.02-8.77,17.84-11.49,6.81-2.66,14.31-4.04,22.45-4.04,7.62,0,14.78,1.21,21.41,3.58,6.64,2.37,12.7,6.35,18.24,11.83l8.66-8.83c-5.89-6.41-13.05-11.14-21.36-14.26-8.31-3.12-17.49-4.73-27.53-4.73s-19.22,1.67-27.71,5.02c-8.43,3.29-15.82,7.97-22.05,13.97-6.29,6-11.14,13.1-14.55,21.24-3.46,8.14-5.2,17.03-5.2,26.67s1.73,18.53,5.2,26.67c3.41,8.14,8.25,15.24,14.43,21.24,6.23,6,13.56,10.68,21.99,13.97,8.48,3.35,17.72,5.02,27.71,5.02,9.12,0,17.89-1.44,26.32-4.27,8.37-2.77,15.7-6.98,21.99-12.47l-7.91-10.51c-1.79,1.67-3.58,3.23-5.48,4.56Z"/>
    </g>
  </g>
</svg>