<svg width="1200" height="886" viewBox="0 0 1200 886" fill="none" xmlns="http://www.w3.org/2000/svg">
<g clip-path="url(#clip0_164_186)">
<path d="M437.263 613.206C398.232 613.206 366.054 582.637 363.985 543.649L363.753 539.28H317L317.14 544.059C319.484 609.107 372.258 660.046 437.263 660.046C502.269 660.046 557.71 606.073 557.71 539.69V106H510.817V539.696C510.817 580.244 477.855 613.206 437.263 613.206Z" fill="white"/>
<path d="M583.041 226.949L687.623 460.58H583.5V507.242H708.359L830.734 781H883.508L635.767 226.949H583.041Z" fill="white"/>
</g>
<ellipse opacity="0.75" cx="437.5" cy="540" rx="73.5" ry="73" stroke="white" stroke-opacity="0.5" stroke-width="2"/>
<ellipse opacity="0.75" cx="437" cy="540.5" rx="120" ry="119.5" stroke="white" stroke-opacity="0.5" stroke-width="2"/>
<line opacity="0.75" x1="75" y1="539" x2="1125" y2="539" stroke="white" stroke-opacity="0.5" stroke-width="2"/>
<line opacity="0.75" x1="75" y1="507" x2="1125" y2="507" stroke="white" stroke-opacity="0.5" stroke-width="2"/>
<line opacity="0.75" x1="75" y1="460" x2="1125" y2="460" stroke="white" stroke-opacity="0.5" stroke-width="2"/>
<line opacity="0.75" x1="75" y1="105" x2="1125" y2="105" stroke="white" stroke-opacity="0.5" stroke-width="2"/>
<line opacity="0.75" x1="75" y1="226" x2="1125" y2="226" stroke="white" stroke-opacity="0.5" stroke-width="2"/>
<line opacity="0.75" x1="75" y1="780" x2="1125" y2="780" stroke="white" stroke-opacity="0.5" stroke-width="2"/>
<line opacity="0.75" x1="896.087" y1="811.408" x2="567.087" y2="75.4081" stroke="white" stroke-opacity="0.5" stroke-width="2"/>
<line opacity="0.75" x1="844.087" y1="811.408" x2="515.087" y2="75.4081" stroke="white" stroke-opacity="0.5" stroke-width="2"/>
<line opacity="0.75" x1="511" y1="75" x2="511" y2="811" stroke="white" stroke-opacity="0.5" stroke-width="2"/>
<line opacity="0.75" x1="558" y1="75" x2="558" y2="811" stroke="white" stroke-opacity="0.5" stroke-width="2"/>
<line opacity="0.75" x1="584" y1="75" x2="584" y2="811" stroke="white" stroke-opacity="0.5" stroke-width="2"/>
<defs>
<clipPath id="clip0_164_186">
<rect width="566" height="675" fill="white" transform="translate(317 106)"/>
</clipPath>
</defs>
</svg>
