<?xml version="1.0" encoding="UTF-8"?>
<svg id="Layer_2" data-name="Layer 2" xmlns="http://www.w3.org/2000/svg" viewBox="0 0 1250 191.27">
  <defs>
    <style>
      .cls-1 {
        fill: #231f20;
      }
    </style>
  </defs>
  <g id="Layer_1-2" data-name="Layer 1">
    <g>
      <path class="cls-1" d="m18.32,1.65v17.16h68.73v113.87c0,27.56-11.63,41.34-34.9,41.34-8.25,0-15.76-1.98-22.61-5.86-6.77-3.96-12.79-9.65-17.99-17.25l-11.55,13.45c5.61,8.58,12.95,15.26,22.2,19.89,9.24,4.62,19.14,7.01,29.7,7.01,18.07,0,31.69-4.95,40.93-14.77,9.24-9.9,13.78-24.75,13.78-44.64V1.65H18.32Z"/>
      <path class="cls-1" d="m188.22,107.56h-53.39v16.09h59.33l-5.94-16.09ZM152.2,1.65h-19.09l9.19,20.55,45.22,101.08,7.18,16.09,22.53,50.25h20.96L152.2,1.65Z"/>
      <path class="cls-1" d="m445.22,1.65l-80.78,139.28L282.74,1.65h-16.34v187.97h19.06V40.1l73.85,125.59h9.41l73.85-126.49v150.42h19.06V1.65h-16.42Z"/>
      <path class="cls-1" d="m623.53,116.01c-4.21-6.02-9.82-10.97-16.67-14.6-6.93-3.63-14.44-6.68-22.61-8.99-8.09-2.31-16.34-4.46-24.51-6.44-8.25-1.98-15.84-4.21-22.69-6.68-6.93-2.56-12.46-6.02-16.67-10.48-4.21-4.54-6.35-10.4-6.35-17.74,0-6.44,1.82-12.21,5.28-17.33,3.47-5.12,8.91-9.16,16.26-12.21,7.34-3.05,16.67-4.54,27.89-4.54,8.42,0,17.16,1.24,26.16,3.71,9.08,2.48,17.66,6.44,25.66,11.8l6.77-15.84c-7.51-5.2-16.5-9.24-26.9-12.21-10.4-2.97-20.88-4.46-31.44-4.46-15.93,0-28.96,2.39-39.19,7.18-10.15,4.7-17.74,10.97-22.69,18.73-4.87,7.84-7.34,16.42-7.34,25.66,0,10.07,2.06,18.15,6.27,24.34,4.21,6.19,9.74,11.14,16.67,14.85,6.93,3.8,14.44,6.77,22.69,8.99,8.25,2.31,16.5,4.37,24.67,6.35,8.25,1.98,15.76,4.29,22.61,6.85,6.77,2.56,12.29,6.11,16.5,10.56,4.21,4.54,6.27,10.4,6.27,17.74,0,6.11-1.73,11.63-5.2,16.67-3.47,5.03-8.99,8.99-16.42,11.96-7.43,2.97-17,4.46-28.8,4.46-12.38,0-24.18-2.23-35.32-6.6-11.22-4.37-20.13-9.82-26.73-16.26l-7.84,15.26c7.01,7.18,16.92,13.04,29.71,17.66,12.79,4.54,26.16,6.85,40.18,6.85,16.09,0,29.29-2.39,39.61-7.18,10.23-4.7,17.91-10.97,22.94-18.73,5.03-7.84,7.51-16.26,7.51-25.41,0-9.82-2.06-17.82-6.27-23.93Z"/>
      <path class="cls-1" d="m658.03,1.65v17.16h66.01v170.8h19.89V18.81h66.09V1.65h-151.99Z"/>
      <path class="cls-1" d="m1004.18,1.65l-72.45,163.63L859.78,1.65h-21.54l83.26,187.97h19.64L1024.4,1.65h-20.22Z"/>
      <path class="cls-1" d="m1242.57,57.51c-4.87-11.63-11.8-21.78-20.63-30.37-8.83-8.58-19.31-15.27-31.27-19.97-12.05-4.79-25.08-7.18-39.19-7.18s-27.48,2.39-39.52,7.18c-11.96,4.7-22.44,11.47-31.27,20.13-8.83,8.66-15.76,18.81-20.63,30.37-4.95,11.47-7.43,24.18-7.43,37.96s2.48,26.49,7.43,38.04c4.87,11.47,11.8,21.62,20.63,30.28,8.83,8.75,19.31,15.43,31.44,20.13,12.05,4.79,25.17,7.18,39.36,7.18s27.15-2.39,39.19-7.18c11.96-4.7,22.44-11.39,31.27-19.97,8.83-8.58,15.76-18.73,20.63-30.37,4.95-11.63,7.43-24.34,7.43-38.12s-2.48-26.49-7.43-38.12Zm-18.32,69.15c-3.96,9.41-9.49,17.66-16.59,24.67-7.01,7.1-15.35,12.54-24.92,16.42-9.57,3.88-20.05,5.78-31.27,5.78s-21.78-1.9-31.44-5.78c-9.65-3.88-18.07-9.32-25.25-16.42-7.18-7.01-12.71-15.35-16.67-24.84-3.96-9.49-5.86-19.72-5.86-30.86s1.9-21.62,5.86-31.03c3.96-9.41,9.49-17.66,16.67-24.67,7.18-7.1,15.6-12.54,25.25-16.42,9.65-3.8,20.13-5.78,31.44-5.78s21.7,1.98,31.27,5.78c9.57,3.88,17.91,9.32,24.92,16.42,7.1,7.01,12.62,15.26,16.59,24.67,3.88,9.41,5.86,19.72,5.86,31.03s-1.98,21.62-5.86,31.03Z"/>
    </g>
  </g>
</svg>