<?xml version="1.0" encoding="UTF-8"?>
<svg id="Layer_2" data-name="Layer 2" xmlns="http://www.w3.org/2000/svg" viewBox="0 0 1250 913.91">
  <defs>
    <style>
      .cls-1 {
        fill: #231f20;
      }

      .cls-2 {
        fill: #010101;
      }
    </style>
  </defs>
  <g id="Layer_1-2" data-name="Layer 1">
    <g>
      <g>
        <path class="cls-1" d="m18.32,536.32v17.16h68.73v113.87c0,27.56-11.63,41.34-34.9,41.34-8.25,0-15.76-1.98-22.61-5.86-6.77-3.96-12.79-9.65-17.99-17.25l-11.55,13.45c5.61,8.58,12.95,15.26,22.2,19.89,9.24,4.62,19.14,7.01,29.7,7.01,18.07,0,31.69-4.95,40.93-14.77,9.24-9.9,13.78-24.75,13.78-44.64v-130.21H18.32Z"/>
        <path class="cls-1" d="m188.22,642.23h-53.39v16.09h59.33l-5.94-16.09Zm-36.02-105.91h-19.09l9.19,20.55,45.22,101.08,7.18,16.09,22.53,50.25h20.96l-85.98-187.97Z"/>
        <path class="cls-1" d="m445.22,536.32l-80.78,139.28-81.69-139.28h-16.34v187.97h19.06v-149.52l73.85,125.59h9.41l73.85-126.49v150.42h19.06v-187.97h-16.42Z"/>
        <path class="cls-1" d="m623.53,650.69c-4.21-6.02-9.82-10.97-16.67-14.6-6.93-3.63-14.44-6.68-22.61-8.99-8.09-2.31-16.34-4.46-24.51-6.44-8.25-1.98-15.84-4.21-22.69-6.68-6.93-2.56-12.46-6.02-16.67-10.48-4.21-4.54-6.35-10.4-6.35-17.74,0-6.44,1.82-12.21,5.28-17.33,3.47-5.12,8.91-9.16,16.26-12.21,7.34-3.05,16.67-4.54,27.89-4.54,8.42,0,17.16,1.24,26.16,3.71,9.08,2.48,17.66,6.44,25.66,11.8l6.77-15.84c-7.51-5.2-16.5-9.24-26.9-12.21-10.4-2.97-20.88-4.46-31.44-4.46-15.93,0-28.96,2.39-39.19,7.18-10.15,4.7-17.74,10.97-22.69,18.73-4.87,7.84-7.34,16.42-7.34,25.66,0,10.07,2.06,18.15,6.27,24.34,4.21,6.19,9.74,11.14,16.67,14.85,6.93,3.8,14.44,6.77,22.69,8.99,8.25,2.31,16.5,4.37,24.67,6.35,8.25,1.98,15.76,4.29,22.61,6.85,6.77,2.56,12.29,6.11,16.5,10.56,4.21,4.54,6.27,10.4,6.27,17.74,0,6.11-1.73,11.63-5.2,16.67-3.47,5.03-8.99,8.99-16.42,11.96-7.43,2.97-17,4.46-28.8,4.46-12.38,0-24.18-2.23-35.32-6.6-11.22-4.37-20.13-9.82-26.73-16.26l-7.84,15.26c7.01,7.18,16.92,13.04,29.71,17.66,12.79,4.54,26.16,6.85,40.18,6.85,16.09,0,29.29-2.39,39.61-7.18,10.23-4.7,17.91-10.97,22.94-18.73,5.03-7.84,7.51-16.26,7.51-25.41,0-9.82-2.06-17.82-6.27-23.93Z"/>
        <path class="cls-1" d="m658.03,536.32v17.16h66.01v170.8h19.89v-170.8h66.09v-17.16h-151.99Z"/>
        <path class="cls-1" d="m1004.18,536.32l-72.45,163.63-71.95-163.63h-21.54l83.26,187.97h19.64l83.26-187.97h-20.22Z"/>
        <path class="cls-1" d="m1242.57,592.19c-4.87-11.63-11.8-21.78-20.63-30.37-8.83-8.58-19.31-15.27-31.27-19.97-12.05-4.79-25.08-7.18-39.19-7.18s-27.48,2.39-39.52,7.18c-11.96,4.7-22.44,11.47-31.27,20.13-8.83,8.66-15.76,18.81-20.63,30.37-4.95,11.47-7.43,24.18-7.43,37.96s2.48,26.49,7.43,38.04c4.87,11.47,11.8,21.62,20.63,30.28,8.83,8.75,19.31,15.43,31.44,20.13,12.05,4.79,25.17,7.18,39.36,7.18s27.15-2.39,39.19-7.18c11.96-4.7,22.44-11.39,31.27-19.97,8.83-8.58,15.76-18.73,20.63-30.37,4.95-11.63,7.43-24.34,7.43-38.12s-2.48-26.49-7.43-38.12Zm-18.32,69.15c-3.96,9.41-9.49,17.66-16.59,24.67-7.01,7.1-15.35,12.54-24.92,16.42-9.57,3.88-20.05,5.78-31.27,5.78s-21.78-1.9-31.44-5.78c-9.65-3.88-18.07-9.32-25.25-16.42-7.18-7.01-12.71-15.35-16.67-24.84-3.96-9.49-5.86-19.72-5.86-30.86s1.9-21.62,5.86-31.03c3.96-9.41,9.49-17.66,16.67-24.67,7.18-7.1,15.6-12.54,25.25-16.42,9.65-3.8,20.13-5.78,31.44-5.78s21.7,1.98,31.27,5.78c9.57,3.88,17.91,9.32,24.92,16.42,7.1,7.01,12.62,15.26,16.59,24.67,3.88,9.41,5.86,19.72,5.86,31.03s-1.98,21.62-5.86,31.03Z"/>
      </g>
      <g>
        <path class="cls-1" d="m385.95,891.64h-35.79l-1.95,5.27h39.68l-1.95-5.27Zm-14.24-39.84h-6.41l-28.17,61.57h6.78l7.38-16.46,2.35-5.27,14.81-33.11,14.81,33.11,2.35,5.27,7.38,16.46h6.87l-28.17-61.57Z"/>
        <path class="cls-1" d="m451.33,906.34c-3.05,1.16-6.35,1.76-9.87,1.76-3.7,0-7.14-.62-10.3-1.89-3.16-1.27-5.92-3.05-8.27-5.38-2.32-2.3-4.16-5-5.49-8.08-1.32-3.08-1.97-6.46-1.97-10.16s.65-7.08,1.97-10.16c1.32-3.08,3.16-5.78,5.49-8.08,2.35-2.32,5.11-4.11,8.27-5.38,3.16-1.24,6.6-1.89,10.3-1.89s6.81.57,9.87,1.73c3.03,1.14,5.81,3,8.35,5.57l4.14-4.14c-2.7-2.97-6.03-5.22-9.95-6.73-3.95-1.49-8.14-2.24-12.57-2.24-4.65,0-8.92.78-12.87,2.35-3.92,1.54-7.33,3.73-10.24,6.54-2.89,2.81-5.16,6.14-6.76,9.95-1.62,3.81-2.43,7.97-2.43,12.49s.81,8.68,2.43,12.49c1.59,3.81,3.84,7.14,6.73,9.95,2.87,2.81,6.27,5,10.19,6.54,3.92,1.57,8.22,2.35,12.84,2.35s8.73-.78,12.68-2.3c3.92-1.51,7.24-3.78,9.95-6.78l-4.14-4.14c-2.54,2.59-5.33,4.46-8.35,5.65Z"/>
        <path class="cls-1" d="m515.39,906.34c-3.05,1.16-6.35,1.76-9.87,1.76-3.7,0-7.14-.62-10.3-1.89-3.16-1.27-5.92-3.05-8.27-5.38-2.32-2.3-4.16-5-5.49-8.08-1.32-3.08-1.97-6.46-1.97-10.16s.65-7.08,1.97-10.16c1.32-3.08,3.16-5.78,5.49-8.08,2.35-2.32,5.11-4.11,8.27-5.38,3.16-1.24,6.6-1.89,10.3-1.89s6.81.57,9.87,1.73c3.03,1.14,5.81,3,8.35,5.57l4.14-4.14c-2.7-2.97-6.03-5.22-9.95-6.73-3.92-1.49-8.14-2.24-12.57-2.24s-8.92.78-12.87,2.35c-3.92,1.54-7.33,3.73-10.24,6.54-2.89,2.81-5.16,6.14-6.76,9.95-1.62,3.81-2.43,7.97-2.43,12.49s.81,8.68,2.43,12.49c1.59,3.81,3.84,7.14,6.73,9.95,2.87,2.81,6.27,5,10.19,6.54,3.95,1.57,8.22,2.35,12.84,2.35s8.76-.78,12.68-2.3c3.92-1.51,7.24-3.78,9.95-6.78l-4.14-4.14c-2.54,2.59-5.33,4.46-8.35,5.65Z"/>
        <path class="cls-1" d="m599.38,870.09c-1.62-3.81-3.87-7.14-6.78-9.95-2.89-2.81-6.32-5-10.24-6.54-3.92-1.57-8.22-2.35-12.84-2.35s-9,.78-12.92,2.35c-3.95,1.54-7.35,3.76-10.27,6.6-2.89,2.84-5.16,6.16-6.76,9.95-1.62,3.76-2.43,7.92-2.43,12.43s.81,8.68,2.43,12.46c1.59,3.76,3.87,7.08,6.76,9.92,2.92,2.87,6.35,5.05,10.3,6.6,3.97,1.57,8.27,2.35,12.89,2.35s8.92-.78,12.84-2.35c3.92-1.54,7.35-3.73,10.24-6.54,2.92-2.81,5.16-6.14,6.78-9.95,1.62-3.81,2.41-7.97,2.41-12.49s-.78-8.68-2.41-12.49Zm-6.03,22.65c-1.3,3.08-3.11,5.78-5.41,8.08-2.32,2.32-5.05,4.11-8.19,5.38-3.14,1.27-6.54,1.89-10.24,1.89s-7.14-.62-10.3-1.89c-3.16-1.27-5.92-3.05-8.27-5.38-2.35-2.3-4.16-5.03-5.43-8.14-1.3-3.11-1.95-6.46-1.95-10.11s.65-7.08,1.95-10.16c1.27-3.08,3.08-5.78,5.43-8.08,2.35-2.32,5.11-4.11,8.27-5.38,3.16-1.24,6.6-1.89,10.3-1.89s7.11.65,10.24,1.89c3.14,1.27,5.87,3.05,8.19,5.38,2.3,2.3,4.11,5,5.41,8.08,1.3,3.08,1.95,6.46,1.95,10.16s-.65,7.08-1.95,10.16Z"/>
        <path class="cls-1" d="m655.28,851.79v35c0,7.27-1.65,12.65-4.92,16.11-3.3,3.46-7.95,5.19-14,5.19s-10.62-1.73-13.89-5.19c-3.3-3.46-4.92-8.84-4.92-16.11v-35h-6.51v35.27c0,8.87,2.24,15.54,6.76,20.06,4.51,4.51,10.7,6.78,18.57,6.78s14.03-2.27,18.52-6.78c4.49-4.51,6.73-11.19,6.73-20.06v-35.27h-6.33Z"/>
        <path class="cls-1" d="m715.88,851.79v49.95l-39.68-49.95h-5.35v61.57h6.49v-49.95l39.6,49.95h5.35v-61.57h-6.41Z"/>
        <path class="cls-1" d="m731.54,851.79v5.62h21.65v55.95h6.51v-55.95h21.62v-5.62h-49.79Z"/>
        <path class="cls-1" d="m790.57,851.79v61.57h6.51v-61.57h-6.51Z"/>
        <path class="cls-1" d="m851.39,851.79v49.95l-39.68-49.95h-5.38v61.57h6.51v-49.95l39.6,49.95h5.35v-61.57h-6.41Z"/>
        <path class="cls-1" d="m915.86,882.58v22.71l6.27.78v-23.49h-6.27Zm0,20.71c-1.92,1.43-3.95,2.49-6.11,3.22-3.14,1.05-6.46,1.59-9.97,1.59-3.76,0-7.24-.62-10.43-1.89-3.19-1.27-5.97-3.05-8.35-5.38-2.38-2.3-4.22-5.03-5.54-8.14-1.32-3.11-1.97-6.46-1.97-10.11s.65-7.08,1.97-10.16c1.32-3.08,3.16-5.78,5.54-8.08,2.38-2.32,5.16-4.11,8.35-5.38,3.19-1.24,6.7-1.89,10.51-1.89,3.57,0,6.92.57,10.03,1.68,3.11,1.11,5.95,2.97,8.54,5.54l4.05-4.14c-2.76-3-6.11-5.22-10-6.68-3.89-1.46-8.19-2.22-12.89-2.22s-9,.78-12.97,2.35c-3.95,1.54-7.41,3.73-10.33,6.54-2.95,2.81-5.22,6.14-6.81,9.95-1.62,3.81-2.43,7.97-2.43,12.49s.81,8.68,2.43,12.49c1.59,3.81,3.87,7.14,6.76,9.95,2.92,2.81,6.35,5,10.3,6.54,3.97,1.57,8.3,2.35,12.97,2.35,4.27,0,8.38-.68,12.33-2,3.92-1.3,7.35-3.27,10.3-5.84l-3.7-4.92c-.84.78-1.68,1.51-2.57,2.14Z"/>
      </g>
      <path class="cls-2" d="m833.33,0v409.36h-36.55l-150.25-336.01h-31.98l63.43,141.69h-61.92v28.3h74.5l74.22,166.03h-348.11V0h154.09v263.02c0,24.59-19.99,44.58-44.61,44.58s-43.19-18.54-44.44-42.18l-.14-2.65h-28.35l.08,2.9c1.42,39.45,33.43,70.34,72.85,70.34s73.05-32.73,73.05-72.99V0h234.14Z"/>
    </g>
  </g>
</svg>