<?xml version="1.0" encoding="utf-8"?>
<!-- Generator: Adobe Illustrator 27.3.1, SVG Export Plug-In . SVG Version: 6.00 Build 0)  -->
<svg version="1.1" id="Layer_2_00000182515106866748273100000011437931761567664562_"
	 xmlns="http://www.w3.org/2000/svg" xmlns:xlink="http://www.w3.org/1999/xlink" x="0px" y="0px" viewBox="0 0 1250 371.6"
	 style="enable-background:new 0 0 1250 371.6;" xml:space="preserve">
<path d="M443.3,54.2v11.2h45V140c0,18.1-7.6,27.1-22.9,27.1c-5.4,0-10.3-1.3-14.8-3.8c-4.4-2.6-8.4-6.3-11.8-11.3l-7.6,8.8
	c3.7,5.6,8.5,10,14.5,13c6,3,12.5,4.6,19.5,4.6c11.8,0,20.8-3.2,26.8-9.7c6-6.5,9-16.2,9-29.2V54.2H443.3L443.3,54.2z M554.6,123.5
	h-35v10.5h38.9C558.5,134.1,554.6,123.5,554.6,123.5z M531,54.2h-12.5l6,13.5l29.6,66.2l4.7,10.5l14.8,32.9h13.7L531,54.2L531,54.2z
	 M722.9,54.2L670,145.4l-53.5-91.2h-10.7v123.1h12.5V79.4l48.4,82.2h6.2l48.4-82.8v98.5h12.5V54.2H722.9L722.9,54.2z M839.7,129.1
	c-2.8-3.9-6.4-7.2-10.9-9.6c-4.5-2.4-9.5-4.4-14.8-5.9c-5.3-1.5-10.7-2.9-16-4.2c-5.4-1.3-10.4-2.8-14.9-4.4
	c-4.5-1.7-8.2-3.9-10.9-6.9c-2.8-3-4.2-6.8-4.2-11.6c0-4.2,1.2-8,3.5-11.3s5.8-6,10.7-8s10.9-3,18.3-3c5.5,0,11.2,0.8,17.1,2.4
	c5.9,1.6,11.6,4.2,16.8,7.7l4.4-10.4c-4.9-3.4-10.8-6-17.6-8s-13.7-2.9-20.6-2.9c-10.4,0-19,1.6-25.7,4.7
	C768.2,60.9,763.2,65,760,70c-3.2,5.1-4.8,10.8-4.8,16.8c0,6.6,1.3,11.9,4.1,15.9s6.4,7.3,10.9,9.7c4.5,2.5,9.5,4.4,14.9,5.9
	c5.4,1.5,10.8,2.9,16.2,4.2c5.4,1.3,10.3,2.8,14.8,4.5c4.4,1.7,8,4,10.8,6.9c2.8,3,4.1,6.8,4.1,11.6c0,4-1.1,7.6-3.4,10.9
	s-5.9,5.9-10.8,7.8s-11.1,2.9-18.9,2.9c-8.1,0-15.8-1.5-23.1-4.3c-7.3-2.9-13.2-6.4-17.5-10.6l-5.1,10c4.6,4.7,11.1,8.5,19.5,11.6
	c8.4,3,17.1,4.5,26.3,4.5c10.5,0,19.2-1.6,25.9-4.7c6.7-3.1,11.7-7.2,15-12.3c3.3-5.1,4.9-10.6,4.9-16.6
	C843.8,138.3,842.5,133.1,839.7,129.1L839.7,129.1z M862.3,54.2v11.2h43.2v111.9h13V65.4h43.3V54.2H862.3L862.3,54.2z M1089,54.2
	l-47.4,107.2L994.4,54.2h-14.1l54.5,123.1h12.9l54.5-123.1H1089L1089,54.2z M1245.1,90.8c-3.2-7.6-7.7-14.3-13.5-19.9
	c-5.8-5.6-12.7-10-20.5-13.1c-7.9-3.1-16.4-4.7-25.7-4.7s-18,1.6-25.9,4.7c-7.8,3.1-14.7,7.5-20.5,13.2
	c-5.8,5.7-10.3,12.3-13.5,19.9c-3.2,7.5-4.9,15.8-4.9,24.9s1.6,17.4,4.9,24.9c3.2,7.5,7.7,14.2,13.5,19.8
	c5.8,5.7,12.7,10.1,20.6,13.2c7.9,3.1,16.5,4.7,25.8,4.7s17.8-1.6,25.7-4.7c7.8-3.1,14.7-7.5,20.5-13.1s10.3-12.3,13.5-19.9
	c3.2-7.6,4.9-15.9,4.9-25S1248.4,98.4,1245.1,90.8L1245.1,90.8z M1233.1,136c-2.6,6.2-6.2,11.6-10.9,16.2
	c-4.6,4.6-10.1,8.2-16.3,10.8c-6.3,2.5-13.1,3.8-20.5,3.8s-14.3-1.2-20.6-3.8s-11.8-6.1-16.5-10.8c-4.7-4.6-8.3-10.1-10.9-16.3
	c-2.6-6.2-3.8-12.9-3.8-20.2s1.2-14.2,3.8-20.3c2.6-6.2,6.2-11.6,10.9-16.2c4.7-4.7,10.2-8.2,16.5-10.8c6.3-2.5,13.2-3.8,20.6-3.8
	s14.2,1.3,20.5,3.8c6.3,2.5,11.7,6.1,16.3,10.8c4.7,4.6,8.3,10,10.9,16.2c2.5,6.2,3.8,12.9,3.8,20.3S1235.7,129.9,1233.1,136z
	 M499.6,287.4h-50l-2.7,7.4h55.5L499.6,287.4L499.6,287.4z M479.7,231.6h-9l-39.4,86.1h9.5l10.3-23l3.3-7.4l20.7-46.3l20.7,46.3
	l3.3,7.4l10.3,23h9.6L479.7,231.6L479.7,231.6z M591,307.9c-4.3,1.6-8.9,2.5-13.8,2.5c-5.2,0-10-0.9-14.4-2.6
	c-4.4-1.8-8.3-4.3-11.6-7.5c-3.2-3.2-5.8-7-7.7-11.3s-2.8-9-2.8-14.2s0.9-9.9,2.8-14.2c1.8-4.3,4.4-8.1,7.7-11.3
	c3.3-3.2,7.1-5.8,11.6-7.5c4.4-1.7,9.2-2.6,14.4-2.6s9.5,0.8,13.8,2.4c4.2,1.6,8.1,4.2,11.7,7.8l5.8-5.8c-3.8-4.2-8.4-7.3-13.9-9.4
	c-5.5-2.1-11.4-3.1-17.6-3.1c-6.5,0-12.5,1.1-18,3.3c-5.5,2.1-10.2,5.2-14.3,9.1c-4,3.9-7.2,8.6-9.5,13.9
	c-2.3,5.3-3.4,11.1-3.4,17.5s1.1,12.1,3.4,17.5c2.2,5.3,5.4,10,9.4,13.9c4,3.9,8.8,7,14.2,9.1c5.5,2.2,11.5,3.3,18,3.3
	s12.2-1.1,17.7-3.2c5.5-2.1,10.1-5.3,13.9-9.5l-5.8-5.8C599.2,303.7,595.3,306.3,591,307.9L591,307.9z M680.7,307.9
	c-4.3,1.6-8.9,2.5-13.8,2.5c-5.2,0-10-0.9-14.4-2.6c-4.4-1.8-8.3-4.3-11.6-7.5c-3.2-3.2-5.8-7-7.7-11.3s-2.8-9-2.8-14.2
	s0.9-9.9,2.8-14.2c1.8-4.3,4.4-8.1,7.7-11.3c3.3-3.2,7.2-5.8,11.6-7.5c4.4-1.7,9.2-2.6,14.4-2.6s9.5,0.8,13.8,2.4
	c4.2,1.6,8.1,4.2,11.7,7.8l5.8-5.8c-3.8-4.2-8.4-7.3-13.9-9.4c-5.5-2.1-11.4-3.1-17.6-3.1s-12.5,1.1-18,3.3
	c-5.5,2.1-10.2,5.2-14.3,9.1c-4,3.9-7.2,8.6-9.5,13.9c-2.3,5.3-3.4,11.1-3.4,17.5s1.1,12.1,3.4,17.5c2.2,5.3,5.4,10,9.4,13.9
	c4,3.9,8.8,7,14.2,9.1c5.5,2.2,11.5,3.3,18,3.3s12.2-1.1,17.7-3.2c5.5-2.1,10.1-5.3,13.9-9.5l-5.8-5.8
	C688.8,303.7,684.9,306.3,680.7,307.9L680.7,307.9z M798.1,257.2c-2.3-5.3-5.4-10-9.5-13.9c-4-3.9-8.8-7-14.3-9.1
	c-5.5-2.2-11.5-3.3-18-3.3s-12.6,1.1-18.1,3.3c-5.5,2.1-10.3,5.2-14.4,9.2c-4,4-7.2,8.6-9.5,13.9c-2.3,5.2-3.4,11.1-3.4,17.4
	s1.1,12.1,3.4,17.4c2.2,5.2,5.4,9.9,9.5,13.9c4.1,4,8.9,7.1,14.4,9.2c5.6,2.2,11.6,3.3,18,3.3s12.5-1.1,18-3.3
	c5.5-2.1,10.3-5.2,14.3-9.1c4.1-3.9,7.2-8.6,9.5-13.9s3.4-11.1,3.4-17.5S800.4,262.5,798.1,257.2L798.1,257.2z M789.7,288.9
	c-1.8,4.3-4.3,8.1-7.6,11.3c-3.2,3.2-7.1,5.8-11.5,7.5c-4.4,1.8-9.2,2.6-14.3,2.6s-10-0.9-14.4-2.6c-4.4-1.8-8.3-4.3-11.6-7.5
	c-3.3-3.2-5.8-7-7.6-11.4c-1.8-4.4-2.7-9-2.7-14.1s0.9-9.9,2.7-14.2c1.8-4.3,4.3-8.1,7.6-11.3c3.3-3.2,7.1-5.8,11.6-7.5
	c4.4-1.7,9.2-2.6,14.4-2.6s9.9,0.9,14.3,2.6c4.4,1.8,8.2,4.3,11.5,7.5c3.2,3.2,5.8,7,7.6,11.3s2.7,9,2.7,14.2
	S791.5,284.6,789.7,288.9L789.7,288.9z M876.3,231.6v49c0,10.2-2.3,17.7-6.9,22.5c-4.6,4.8-11.1,7.3-19.6,7.3s-14.9-2.4-19.4-7.3
	c-4.6-4.8-6.9-12.4-6.9-22.5v-49h-9.1V281c0,12.4,3.1,21.7,9.5,28s15,9.5,26,9.5s19.6-3.2,25.9-9.5s9.4-15.6,9.4-28v-49.3
	L876.3,231.6L876.3,231.6z M961,231.6v69.9l-55.5-69.9h-7.5v86.1h9.1v-69.9l55.4,69.9h7.5v-86.1L961,231.6L961,231.6z M982.9,231.6
	v7.9h30.3v78.3h9.1v-78.2h30.2v-7.9L982.9,231.6L982.9,231.6z M1065.5,231.6v86.1h9.1v-86.1H1065.5z M1150.6,231.6v69.9l-55.5-69.9
	h-7.5v86.1h9.1v-69.9l55.4,69.9h7.5v-86.1L1150.6,231.6L1150.6,231.6z M1240.7,274.7v31.8l8.8,1.1v-32.9L1240.7,274.7L1240.7,274.7z
	 M1240.7,303.7c-2.7,2-5.5,3.5-8.5,4.5c-4.4,1.5-9,2.2-13.9,2.2c-5.2,0-10.1-0.9-14.6-2.6s-8.3-4.3-11.7-7.5
	c-3.3-3.2-5.9-7-7.8-11.4s-2.8-9-2.8-14.1s0.9-9.9,2.8-14.2s4.4-8.1,7.8-11.3c3.3-3.2,7.2-5.8,11.7-7.5c4.5-1.7,9.4-2.6,14.7-2.6
	c5,0,9.7,0.8,14,2.3s8.3,4.2,11.9,7.8l5.7-5.8c-3.9-4.2-8.5-7.3-14-9.3c-5.4-2-11.4-3.1-18-3.1s-12.6,1.1-18.2,3.3
	c-5.5,2.1-10.4,5.2-14.4,9.1c-4.1,3.9-7.3,8.6-9.5,13.9c-2.3,5.3-3.4,11.1-3.4,17.5s1.1,12.1,3.4,17.5c2.2,5.3,5.4,10,9.4,13.9
	c4.1,3.9,8.9,7,14.4,9.1c5.6,2.2,11.6,3.3,18.2,3.3c6,0,11.7-1,17.2-2.8c5.5-1.8,10.3-4.6,14.4-8.2l-5.2-6.9
	C1243.2,301.8,1242,302.8,1240.7,303.7L1240.7,303.7z M378.2,0v371.6h-33.2l-136.4-305h-29l57.6,128.6H181v25.7h67.6L316,371.6H0V0
	h139.9v238.8c0,22.3-18.2,40.5-40.5,40.5S60.2,262.4,59,240.9l-0.1-2.4H33.2l0.1,2.6C34.6,277,63.6,305,99.4,305
	s66.3-29.7,66.3-66.3V0H378.2z"/>
</svg>
