<?xml version="1.0" encoding="utf-8"?>
<!-- Generator: Adobe Illustrator 27.3.1, SVG Export Plug-In . SVG Version: 6.00 Build 0)  -->
<svg version="1.1" id="Layer_2_00000063614936280490964250000009824877711461646745_"
	 xmlns="http://www.w3.org/2000/svg" xmlns:xlink="http://www.w3.org/1999/xlink" x="0px" y="0px" viewBox="0 0 1250 379.2"
	 style="enable-background:new 0 0 1250 379.2;" xml:space="preserve">
<path d="M18.3,1.6v17.2h68.7v113.9c0,27.6-11.6,41.3-34.9,41.3c-8.2,0-15.8-2-22.6-5.9c-6.8-4-12.8-9.6-18-17.2L0,164.4
	c5.6,8.6,12.9,15.3,22.2,19.9c9.2,4.6,19.1,7,29.7,7c18.1,0,31.7-4.9,40.9-14.8c9.2-9.9,13.8-24.8,13.8-44.6V1.6H18.3z M188.2,107.6
	h-53.4v16.1h59.3L188.2,107.6z M152.2,1.6h-19.1l9.2,20.5l45.2,101.1l7.2,16.1l22.5,50.2h21L152.2,1.6z M445.2,1.6l-80.8,139.3
	L282.7,1.6h-16.3v188h19.1V40.1l73.9,125.6h9.4l73.9-126.5v150.4h19.1V1.6H445.2L445.2,1.6z M623.5,116c-4.2-6-9.8-11-16.7-14.6
	c-6.9-3.6-14.4-6.7-22.6-9c-8.1-2.3-16.3-4.5-24.5-6.4c-8.2-2-15.8-4.2-22.7-6.7c-6.9-2.6-12.5-6-16.7-10.5
	c-4.2-4.5-6.3-10.4-6.3-17.7c0-6.4,1.8-12.2,5.3-17.3c3.5-5.1,8.9-9.2,16.3-12.2c7.3-3,16.7-4.5,27.9-4.5c8.4,0,17.2,1.2,26.2,3.7
	c9.1,2.5,17.7,6.4,25.7,11.8l6.8-15.8c-7.5-5.2-16.5-9.2-26.9-12.2S574.3,0,563.7,0c-15.9,0-29,2.4-39.2,7.2
	c-10.2,4.7-17.7,11-22.7,18.7c-4.9,7.8-7.3,16.4-7.3,25.7c0,10.1,2.1,18.2,6.3,24.3c4.2,6.2,9.7,11.1,16.7,14.8
	c6.9,3.8,14.4,6.8,22.7,9c8.2,2.3,16.5,4.4,24.7,6.3c8.2,2,15.8,4.3,22.6,6.8c6.8,2.6,12.3,6.1,16.5,10.6c4.2,4.5,6.3,10.4,6.3,17.7
	c0,6.1-1.7,11.6-5.2,16.7c-3.5,5-9,9-16.4,12s-17,4.5-28.8,4.5c-12.4,0-24.2-2.2-35.3-6.6c-11.2-4.4-20.1-9.8-26.7-16.3l-7.8,15.3
	c7,7.2,16.9,13,29.7,17.7c12.8,4.5,26.2,6.9,40.2,6.9c16.1,0,29.3-2.4,39.6-7.2c10.2-4.7,17.9-11,22.9-18.7c5-7.8,7.5-16.3,7.5-25.4
	C629.8,130.1,627.8,122.1,623.5,116L623.5,116z M658,1.6v17.2h66v170.8h19.9V18.8H810V1.6H658z M1004.2,1.6l-72.5,163.6L859.8,1.6
	h-21.5l83.3,188h19.6l83.3-188H1004.2L1004.2,1.6z M1242.6,57.5c-4.9-11.6-11.8-21.8-20.6-30.4c-8.8-8.6-19.3-15.3-31.3-20
	c-12.1-4.8-25.1-7.2-39.2-7.2S1124,2.4,1112,7.2c-12,4.7-22.4,11.5-31.3,20.1c-8.8,8.7-15.8,18.8-20.6,30.4
	c-4.9,11.5-7.4,24.2-7.4,38s2.5,26.5,7.4,38c4.9,11.5,11.8,21.6,20.6,30.3c8.8,8.8,19.3,15.4,31.4,20.1c12.1,4.8,25.2,7.2,39.4,7.2
	s27.2-2.4,39.2-7.2c12-4.7,22.4-11.4,31.3-20c8.8-8.6,15.8-18.7,20.6-30.4c4.9-11.6,7.4-24.3,7.4-38.1S1247.5,69.1,1242.6,57.5
	L1242.6,57.5z M1224.2,126.7c-4,9.4-9.5,17.7-16.6,24.7c-7,7.1-15.3,12.5-24.9,16.4c-9.6,3.9-20.1,5.8-31.3,5.8s-21.8-1.9-31.4-5.8
	c-9.7-3.9-18.1-9.3-25.2-16.4c-7.2-7-12.7-15.4-16.7-24.8c-4-9.5-5.9-19.7-5.9-30.9s1.9-21.6,5.9-31s9.5-17.7,16.7-24.7
	c7.2-7.1,15.6-12.5,25.2-16.4c9.7-3.8,20.1-5.8,31.4-5.8s21.7,2,31.3,5.8c9.6,3.9,17.9,9.3,24.9,16.4c7.1,7,12.6,15.3,16.6,24.7
	c3.9,9.4,5.9,19.7,5.9,31S1228.1,117.3,1224.2,126.7z M386,357h-35.8l-2,5.3h39.7L386,357L386,357z M371.7,317.1h-6.4l-28.2,61.6
	h6.8l7.4-16.5l2.4-5.3l14.8-33.1l14.8,33.1l2.4,5.3l7.4,16.5h6.9L371.7,317.1L371.7,317.1z M451.3,371.7c-3,1.2-6.4,1.8-9.9,1.8
	c-3.7,0-7.1-0.6-10.3-1.9c-3.2-1.3-5.9-3-8.3-5.4c-2.3-2.3-4.2-5-5.5-8.1c-1.3-3.1-2-6.5-2-10.2s0.6-7.1,2-10.2
	c1.3-3.1,3.2-5.8,5.5-8.1c2.4-2.3,5.1-4.1,8.3-5.4c3.2-1.2,6.6-1.9,10.3-1.9s6.8,0.6,9.9,1.7c3,1.1,5.8,3,8.4,5.6l4.1-4.1
	c-2.7-3-6-5.2-10-6.7c-4-1.5-8.1-2.2-12.6-2.2c-4.6,0-8.9,0.8-12.9,2.4c-3.9,1.5-7.3,3.7-10.2,6.5c-2.9,2.8-5.2,6.1-6.8,10
	c-1.6,3.8-2.4,8-2.4,12.5s0.8,8.7,2.4,12.5c1.6,3.8,3.8,7.1,6.7,10c2.9,2.8,6.3,5,10.2,6.5c3.9,1.6,8.2,2.4,12.8,2.4
	s8.7-0.8,12.7-2.3c3.9-1.5,7.2-3.8,10-6.8l-4.1-4.1C457.1,368.6,454.4,370.5,451.3,371.7L451.3,371.7z M515.4,371.7
	c-3,1.2-6.4,1.8-9.9,1.8c-3.7,0-7.1-0.6-10.3-1.9c-3.2-1.3-5.9-3-8.3-5.4c-2.3-2.3-4.2-5-5.5-8.1c-1.3-3.1-2-6.5-2-10.2
	s0.6-7.1,2-10.2c1.3-3.1,3.2-5.8,5.5-8.1c2.4-2.3,5.1-4.1,8.3-5.4c3.2-1.2,6.6-1.9,10.3-1.9s6.8,0.6,9.9,1.7c3,1.1,5.8,3,8.3,5.6
	l4.1-4.1c-2.7-3-6-5.2-10-6.7c-3.9-1.5-8.1-2.2-12.6-2.2s-8.9,0.8-12.9,2.4c-3.9,1.5-7.3,3.7-10.2,6.5c-2.9,2.8-5.2,6.1-6.8,10
	c-1.6,3.8-2.4,8-2.4,12.5s0.8,8.7,2.4,12.5c1.6,3.8,3.8,7.1,6.7,10c2.9,2.8,6.3,5,10.2,6.5c4,1.6,8.2,2.4,12.8,2.4s8.8-0.8,12.7-2.3
	c3.9-1.5,7.2-3.8,10-6.8l-4.1-4.1C521.2,368.6,518.4,370.5,515.4,371.7L515.4,371.7z M599.4,335.4c-1.6-3.8-3.9-7.1-6.8-10
	c-2.9-2.8-6.3-5-10.2-6.5c-3.9-1.6-8.2-2.4-12.8-2.4s-9,0.8-12.9,2.4c-4,1.5-7.3,3.8-10.3,6.6c-2.9,2.8-5.2,6.2-6.8,10
	c-1.6,3.8-2.4,7.9-2.4,12.4s0.8,8.7,2.4,12.5c1.6,3.8,3.9,7.1,6.8,9.9c2.9,2.9,6.3,5,10.3,6.6c4,1.6,8.3,2.4,12.9,2.4
	s8.9-0.8,12.8-2.4c3.9-1.5,7.3-3.7,10.2-6.5c2.9-2.8,5.2-6.1,6.8-10c1.6-3.8,2.4-8,2.4-12.5S601,339.2,599.4,335.4z M593.3,358.1
	c-1.3,3.1-3.1,5.8-5.4,8.1c-2.3,2.3-5,4.1-8.2,5.4c-3.1,1.3-6.5,1.9-10.2,1.9s-7.1-0.6-10.3-1.9c-3.2-1.3-5.9-3-8.3-5.4
	c-2.3-2.3-4.2-5-5.4-8.1c-1.3-3.1-2-6.5-2-10.1s0.7-7.1,2-10.2c1.3-3.1,3.1-5.8,5.4-8.1c2.3-2.3,5.1-4.1,8.3-5.4
	c3.2-1.2,6.6-1.9,10.3-1.9s7.1,0.6,10.2,1.9c3.1,1.3,5.9,3,8.2,5.4c2.3,2.3,4.1,5,5.4,8.1s2,6.5,2,10.2S594.6,355,593.3,358.1
	L593.3,358.1z M655.3,317.1v35c0,7.3-1.7,12.6-4.9,16.1c-3.3,3.5-8,5.2-14,5.2s-10.6-1.7-13.9-5.2c-3.3-3.5-4.9-8.8-4.9-16.1v-35
	H611v35.3c0,8.9,2.2,15.5,6.8,20.1c4.5,4.5,10.7,6.8,18.6,6.8s14-2.3,18.5-6.8s6.7-11.2,6.7-20.1v-35.3H655.3L655.3,317.1z
	 M715.9,317.1v50l-39.7-50h-5.3v61.6h6.5v-50l39.6,50h5.3v-61.6H715.9z M731.5,317.1v5.6h21.7v56h6.5v-56h21.6v-5.6H731.5
	L731.5,317.1z M790.6,317.1v61.6h6.5v-61.6H790.6z M851.4,317.1v50l-39.7-50h-5.4v61.6h6.5v-50l39.6,50h5.3v-61.6H851.4L851.4,317.1
	z M915.9,347.9v22.7l6.3,0.8v-23.5H915.9z M915.9,368.6c-1.9,1.4-4,2.5-6.1,3.2c-3.1,1-6.5,1.6-10,1.6c-3.8,0-7.2-0.6-10.4-1.9
	c-3.2-1.3-6-3-8.3-5.4c-2.4-2.3-4.2-5-5.5-8.1c-1.3-3.1-2-6.5-2-10.1s0.7-7.1,2-10.2c1.3-3.1,3.2-5.8,5.5-8.1
	c2.4-2.3,5.2-4.1,8.3-5.4c3.2-1.2,6.7-1.9,10.5-1.9c3.6,0,6.9,0.6,10,1.7c3.1,1.1,6,3,8.5,5.5l4-4.1c-2.8-3-6.1-5.2-10-6.7
	s-8.2-2.2-12.9-2.2s-9,0.8-13,2.4c-4,1.5-7.4,3.7-10.3,6.5c-3,2.8-5.2,6.1-6.8,10c-1.6,3.8-2.4,8-2.4,12.5s0.8,8.7,2.4,12.5
	c1.6,3.8,3.9,7.1,6.8,10c2.9,2.8,6.3,5,10.3,6.5c4,1.6,8.3,2.4,13,2.4c4.3,0,8.4-0.7,12.3-2c3.9-1.3,7.3-3.3,10.3-5.8l-3.7-4.9
	C917.6,367.3,916.8,368,915.9,368.6L915.9,368.6z"/>
</svg>
