<?xml version="1.0" encoding="UTF-8"?>
<svg id="Layer_2" data-name="Layer 2" xmlns="http://www.w3.org/2000/svg" viewBox="0 0 1250 405.28">
  <defs>
    <style>
      .cls-1 {
        fill: #231f20;
      }
    </style>
  </defs>
  <g id="Layer_1-2" data-name="Layer 1">
    <g>
      <g>
        <path class="cls-1" d="m18.32,1.65v17.16h68.73v113.87c0,27.56-11.63,41.34-34.9,41.34-8.25,0-15.76-1.98-22.61-5.86-6.77-3.96-12.79-9.65-17.99-17.25l-11.55,13.45c5.61,8.58,12.95,15.26,22.2,19.89,9.24,4.62,19.14,7.01,29.7,7.01,18.07,0,31.69-4.95,40.93-14.77,9.24-9.9,13.78-24.75,13.78-44.64V1.65H18.32Z"/>
        <path class="cls-1" d="m188.22,107.56h-53.39v16.09h59.33l-5.94-16.09ZM152.2,1.65h-19.09l9.19,20.55,45.22,101.08,7.18,16.09,22.53,50.25h20.96L152.2,1.65Z"/>
        <path class="cls-1" d="m445.22,1.65l-80.78,139.28L282.74,1.65h-16.34v187.97h19.06V40.1l73.85,125.59h9.41l73.85-126.49v150.42h19.06V1.65h-16.42Z"/>
        <path class="cls-1" d="m623.53,116.01c-4.21-6.02-9.82-10.97-16.67-14.6-6.93-3.63-14.44-6.68-22.61-8.99-8.09-2.31-16.34-4.46-24.51-6.44-8.25-1.98-15.84-4.21-22.69-6.68-6.93-2.56-12.46-6.02-16.67-10.48-4.21-4.54-6.35-10.4-6.35-17.74,0-6.44,1.82-12.21,5.28-17.33,3.47-5.12,8.91-9.16,16.26-12.21,7.34-3.05,16.67-4.54,27.89-4.54,8.42,0,17.16,1.24,26.16,3.71,9.08,2.48,17.66,6.44,25.66,11.8l6.77-15.84c-7.51-5.2-16.5-9.24-26.9-12.21-10.4-2.97-20.88-4.46-31.44-4.46-15.93,0-28.96,2.39-39.19,7.18-10.15,4.7-17.74,10.97-22.69,18.73-4.87,7.84-7.34,16.42-7.34,25.66,0,10.07,2.06,18.15,6.27,24.34,4.21,6.19,9.74,11.14,16.67,14.85,6.93,3.8,14.44,6.77,22.69,8.99,8.25,2.31,16.5,4.37,24.67,6.35,8.25,1.98,15.76,4.29,22.61,6.85,6.77,2.56,12.29,6.11,16.5,10.56,4.21,4.54,6.27,10.4,6.27,17.74,0,6.11-1.73,11.63-5.2,16.67-3.47,5.03-8.99,8.99-16.42,11.96-7.43,2.97-17,4.46-28.8,4.46-12.38,0-24.18-2.23-35.32-6.6-11.22-4.37-20.13-9.82-26.73-16.26l-7.84,15.26c7.01,7.18,16.92,13.04,29.71,17.66,12.79,4.54,26.16,6.85,40.18,6.85,16.09,0,29.29-2.39,39.61-7.18,10.23-4.7,17.91-10.97,22.94-18.73,5.03-7.84,7.51-16.26,7.51-25.41,0-9.82-2.06-17.82-6.27-23.93Z"/>
        <path class="cls-1" d="m658.03,1.65v17.16h66.01v170.8h19.89V18.81h66.09V1.65h-151.99Z"/>
        <path class="cls-1" d="m1004.18,1.65l-72.45,163.63L859.78,1.65h-21.54l83.26,187.97h19.64L1024.4,1.65h-20.22Z"/>
        <path class="cls-1" d="m1242.57,57.51c-4.87-11.63-11.8-21.78-20.63-30.37-8.83-8.58-19.31-15.27-31.27-19.97-12.05-4.79-25.08-7.18-39.19-7.18s-27.48,2.39-39.52,7.18c-11.96,4.7-22.44,11.47-31.27,20.13-8.83,8.66-15.76,18.81-20.63,30.37-4.95,11.47-7.43,24.18-7.43,37.96s2.48,26.49,7.43,38.04c4.87,11.47,11.8,21.62,20.63,30.28,8.83,8.75,19.31,15.43,31.44,20.13,12.05,4.79,25.17,7.18,39.36,7.18s27.15-2.39,39.19-7.18c11.96-4.7,22.44-11.39,31.27-19.97,8.83-8.58,15.76-18.73,20.63-30.37,4.95-11.63,7.43-24.34,7.43-38.12s-2.48-26.49-7.43-38.12Zm-18.32,69.15c-3.96,9.41-9.49,17.66-16.59,24.67-7.01,7.1-15.35,12.54-24.92,16.42-9.57,3.88-20.05,5.78-31.27,5.78s-21.78-1.9-31.44-5.78c-9.65-3.88-18.07-9.32-25.25-16.42-7.18-7.01-12.71-15.35-16.67-24.84-3.96-9.49-5.86-19.72-5.86-30.86s1.9-21.62,5.86-31.03c3.96-9.41,9.49-17.66,16.67-24.67,7.18-7.1,15.6-12.54,25.25-16.42,9.65-3.8,20.13-5.78,31.44-5.78s21.7,1.98,31.27,5.78c9.57,3.88,17.91,9.32,24.92,16.42,7.1,7.01,12.62,15.26,16.59,24.67,3.88,9.41,5.86,19.72,5.86,31.03s-1.98,21.62-5.86,31.03Z"/>
      </g>
      <g>
        <path class="cls-1" d="m104.25,357.72H27.82l-4.16,11.26h84.74l-4.16-11.26Zm-30.42-85.08h-13.68L0,404.13h14.49l15.76-35.15,5.02-11.26,31.63-70.71,31.63,70.71,5.02,11.26,15.76,35.15h14.66l-60.15-131.49Z"/>
        <path class="cls-1" d="m243.87,389.12c-6.52,2.48-13.56,3.75-21.07,3.75-7.91,0-15.24-1.33-21.99-4.04-6.75-2.71-12.64-6.52-17.66-11.49-4.96-4.91-8.89-10.68-11.72-17.26-2.83-6.58-4.21-13.8-4.21-21.7s1.39-15.12,4.21-21.7c2.83-6.58,6.75-12.35,11.72-17.26,5.02-4.96,10.91-8.77,17.66-11.49,6.75-2.66,14.08-4.04,21.99-4.04s14.55,1.21,21.07,3.69c6.46,2.42,12.41,6.41,17.84,11.89l8.83-8.83c-5.77-6.35-12.87-11.14-21.24-14.37-8.43-3.17-17.37-4.79-26.84-4.79-9.93,0-19.05,1.67-27.48,5.02-8.37,3.29-15.64,7.97-21.88,13.97-6.18,6-11.02,13.1-14.43,21.24-3.46,8.14-5.19,17.03-5.19,26.67s1.73,18.53,5.19,26.67c3.41,8.14,8.2,15.24,14.37,21.24,6.12,6,13.39,10.68,21.76,13.97,8.37,3.35,17.55,5.02,27.42,5.02s18.64-1.67,27.07-4.91c8.37-3.23,15.47-8.08,21.24-14.49l-8.83-8.83c-5.43,5.54-11.37,9.52-17.84,12.06Z"/>
        <path class="cls-1" d="m380.68,389.12c-6.52,2.48-13.56,3.75-21.07,3.75-7.91,0-15.24-1.33-21.99-4.04-6.75-2.71-12.64-6.52-17.66-11.49-4.96-4.91-8.89-10.68-11.72-17.26-2.83-6.58-4.21-13.8-4.21-21.7s1.39-15.12,4.21-21.7c2.83-6.58,6.75-12.35,11.72-17.26,5.02-4.96,10.91-8.77,17.66-11.49,6.75-2.66,14.08-4.04,21.99-4.04s14.55,1.21,21.07,3.69c6.46,2.42,12.41,6.41,17.84,11.89l8.83-8.83c-5.77-6.35-12.87-11.14-21.24-14.37-8.37-3.17-17.37-4.79-26.84-4.79s-19.05,1.67-27.48,5.02c-8.37,3.29-15.64,7.97-21.88,13.97-6.18,6-11.02,13.1-14.43,21.24-3.46,8.14-5.19,17.03-5.19,26.67s1.73,18.53,5.19,26.67c3.41,8.14,8.2,15.24,14.37,21.24,6.12,6,13.39,10.68,21.76,13.97,8.43,3.35,17.55,5.02,27.42,5.02s18.7-1.67,27.07-4.91c8.37-3.23,15.47-8.08,21.24-14.49l-8.83-8.83c-5.43,5.54-11.37,9.52-17.84,12.06Z"/>
        <path class="cls-1" d="m560.03,311.71c-3.46-8.14-8.25-15.24-14.49-21.24-6.18-6-13.51-10.68-21.88-13.97-8.37-3.35-17.55-5.02-27.42-5.02s-19.22,1.67-27.59,5.02c-8.43,3.29-15.7,8.02-21.93,14.08-6.18,6.06-11.02,13.16-14.43,21.24-3.46,8.02-5.2,16.91-5.2,26.55s1.73,18.53,5.2,26.61c3.41,8.02,8.25,15.12,14.43,21.18,6.23,6.12,13.56,10.79,21.99,14.08,8.49,3.35,17.66,5.02,27.53,5.02s19.05-1.67,27.42-5.02c8.37-3.29,15.7-7.97,21.88-13.97,6.23-6,11.03-13.1,14.49-21.24,3.46-8.14,5.14-17.03,5.14-26.67s-1.67-18.53-5.14-26.67Zm-12.87,48.37c-2.77,6.58-6.64,12.35-11.54,17.26-4.96,4.96-10.79,8.77-17.49,11.49-6.7,2.71-13.97,4.04-21.88,4.04s-15.24-1.33-21.99-4.04c-6.75-2.71-12.64-6.52-17.66-11.49-5.02-4.91-8.89-10.74-11.6-17.37-2.77-6.64-4.16-13.8-4.16-21.59s1.39-15.12,4.16-21.7c2.71-6.58,6.58-12.35,11.6-17.26,5.02-4.96,10.91-8.77,17.66-11.49,6.75-2.66,14.08-4.04,21.99-4.04s15.18,1.39,21.88,4.04c6.7,2.71,12.53,6.52,17.49,11.49,4.91,4.91,8.77,10.68,11.54,17.26,2.77,6.58,4.16,13.8,4.16,21.7s-1.39,15.12-4.16,21.7Z"/>
        <path class="cls-1" d="m679.4,272.64v74.75c0,15.53-3.52,27.01-10.51,34.4-7.04,7.39-16.97,11.08-29.9,11.08s-22.68-3.69-29.67-11.08c-7.04-7.39-10.51-18.88-10.51-34.4v-74.75h-13.91v75.33c0,18.93,4.79,33.19,14.43,42.83,9.64,9.64,22.86,14.49,39.65,14.49s29.96-4.85,39.54-14.49c9.58-9.64,14.37-23.9,14.37-42.83v-75.33h-13.51Z"/>
        <path class="cls-1" d="m808.82,272.64v106.67l-84.74-106.67h-11.43v131.49h13.85v-106.67l84.56,106.67h11.43v-131.49h-13.68Z"/>
        <path class="cls-1" d="m842.24,272.64v12.01h46.24v119.48h13.91v-119.48h46.18v-12.01h-106.32Z"/>
        <path class="cls-1" d="m968.31,272.64v131.49h13.91v-131.49h-13.91Z"/>
        <path class="cls-1" d="m1098.19,272.64v106.67l-84.74-106.67h-11.49v131.49h13.91v-106.67l84.56,106.67h11.43v-131.49h-13.68Z"/>
        <path class="cls-1" d="m1235.86,338.38v48.49l13.39,1.67v-50.16h-13.39Zm0,44.21c-4.1,3.06-8.43,5.31-13.05,6.87-6.7,2.25-13.8,3.41-21.3,3.41-8.02,0-15.47-1.33-22.28-4.04-6.81-2.71-12.76-6.52-17.84-11.49-5.08-4.91-9-10.74-11.83-17.37-2.83-6.64-4.21-13.8-4.21-21.59s1.39-15.12,4.21-21.7c2.83-6.58,6.75-12.35,11.83-17.26,5.08-4.96,11.02-8.77,17.84-11.49,6.81-2.66,14.31-4.04,22.45-4.04,7.62,0,14.78,1.21,21.41,3.58,6.64,2.37,12.7,6.35,18.24,11.83l8.66-8.83c-5.89-6.41-13.05-11.14-21.36-14.26-8.31-3.12-17.49-4.73-27.53-4.73s-19.22,1.67-27.71,5.02c-8.43,3.29-15.82,7.97-22.05,13.97-6.29,6-11.14,13.1-14.55,21.24-3.46,8.14-5.2,17.03-5.2,26.67s1.73,18.53,5.2,26.67c3.41,8.14,8.25,15.24,14.43,21.24,6.23,6,13.56,10.68,21.99,13.97,8.48,3.35,17.72,5.02,27.71,5.02,9.12,0,17.89-1.44,26.32-4.27,8.37-2.77,15.7-6.98,21.99-12.47l-7.91-10.51c-1.79,1.67-3.58,3.23-5.48,4.56Z"/>
      </g>
    </g>
  </g>
</svg>