<?xml version="1.0" encoding="UTF-8"?>
<svg id="Layer_2" data-name="Layer 2" xmlns="http://www.w3.org/2000/svg" viewBox="0 0 821.55 175">
  <defs>
    <style>
      .cls-1 {
        fill: #231f20;
      }
    </style>
  </defs>
  <g id="Layer_1-2" data-name="Layer 1">
    <g>
      <path d="m168.13,19.45c-4.41-7.88-10.87-14.93-18.57-19.45,0,0-1.35,1.66-1.35,1.66,5.67,6.29,9.76,13.31,12.36,21.18,8.87,28.16-.57,59.43-17.95,82.36-28.08,36.83-72.64,49.55-117.02,46.2,4.37-23.4,14.42-45.85,30.33-63.74,18.58-21.19,46.41-35.38,75.14-31.64,0,0,.65-2.49.65-2.49-30.26-12.26-65.24.31-88.26,21.68C22.5,94.27,8.34,120.52,2.92,148.28c-1.43,6.83-2.21,15.91-2.92,22.96,5.71.79,14.2,2.24,19.91,2.76,27.4,2.87,55.74-.27,81.17-11.37,39.69-16.91,71.09-54.88,75.46-98.38,1.46-15.3-.83-31.29-8.4-44.8Z"/>
      <g>
        <path class="cls-1" d="m203.07,122.75v-48.56h10.6v39.61h24.21v8.95h-34.81Z"/>
        <path class="cls-1" d="m273.98,102.77v19.98h-10.6v-19.98l-17.47-28.58h12.03l10.89,19.12,11.17-19.12h11.53l-17.54,28.58Z"/>
        <path class="cls-1" d="m334.5,122.75l-13.03-18.34h-6.81v18.34h-10.6v-48.56h19.12c1.48,0,2.96.03,4.44.1,1.47.07,2.93.25,4.37.54s2.79.74,4.09,1.36c1.29.62,2.48,1.48,3.58,2.58,1.53,1.53,2.62,3.18,3.26,4.94.65,1.77.97,3.56.97,5.37,0,2.15-.41,4.12-1.22,5.9-.81,1.8-1.91,3.31-3.29,4.55-1.1.96-2.27,1.73-3.51,2.33-1.24.6-2.34,1.04-3.3,1.32l14.19,19.56h-12.25Zm-1.36-33.59c0-.96-.13-1.75-.4-2.4-.26-.64-.65-1.23-1.18-1.75-1.1-1.1-2.41-1.73-3.93-1.89-1.53-.17-3.13-.25-4.8-.25h-8.17v12.89h7.24c1.33,0,2.67-.03,4.01-.1,1.33-.07,2.54-.32,3.61-.75,1.08-.43,1.95-1.08,2.62-1.97.66-.88,1-2.13,1-3.76Z"/>
        <path class="cls-1" d="m394.74,122.75l-3.86-9.38h-20.77l-3.86,9.38h-10.96l19.91-48.56h11.03l19.84,48.56h-11.32Zm-14.25-37.32l-7.3,19.26h14.61l-7.3-19.26Z"/>
        <path class="cls-1" d="m484.05,108.64c0,2.44-.52,4.6-1.57,6.48-1.05,1.89-2.51,3.49-4.37,4.8-1.87,1.31-4.09,2.3-6.66,2.97-2.58.66-5.4,1-8.45,1-3.49,0-6.51-.35-9.06-1.04-2.55-.69-4.69-1.49-6.41-2.4-1.72-.91-3.05-1.77-3.98-2.58-.93-.81-1.5-1.33-1.68-1.57l5.87-7.09c.24.24.75.68,1.54,1.32.79.64,1.81,1.3,3.08,1.97s2.79,1.26,4.58,1.79c1.8.52,3.81.79,6.06.79,3.15,0,5.65-.48,7.52-1.43,1.86-.95,2.79-2.45,2.79-4.51,0-1.24-.43-2.23-1.29-2.97s-1.99-1.33-3.4-1.79c-1.4-.45-3.02-.85-4.83-1.18-1.82-.33-3.65-.7-5.51-1.11-1.87-.41-3.7-.93-5.51-1.57-1.82-.65-3.43-1.5-4.84-2.58-1.41-1.07-2.54-2.45-3.4-4.12-.86-1.67-1.29-3.75-1.29-6.23,0-2.06.45-3.98,1.36-5.77.9-1.79,2.21-3.33,3.9-4.62,1.7-1.29,3.75-2.3,6.16-3.04s5.12-1.11,8.13-1.11c3.44,0,6.4.34,8.88,1,2.48.67,4.56,1.43,6.23,2.29,1.67.86,2.96,1.71,3.86,2.55.91.83,1.5,1.42,1.79,1.75l-6.09,6.59c-.15-.14-.55-.51-1.22-1.11-.67-.6-1.61-1.23-2.83-1.9s-2.72-1.26-4.52-1.79c-1.79-.52-3.85-.79-6.19-.79-2.82,0-5,.48-6.52,1.43-1.53.96-2.29,2.3-2.29,4.02,0,1.62.74,2.8,2.22,3.54,1.48.74,3.34,1.33,5.59,1.79,2.24.45,4.66.91,7.27,1.36,2.6.45,5.02,1.2,7.27,2.26,2.24,1.05,4.1,2.55,5.58,4.51,1.48,1.96,2.22,4.65,2.22,8.09Z"/>
        <path class="cls-1" d="m523.38,102.77v19.98h-10.6v-19.98l-17.47-28.58h12.03l10.89,19.12,11.17-19.12h11.53l-17.54,28.58Z"/>
        <path class="cls-1" d="m592.63,108.64c0,2.44-.52,4.6-1.57,6.48-1.05,1.89-2.51,3.49-4.37,4.8-1.87,1.31-4.09,2.3-6.66,2.97-2.58.66-5.4,1-8.45,1-3.49,0-6.51-.35-9.06-1.04-2.55-.69-4.69-1.49-6.41-2.4-1.72-.91-3.05-1.77-3.98-2.58-.93-.81-1.5-1.33-1.68-1.57l5.87-7.09c.24.24.75.68,1.54,1.32.79.64,1.81,1.3,3.08,1.97s2.79,1.26,4.58,1.79c1.8.52,3.81.79,6.06.79,3.15,0,5.65-.48,7.52-1.43,1.86-.95,2.79-2.45,2.79-4.51,0-1.24-.43-2.23-1.29-2.97s-1.99-1.33-3.4-1.79c-1.4-.45-3.02-.85-4.83-1.18-1.82-.33-3.65-.7-5.51-1.11-1.87-.41-3.7-.93-5.51-1.57-1.82-.65-3.43-1.5-4.84-2.58-1.41-1.07-2.54-2.45-3.4-4.12-.86-1.67-1.29-3.75-1.29-6.23,0-2.06.45-3.98,1.36-5.77.9-1.79,2.21-3.33,3.9-4.62,1.7-1.29,3.75-2.3,6.16-3.04s5.12-1.11,8.13-1.11c3.44,0,6.4.34,8.88,1,2.48.67,4.56,1.43,6.23,2.29,1.67.86,2.96,1.71,3.86,2.55.91.83,1.5,1.42,1.79,1.75l-6.09,6.59c-.15-.14-.55-.51-1.22-1.11-.67-.6-1.61-1.23-2.83-1.9s-2.72-1.26-4.52-1.79c-1.79-.52-3.85-.79-6.19-.79-2.82,0-5,.48-6.52,1.43-1.53.96-2.29,2.3-2.29,4.02,0,1.62.74,2.8,2.22,3.54,1.48.74,3.34,1.33,5.59,1.79,2.24.45,4.66.91,7.27,1.36,2.6.45,5.02,1.2,7.27,2.26,2.24,1.05,4.1,2.55,5.58,4.51,1.48,1.96,2.22,4.65,2.22,8.09Z"/>
        <path class="cls-1" d="m630.53,83.06v39.68h-10.6v-39.68h-16.04v-8.88h42.68v8.88h-16.04Z"/>
        <path class="cls-1" d="m659.04,122.75v-48.56h35.95v8.88h-25.36v10.82h23.57v8.74h-23.57v11.17h26.36v8.95h-36.95Z"/>
        <path class="cls-1" d="m755.51,122.75v-37.46l-12.75,37.46h-9.45l-12.75-37.46v37.46h-9.67v-48.56h15.11l12.18,35.53,12.25-35.53h14.9v48.56h-9.82Z"/>
        <path class="cls-1" d="m821.55,108.64c0,2.44-.52,4.6-1.57,6.48-1.05,1.89-2.51,3.49-4.37,4.8-1.87,1.31-4.09,2.3-6.66,2.97-2.58.66-5.4,1-8.45,1-3.49,0-6.51-.35-9.06-1.04-2.55-.69-4.69-1.49-6.41-2.4-1.72-.91-3.05-1.77-3.98-2.58-.93-.81-1.5-1.33-1.68-1.57l5.87-7.09c.24.24.75.68,1.54,1.32.79.64,1.81,1.3,3.08,1.97,1.26.67,2.79,1.26,4.58,1.79,1.8.52,3.81.79,6.06.79,3.15,0,5.65-.48,7.52-1.43,1.86-.95,2.79-2.45,2.79-4.51,0-1.24-.43-2.23-1.29-2.97s-1.99-1.33-3.4-1.79c-1.4-.45-3.02-.85-4.83-1.18-1.82-.33-3.65-.7-5.51-1.11-1.87-.41-3.7-.93-5.51-1.57-1.82-.65-3.43-1.5-4.84-2.58-1.41-1.07-2.54-2.45-3.4-4.12-.86-1.67-1.29-3.75-1.29-6.23,0-2.06.45-3.98,1.36-5.77.9-1.79,2.21-3.33,3.9-4.62,1.7-1.29,3.75-2.3,6.16-3.04s5.12-1.11,8.13-1.11c3.44,0,6.4.34,8.88,1,2.48.67,4.56,1.43,6.23,2.29,1.67.86,2.96,1.71,3.86,2.55.91.83,1.5,1.42,1.79,1.75l-6.09,6.59c-.15-.14-.55-.51-1.22-1.11-.67-.6-1.61-1.23-2.83-1.9s-2.72-1.26-4.52-1.79c-1.79-.52-3.85-.79-6.19-.79-2.82,0-5,.48-6.52,1.43-1.53.96-2.29,2.3-2.29,4.02,0,1.62.74,2.8,2.22,3.54,1.48.74,3.34,1.33,5.59,1.79,2.24.45,4.66.91,7.27,1.36,2.6.45,5.02,1.2,7.27,2.26,2.24,1.05,4.1,2.55,5.58,4.51,1.48,1.96,2.22,4.65,2.22,8.09Z"/>
      </g>
    </g>
  </g>
</svg>