<?xml version="1.0" encoding="UTF-8"?>
<svg id="Layer_2" data-name="Layer 2" xmlns="http://www.w3.org/2000/svg" viewBox="0 0 415 685.85">
  <defs>
    <style>
      .cls-1 {
        fill: #231f20;
      }
    </style>
  </defs>
  <g id="Layer_1-2" data-name="Layer 1">
    <g>
      <path class="cls-1" d="m42.18,670.59c0,2.44-.52,4.6-1.57,6.48-1.05,1.89-2.51,3.49-4.37,4.8-1.87,1.31-4.09,2.3-6.66,2.97-2.58.66-5.4,1-8.45,1-3.49,0-6.51-.35-9.06-1.04-2.55-.69-4.69-1.49-6.41-2.4-1.72-.91-3.05-1.77-3.98-2.58-.93-.81-1.5-1.33-1.68-1.57l5.87-7.09c.24.24.75.68,1.54,1.32.79.64,1.81,1.3,3.08,1.97,1.26.67,2.79,1.26,4.58,1.79,1.8.52,3.81.79,6.06.79,3.15,0,5.65-.48,7.52-1.43,1.86-.95,2.79-2.45,2.79-4.51,0-1.24-.43-2.23-1.29-2.97s-1.99-1.33-3.4-1.79c-1.4-.45-3.02-.85-4.83-1.18-1.82-.33-3.65-.7-5.51-1.11-1.87-.41-3.7-.93-5.51-1.57-1.82-.65-3.43-1.5-4.84-2.58-1.41-1.07-2.54-2.45-3.4-4.12-.86-1.67-1.29-3.75-1.29-6.23,0-2.06.45-3.98,1.36-5.77.9-1.79,2.21-3.33,3.9-4.62,1.7-1.29,3.75-2.3,6.16-3.04s5.12-1.11,8.13-1.11c3.44,0,6.4.34,8.88,1,2.48.67,4.56,1.43,6.23,2.29,1.67.86,2.96,1.71,3.86,2.55.91.83,1.5,1.42,1.79,1.75l-6.09,6.59c-.15-.14-.55-.51-1.22-1.11-.67-.6-1.61-1.23-2.83-1.9-1.22-.67-2.72-1.26-4.52-1.79-1.79-.52-3.85-.79-6.19-.79-2.82,0-5,.48-6.52,1.43-1.53.96-2.29,2.3-2.29,4.02,0,1.62.74,2.8,2.22,3.54s3.34,1.33,5.59,1.79c2.24.45,4.66.91,7.27,1.36,2.6.45,5.02,1.2,7.27,2.26,2.24,1.05,4.1,2.55,5.58,4.51,1.48,1.96,2.22,4.65,2.22,8.09Z"/>
      <path class="cls-1" d="m83.92,664.73v19.98h-10.6v-19.98l-17.47-28.58h12.03l10.89,19.12,11.17-19.12h11.53l-17.54,28.58Z"/>
      <path class="cls-1" d="m161.16,670.59c0,2.44-.52,4.6-1.57,6.48-1.05,1.89-2.51,3.49-4.37,4.8-1.87,1.31-4.09,2.3-6.66,2.97-2.58.66-5.4,1-8.45,1-3.49,0-6.51-.35-9.06-1.04-2.55-.69-4.69-1.49-6.41-2.4-1.72-.91-3.05-1.77-3.98-2.58-.93-.81-1.5-1.33-1.68-1.57l5.87-7.09c.24.24.75.68,1.54,1.32.79.64,1.81,1.3,3.08,1.97,1.26.67,2.79,1.26,4.58,1.79,1.8.52,3.81.79,6.06.79,3.15,0,5.65-.48,7.52-1.43,1.86-.95,2.79-2.45,2.79-4.51,0-1.24-.43-2.23-1.29-2.97s-1.99-1.33-3.4-1.79c-1.4-.45-3.02-.85-4.83-1.18-1.82-.33-3.65-.7-5.51-1.11-1.87-.41-3.7-.93-5.51-1.57-1.82-.65-3.43-1.5-4.84-2.58-1.41-1.07-2.54-2.45-3.4-4.12-.86-1.67-1.29-3.75-1.29-6.23,0-2.06.45-3.98,1.36-5.77.9-1.79,2.21-3.33,3.9-4.62,1.7-1.29,3.75-2.3,6.16-3.04,2.41-.74,5.12-1.11,8.13-1.11,3.44,0,6.4.34,8.88,1,2.48.67,4.56,1.43,6.23,2.29,1.67.86,2.96,1.71,3.86,2.55.91.83,1.5,1.42,1.79,1.75l-6.09,6.59c-.15-.14-.55-.51-1.22-1.11-.67-.6-1.61-1.23-2.83-1.9-1.22-.67-2.72-1.26-4.52-1.79-1.79-.52-3.85-.79-6.19-.79-2.82,0-5,.48-6.52,1.43-1.53.96-2.29,2.3-2.29,4.02,0,1.62.74,2.8,2.22,3.54s3.34,1.33,5.59,1.79c2.24.45,4.66.91,7.27,1.36,2.6.45,5.02,1.2,7.27,2.26,2.24,1.05,4.1,2.55,5.58,4.51,1.48,1.96,2.22,4.65,2.22,8.09Z"/>
      <path class="cls-1" d="m201.46,645.02v39.68h-10.6v-39.68h-16.04v-8.88h42.68v8.88h-16.04Z"/>
      <path class="cls-1" d="m235.02,684.71v-48.56h35.95v8.88h-25.36v10.82h23.57v8.74h-23.57v11.17h26.36v8.95h-36.95Z"/>
      <path class="cls-1" d="m340.45,684.71v-37.46l-12.75,37.46h-9.45l-12.75-37.46v37.46h-9.67v-48.56h15.11l12.18,35.53,12.25-35.53h14.9v48.56h-9.82Z"/>
      <path d="m394.32,45.61c-10.34-18.49-25.48-35.01-43.55-45.61,0,0-3.16,3.9-3.16,3.9,13.29,14.74,22.88,31.21,28.98,49.68,20.8,66.04-1.33,139.38-42.1,193.17-65.85,86.38-170.37,116.2-274.44,108.35,10.25-54.87,33.83-107.53,71.13-149.49,43.57-49.69,108.86-82.99,176.24-74.2,0,0,1.52-5.84,1.52-5.84-70.96-28.75-153,.72-206.99,50.84C52.78,221.08,19.55,282.65,6.85,347.75,3.5,363.78,1.68,385.07,0,401.6c13.38,1.86,33.31,5.26,46.69,6.47,64.26,6.73,130.73-.62,190.37-26.66,93.09-39.66,166.72-128.71,176.97-230.73,3.42-35.88-1.94-73.37-19.7-105.08Z"/>
      <g>
        <path class="cls-1" d="m0,585.43v-99.28h21.67v80.98h49.5v18.3H0Z"/>
        <path class="cls-1" d="m144.97,544.57v40.85h-21.68v-40.85l-35.73-58.43h24.6l22.26,39.1,22.84-39.1h23.57l-35.87,58.43Z"/>
        <path class="cls-1" d="m268.7,585.43l-26.65-37.49h-13.92v37.49h-21.67v-99.28h39.1c3.03,0,6.05.07,9.08.21,3.01.14,5.99.51,8.93,1.1,2.93.58,5.71,1.51,8.35,2.79,2.63,1.26,5.06,3.03,7.32,5.27,3.12,3.12,5.35,6.49,6.66,10.11,1.32,3.61,1.98,7.27,1.98,10.99,0,4.39-.83,8.41-2.49,12.07-1.66,3.67-3.91,6.77-6.73,9.31-2.25,1.95-4.64,3.54-7.17,4.75-2.54,1.23-4.79,2.12-6.74,2.71l29.01,39.98h-25.05Zm-2.78-68.68c0-1.95-.27-3.59-.81-4.91-.54-1.31-1.33-2.51-2.42-3.59-2.24-2.24-4.92-3.54-8.04-3.87-3.13-.35-6.4-.51-9.82-.51h-16.7v26.35h14.8c2.73,0,5.46-.07,8.2-.21,2.73-.14,5.2-.66,7.39-1.54,2.2-.88,3.98-2.22,5.35-4.03,1.36-1.8,2.05-4.36,2.05-7.69Z"/>
        <path class="cls-1" d="m391.85,585.43l-7.9-19.19h-42.47l-7.9,19.19h-22.4l40.71-99.28h22.55l40.57,99.28h-23.14Zm-29.14-76.29l-14.93,39.39h29.86l-14.93-39.39Z"/>
      </g>
      <path class="cls-1" d="m415,670.59c0,2.44-.52,4.6-1.57,6.48-1.05,1.89-2.51,3.49-4.37,4.8-1.87,1.31-4.09,2.3-6.66,2.97-2.58.66-5.4,1-8.45,1-3.49,0-6.51-.35-9.06-1.04-2.55-.69-4.69-1.49-6.41-2.4-1.72-.91-3.05-1.77-3.98-2.58-.93-.81-1.5-1.33-1.68-1.57l5.87-7.09c.24.24.75.68,1.54,1.32.79.64,1.81,1.3,3.08,1.97,1.26.67,2.79,1.26,4.58,1.79,1.8.52,3.81.79,6.06.79,3.15,0,5.65-.48,7.52-1.43,1.86-.95,2.79-2.45,2.79-4.51,0-1.24-.43-2.23-1.29-2.97s-1.99-1.33-3.4-1.79c-1.4-.45-3.02-.85-4.83-1.18-1.82-.33-3.65-.7-5.51-1.11-1.87-.41-3.7-.93-5.51-1.57-1.82-.65-3.43-1.5-4.84-2.58-1.41-1.07-2.54-2.45-3.4-4.12-.86-1.67-1.29-3.75-1.29-6.23,0-2.06.45-3.98,1.36-5.77.9-1.79,2.21-3.33,3.9-4.62,1.7-1.29,3.75-2.3,6.16-3.04s5.12-1.11,8.13-1.11c3.44,0,6.4.34,8.88,1,2.48.67,4.56,1.43,6.23,2.29,1.67.86,2.96,1.71,3.86,2.55.91.83,1.5,1.42,1.79,1.75l-6.09,6.59c-.15-.14-.55-.51-1.22-1.11-.67-.6-1.61-1.23-2.83-1.9-1.22-.67-2.72-1.26-4.52-1.79-1.79-.52-3.85-.79-6.19-.79-2.82,0-5,.48-6.52,1.43-1.53.96-2.29,2.3-2.29,4.02,0,1.62.74,2.8,2.22,3.54,1.48.74,3.34,1.33,5.59,1.79,2.24.45,4.66.91,7.27,1.36,2.6.45,5.02,1.2,7.27,2.26,2.24,1.05,4.1,2.55,5.58,4.51,1.48,1.96,2.22,4.65,2.22,8.09Z"/>
    </g>
  </g>
</svg>