<?xml version="1.0" encoding="UTF-8"?>
<svg id="Layer_2" data-name="Layer 2" xmlns="http://www.w3.org/2000/svg" viewBox="0 0 578.13 75">
  <defs>
    <style>
      .cls-1 {
        fill: #fff;
      }

      .cls-2 {
        fill: #231f20;
      }
    </style>
  </defs>
  <g id="Layer_1-2" data-name="Layer 1">
    <g>
      <rect class="cls-2" x="0" width="578.13" height="75"/>
      <g>
        <path class="cls-1" d="m51.34,55.35V19.54h7.82v29.21h17.85v6.6h-25.67Z"/>
        <path class="cls-1" d="m103.63,40.62v14.74h-7.82v-14.74l-12.89-21.07h8.87l8.03,14.1,8.24-14.1h8.5l-12.94,21.07Z"/>
        <path class="cls-1" d="m148.26,55.35l-9.61-13.52h-5.02v13.52h-7.82V19.54h14.1c1.09,0,2.18.03,3.27.08,1.09.05,2.17.18,3.22.4,1.06.21,2.06.55,3.01,1,.95.46,1.83,1.09,2.64,1.9,1.13,1.13,1.93,2.34,2.4,3.64.48,1.3.71,2.62.71,3.96,0,1.58-.3,3.04-.9,4.36-.6,1.32-1.41,2.44-2.43,3.35-.81.7-1.67,1.28-2.59,1.72-.92.44-1.73.77-2.43.98l10.46,14.42h-9.03Zm-1-24.77c0-.7-.1-1.29-.29-1.77-.19-.48-.48-.91-.87-1.29-.81-.81-1.78-1.28-2.91-1.4-1.13-.12-2.31-.18-3.54-.18h-6.02v9.51h5.33c.99,0,1.97-.03,2.96-.08.99-.05,1.87-.24,2.67-.55.79-.32,1.43-.8,1.93-1.45.49-.65.74-1.58.74-2.77Z"/>
        <path class="cls-1" d="m192.67,55.35l-2.85-6.92h-15.32l-2.85,6.92h-8.08l14.68-35.81h8.13l14.63,35.81h-8.35Zm-10.51-27.52l-5.39,14.21h10.77l-5.39-14.21Z"/>
        <path class="cls-1" d="m277.92,44.95c0,1.8-.39,3.39-1.16,4.78-.77,1.39-1.85,2.57-3.22,3.54-1.37.97-3.01,1.7-4.91,2.19-1.9.49-3.98.74-6.23.74-2.57,0-4.8-.26-6.68-.77-1.88-.51-3.46-1.1-4.73-1.77-1.27-.67-2.25-1.3-2.93-1.9-.69-.6-1.1-.99-1.24-1.16l4.33-5.23c.18.18.55.5,1.13.98.58.48,1.34.96,2.27,1.45.93.49,2.06.93,3.38,1.32,1.32.39,2.81.58,4.46.58,2.32,0,4.17-.35,5.55-1.06,1.37-.7,2.06-1.81,2.06-3.33,0-.92-.32-1.65-.95-2.19-.63-.55-1.47-.99-2.51-1.32-1.04-.33-2.23-.62-3.56-.87-1.34-.25-2.69-.52-4.07-.82-1.37-.3-2.73-.69-4.07-1.16-1.34-.48-2.53-1.11-3.57-1.9-1.04-.79-1.87-1.8-2.51-3.04-.63-1.23-.95-2.76-.95-4.6,0-1.51.33-2.93,1-4.25.67-1.32,1.63-2.46,2.88-3.41,1.25-.95,2.76-1.7,4.54-2.24,1.78-.55,3.78-.82,5.99-.82,2.54,0,4.72.25,6.55.74,1.83.49,3.36,1.06,4.6,1.69,1.23.63,2.18,1.26,2.85,1.88.67.62,1.11,1.05,1.32,1.29l-4.49,4.86c-.11-.11-.41-.38-.9-.82-.49-.44-1.19-.91-2.09-1.4-.9-.49-2.01-.93-3.33-1.32-1.32-.39-2.84-.58-4.57-.58-2.08,0-3.68.35-4.81,1.06-1.13.7-1.69,1.69-1.69,2.96,0,1.2.55,2.07,1.64,2.61,1.09.55,2.46.99,4.12,1.32,1.65.33,3.44.67,5.36,1,1.92.33,3.71.89,5.36,1.66,1.65.77,3.03,1.88,4.12,3.33,1.09,1.44,1.64,3.43,1.64,5.97Z"/>
        <path class="cls-1" d="m306.92,40.62v14.74h-7.82v-14.74l-12.89-21.07h8.87l8.03,14.1,8.24-14.1h8.5l-12.94,21.07Z"/>
        <path class="cls-1" d="m357.99,44.95c0,1.8-.39,3.39-1.16,4.78-.77,1.39-1.85,2.57-3.22,3.54-1.37.97-3.01,1.7-4.91,2.19-1.9.49-3.98.74-6.23.74-2.57,0-4.8-.26-6.68-.77-1.88-.51-3.46-1.1-4.73-1.77-1.27-.67-2.25-1.3-2.93-1.9-.69-.6-1.1-.99-1.24-1.16l4.33-5.23c.18.18.55.5,1.13.98.58.48,1.34.96,2.27,1.45.93.49,2.06.93,3.38,1.32,1.32.39,2.81.58,4.46.58,2.32,0,4.17-.35,5.55-1.06,1.37-.7,2.06-1.81,2.06-3.33,0-.92-.32-1.65-.95-2.19-.63-.55-1.47-.99-2.51-1.32-1.04-.33-2.23-.62-3.56-.87-1.34-.25-2.69-.52-4.07-.82-1.37-.3-2.73-.69-4.07-1.16-1.34-.48-2.53-1.11-3.57-1.9-1.04-.79-1.87-1.8-2.51-3.04-.63-1.23-.95-2.76-.95-4.6,0-1.51.33-2.93,1-4.25.67-1.32,1.63-2.46,2.88-3.41,1.25-.95,2.76-1.7,4.54-2.24,1.78-.55,3.78-.82,5.99-.82,2.54,0,4.72.25,6.55.74,1.83.49,3.36,1.06,4.6,1.69,1.23.63,2.18,1.26,2.85,1.88.67.62,1.11,1.05,1.32,1.29l-4.49,4.86c-.11-.11-.41-.38-.9-.82-.49-.44-1.19-.91-2.09-1.4-.9-.49-2.01-.93-3.33-1.32-1.32-.39-2.84-.58-4.57-.58-2.08,0-3.68.35-4.81,1.06-1.13.7-1.69,1.69-1.69,2.96,0,1.2.55,2.07,1.64,2.61,1.09.55,2.46.99,4.12,1.32,1.65.33,3.44.67,5.36,1,1.92.33,3.71.89,5.36,1.66,1.65.77,3.03,1.88,4.12,3.33,1.09,1.44,1.64,3.43,1.64,5.97Z"/>
        <path class="cls-1" d="m385.93,26.09v29.26h-7.82v-29.26h-11.83v-6.55h31.48v6.55h-11.83Z"/>
        <path class="cls-1" d="m406.95,55.35V19.54h26.51v6.55h-18.7v7.98h17.38v6.44h-17.38v8.24h19.44v6.6h-27.25Z"/>
        <path class="cls-1" d="m478.09,55.35v-27.62l-9.4,27.62h-6.97l-9.4-27.62v27.62h-7.13V19.54h11.14l8.98,26.2,9.03-26.2h10.99v35.81h-7.24Z"/>
        <path class="cls-1" d="m526.79,44.95c0,1.8-.39,3.39-1.16,4.78-.77,1.39-1.85,2.57-3.22,3.54-1.37.97-3.01,1.7-4.91,2.19-1.9.49-3.98.74-6.23.74-2.57,0-4.8-.26-6.68-.77-1.88-.51-3.46-1.1-4.73-1.77-1.27-.67-2.25-1.3-2.93-1.9-.69-.6-1.1-.99-1.24-1.16l4.33-5.23c.18.18.55.5,1.13.98.58.48,1.34.96,2.27,1.45.93.49,2.06.93,3.38,1.32,1.32.39,2.81.58,4.46.58,2.32,0,4.17-.35,5.55-1.06,1.37-.7,2.06-1.81,2.06-3.33,0-.92-.32-1.65-.95-2.19-.63-.55-1.47-.99-2.51-1.32-1.04-.33-2.23-.62-3.56-.87-1.34-.25-2.69-.52-4.07-.82-1.37-.3-2.73-.69-4.07-1.16-1.34-.48-2.53-1.11-3.57-1.9-1.04-.79-1.87-1.8-2.51-3.04-.63-1.23-.95-2.76-.95-4.6,0-1.51.33-2.93,1-4.25.67-1.32,1.63-2.46,2.88-3.41,1.25-.95,2.76-1.7,4.54-2.24,1.78-.55,3.78-.82,5.99-.82,2.54,0,4.72.25,6.55.74,1.83.49,3.36,1.06,4.6,1.69,1.23.63,2.18,1.26,2.85,1.88.67.62,1.11,1.05,1.32,1.29l-4.49,4.86c-.11-.11-.41-.38-.9-.82-.49-.44-1.19-.91-2.09-1.4-.9-.49-2.01-.93-3.33-1.32-1.32-.39-2.84-.58-4.57-.58-2.08,0-3.68.35-4.81,1.06-1.13.7-1.69,1.69-1.69,2.96,0,1.2.55,2.07,1.64,2.61,1.09.55,2.46.99,4.12,1.32,1.65.33,3.44.67,5.36,1,1.92.33,3.71.89,5.36,1.66,1.65.77,3.03,1.88,4.12,3.33,1.09,1.44,1.64,3.43,1.64,5.97Z"/>
      </g>
    </g>
  </g>
</svg>