<?xml version="1.0" encoding="UTF-8"?>
<svg id="Layer_2" data-name="Layer 2" xmlns="http://www.w3.org/2000/svg" viewBox="0 0 200 200">
  <g id="Layer_1-2" data-name="Layer 1">
    <g>
      <path d="m194,6v188H6V6h188m6-6H0v200h200V0h0Z"/>
      <path d="m163.73,41.56c-3.53-6.31-8.69-11.94-14.86-15.56,0,0-1.08,1.33-1.08,1.33,4.54,5.03,7.8,10.65,9.89,16.95,7.1,22.53-.45,47.55-14.36,65.89-22.46,29.46-58.11,39.64-93.62,36.96,3.5-18.72,11.54-36.68,24.26-50.99,14.86-16.95,37.13-28.31,60.12-25.31,0,0,.52-1.99.52-1.99-24.21-9.81-52.19.25-70.61,17.34-16.77,15.24-28.1,36.24-32.44,58.44-1.14,5.47-1.76,12.73-2.34,18.37,4.56.64,11.36,1.8,15.93,2.21,21.92,2.29,44.59-.21,64.94-9.09,31.75-13.53,56.87-43.91,60.36-78.7,1.17-12.24-.66-25.03-6.72-35.84Z"/>
    </g>
  </g>
</svg>