<?xml version="1.0" encoding="UTF-8"?>
<svg id="Layer_2" data-name="Layer 2" xmlns="http://www.w3.org/2000/svg" viewBox="0 0 194.99 162.57">
  <g id="Layer_1-2" data-name="Layer 1">
    <path d="m194.88,6.95S114.21-19.29,56.94,30.23C-.34,79.75,0,158.02,0,158.02c0,0,75.71,19.84,137.94-23.28C200.18,91.62,194.88,6.95,194.88,6.95Zm-39.28,51c-3,29.91-24.59,56.02-51.88,67.65-17.48,7.63-36.97,9.79-55.81,7.81-3.93-.35-9.77-1.35-13.69-1.89.49-4.85,1.02-11.09,2.01-15.79,3.72-19.09,13.46-37.14,27.88-50.23,15.83-14.7,39.88-23.34,60.68-14.91l-.44,1.71c-19.76-2.57-38.9,7.19-51.67,21.76-10.94,12.3-17.85,27.74-20.86,43.82,30.52,2.31,61.16-6.44,80.47-31.76,11.95-15.77,18.44-37.27,12.34-56.64-1.79-5.41-4.6-10.24-8.5-14.56l.93-1.15c5.3,3.11,9.74,7.96,12.77,13.38,5.21,9.29,6.77,20.28,5.77,30.8Z"/>
  </g>
</svg>