<?xml version="1.0" encoding="UTF-8"?>
<svg id="Layer_2" data-name="Layer 2" xmlns="http://www.w3.org/2000/svg" viewBox="0 0 200 200">
  <g id="Layer_1-2" data-name="Layer 1">
    <path d="m0,0v200h200V0H0Zm170.45,77.4c-3.49,34.8-28.61,65.18-60.36,78.71-20.35,8.88-43.02,11.38-64.94,9.09-4.57-.41-11.36-1.57-15.93-2.21.57-5.64,1.2-12.9,2.34-18.37,4.33-22.21,15.66-43.2,32.44-58.44,18.41-17.1,46.4-27.15,70.6-17.34l-.51,1.99c-22.99-3-45.26,8.36-60.12,25.31-12.73,14.31-20.77,32.27-24.26,50.99,35.5,2.68,71.15-7.49,93.61-36.96,13.91-18.35,21.46-43.36,14.36-65.89-2.08-6.3-5.35-11.92-9.89-16.95l1.08-1.33c6.17,3.62,11.33,9.25,14.86,15.56,6.06,10.81,7.88,23.6,6.72,35.84Z"/>
  </g>
</svg>