<?xml version="1.0" encoding="UTF-8"?>
<svg id="Layer_2" data-name="Layer 2" xmlns="http://www.w3.org/2000/svg" viewBox="0 0 195 162.57">
  <defs>
    <style>
      .cls-1 {
        fill: #fff;
      }
    </style>
  </defs>
  <g id="Layer_1-2" data-name="Layer 1">
    <g>
      <path d="m194.89,6.95s5.3,84.67-56.94,127.78C75.71,177.85,0,158.01,0,158.01,0,158.01-.33,79.74,56.94,30.23,114.22-19.29,194.89,6.95,194.89,6.95Z"/>
      <path class="cls-1" d="m149.83,27.14c-3.03-5.42-7.47-10.26-12.77-13.37,0,0-.93,1.14-.93,1.14,3.9,4.32,6.71,9.15,8.5,14.57,6.1,19.36-.39,40.87-12.34,56.63-19.31,25.32-49.95,34.07-80.46,31.77,3.01-16.09,9.92-31.53,20.86-43.83,12.78-14.57,31.91-24.33,51.67-21.75,0,0,.44-1.71.44-1.71-20.8-8.43-44.86.21-60.69,14.91-14.42,13.1-24.16,31.14-27.88,50.23-.98,4.7-1.52,10.94-2.01,15.79,3.92.55,9.77,1.54,13.69,1.9,18.84,1.97,38.33-.18,55.81-7.82,27.29-11.63,48.88-37.74,51.88-67.65,1-10.52-.57-21.51-5.78-30.81Z"/>
    </g>
  </g>
</svg>