<?xml version="1.0" encoding="UTF-8"?>
<svg id="Layer_2" data-name="Layer 2" xmlns="http://www.w3.org/2000/svg" viewBox="0 0 195 162.57">
  <g id="Layer_1-2" data-name="Layer 1">
    <g>
      <path d="m145,6.42c19.79,0,36.13,3.51,43.58,5.42,0,7.44-.64,23.32-5.15,41.69-3.62,14.74-8.99,28.19-15.97,39.98-8.64,14.59-19.8,26.69-33.17,35.95-31.84,22.06-67.58,26.69-91.95,26.69-16.1,0-29.03-1.98-35.73-3.27.45-7.3,1.92-21.74,6.66-38.87,6.24-22.52,19.6-54.5,47.85-78.93,22-19.02,50.21-28.66,83.86-28.66h0M145,0c-26.93,0-60.25,6.19-88.06,30.23C-.33,79.74,0,158.01,0,158.01c0,0,17.39,4.56,42.35,4.56,27.12,0,63.19-5.38,95.6-27.84C200.18,91.61,194.89,6.95,194.89,6.95,194.89,6.95,173.53,0,145,0h0Z"/>
      <path d="m149.83,27.14c-3.03-5.42-7.47-10.26-12.77-13.37,0,0-.93,1.14-.93,1.14,3.9,4.32,6.71,9.15,8.5,14.57,6.1,19.36-.39,40.87-12.34,56.63-19.31,25.32-49.95,34.07-80.46,31.77,3.01-16.09,9.92-31.53,20.86-43.83,12.78-14.57,31.91-24.33,51.67-21.75,0,0,.44-1.71.44-1.71-20.8-8.43-44.86.21-60.69,14.91-14.42,13.1-24.16,31.14-27.88,50.23-.98,4.7-1.52,10.94-2.01,15.79,3.92.55,9.77,1.54,13.69,1.9,18.84,1.97,38.33-.18,55.81-7.82,27.29-11.63,48.88-37.74,51.88-67.65,1-10.52-.57-21.51-5.78-30.81Z"/>
    </g>
  </g>
</svg>