<?xml version="1.0" encoding="UTF-8"?>
<svg id="Layer_2" data-name="Layer 2" xmlns="http://www.w3.org/2000/svg" viewBox="0 0 195 162.57">
  <g id="Layer_1-2" data-name="Layer 1">
    <g>
      <path d="m145,5c20.93,0,38.03,3.89,44.99,5.74.06,6.97-.41,23.61-5.16,43.03-3.65,14.89-9.07,28.49-16.12,40.41-8.75,14.79-20.05,27.05-33.6,36.44-32.15,22.27-68.18,26.95-92.75,26.95-17.24,0-30.87-2.26-37.21-3.54.37-6.89,1.72-22.09,6.76-40.32,6.29-22.74,19.77-55.03,48.32-79.71,12.18-10.53,26.49-18.31,42.52-23.12,13.02-3.91,27.24-5.89,42.26-5.89h0M145,0c-26.93,0-60.25,6.19-88.06,30.23C-.33,79.74,0,158.01,0,158.01c0,0,17.39,4.56,42.35,4.56,27.12,0,63.19-5.38,95.6-27.84C200.18,91.61,194.89,6.95,194.89,6.95,194.89,6.95,173.53,0,145,0h0Z"/>
      <path d="m123.25,28.7c17.17,0,31.31,3.1,37.5,4.71.02,6.19-.47,19.92-4.38,35.87-3.08,12.58-7.67,24.06-13.62,34.12-7.38,12.47-16.91,22.8-28.33,30.71-27.16,18.82-57.63,22.77-78.41,22.77-14.04,0-25.25-1.77-30.84-2.86.88-14.64,6.8-66.51,46.52-100.84,18.78-16.24,42.87-24.47,71.58-24.47h0m0-5c-22.89,0-51.21,5.26-74.85,25.69C-.28,91.48,0,158.01,0,158.01c0,0,14.78,3.87,35.99,3.87,23.05,0,53.71-4.57,81.26-23.66,52.9-36.65,48.4-108.62,48.4-108.62,0,0-18.15-5.9-42.41-5.9h0Z"/>
      <path d="m104.76,43.85v5h0c14.02,0,25.65,2.45,31.12,3.84-.02,5.47-.51,16.75-3.71,29.77-5.92,24.1-17.81,42.48-35.35,54.63-22.93,15.89-48.67,19.22-66.22,19.22-11.36,0-20.53-1.37-25.43-2.3.35-5.35,1.43-15.6,4.79-27.71,4.49-16.22,14.12-39.24,34.46-56.83,15.83-13.68,36.13-20.62,60.35-20.62v-5m0,0c-19.45,0-43.53,4.47-63.62,21.84C-.24,101.46,0,158.01,0,158.01c0,0,12.56,3.29,30.6,3.29,19.6,0,45.66-3.89,69.07-20.11,44.97-31.15,41.14-92.32,41.14-92.32,0,0-15.43-5.02-36.05-5.02h0Z"/>
      <path d="m89.05,60.97v5h0c11.38,0,20.88,1.91,25.7,3.09-.05,4.8-.54,14.02-3.14,24.59-4.99,20.28-15,35.74-29.74,45.95-19.33,13.39-41.05,16.2-55.86,16.2-9.12,0-16.56-1.04-20.82-1.82.87-11.79,5.74-47.06,33.05-70.67,13.31-11.51,30.41-17.34,50.81-17.34v-5m0,0c-16.54,0-37,3.8-54.08,18.56C-.21,109.95,0,158.01,0,158.01c0,0,10.68,2.8,26.01,2.8,16.66,0,38.81-3.3,58.71-17.09,38.22-26.48,34.97-78.48,34.97-78.48,0,0-13.11-4.27-30.64-4.27h0Z"/>
      <path d="m75.69,75.53v5c9.16,0,16.88,1.47,21.09,2.47-.19,10.47-2.93,41.65-27.61,58.75-16.27,11.27-34.57,13.64-47.06,13.64-7.24,0-13.23-.78-16.9-1.41.86-10.52,5.26-39.41,27.79-58.89,11.17-9.66,25.54-14.56,42.7-14.56v-5m0,0c-14.06,0-31.45,3.23-45.97,15.78C-.17,117.16,0,158.01,0,158.01c0,0,9.08,2.38,22.1,2.38,14.16,0,32.99-2.81,49.9-14.53,32.49-22.51,29.72-66.7,29.72-66.7,0,0-11.15-3.63-26.04-3.63h0Z"/>
      <g>
        <path d="m31.09,129.15v-22.38h4.89v18.26h11.16v4.13h-16.04Z"/>
        <path d="m70.7,122.65c0,1.12-.24,2.12-.73,2.99-.48.87-1.16,1.61-2.01,2.21-.86.61-1.88,1.06-3.07,1.37-1.19.31-2.49.46-3.9.46-1.61,0-3-.16-4.18-.48-1.18-.32-2.16-.69-2.95-1.11-.79-.42-1.4-.81-1.83-1.19-.43-.37-.69-.62-.78-.73l2.71-3.27c.11.11.35.31.71.61.36.3.84.6,1.42.91.58.31,1.29.58,2.11.83.83.24,1.75.36,2.79.36,1.45,0,2.61-.22,3.47-.66.86-.44,1.29-1.13,1.29-2.08,0-.57-.2-1.03-.59-1.37-.4-.34-.92-.62-1.57-.83-.65-.21-1.39-.39-2.23-.54-.84-.15-1.68-.32-2.54-.51-.86-.19-1.71-.43-2.54-.73-.84-.3-1.58-.69-2.23-1.19-.65-.5-1.17-1.13-1.57-1.9-.4-.77-.59-1.73-.59-2.87,0-.95.21-1.83.63-2.66.42-.83,1.02-1.54,1.8-2.13.78-.59,1.73-1.06,2.84-1.4,1.11-.34,2.36-.51,3.75-.51,1.58,0,2.95.15,4.09.46,1.14.31,2.1.66,2.87,1.06.77.4,1.36.79,1.78,1.17.42.39.69.66.83.81l-2.81,3.04c-.07-.07-.25-.24-.56-.51-.31-.28-.74-.57-1.3-.87-.56-.31-1.25-.58-2.08-.83-.83-.24-1.78-.36-2.86-.36-1.3,0-2.3.22-3,.66-.7.44-1.06,1.06-1.06,1.85,0,.75.34,1.29,1.02,1.63.68.34,1.54.62,2.57.83,1.03.21,2.15.42,3.35.63,1.2.21,2.32.56,3.35,1.04,1.03.48,1.89,1.18,2.57,2.08.68.9,1.02,2.15,1.02,3.73Z"/>
      </g>
    </g>
  </g>
</svg>