<?xml version="1.0" encoding="UTF-8"?>
<svg id="Layer_2" data-name="Layer 2" xmlns="http://www.w3.org/2000/svg" viewBox="0 0 134 82.75">
  <defs>
    <style>
      .cls-1 {
        fill: #000000ff;
      }
    </style>
  </defs>
  <g id="Layer_1-2" data-name="Layer 1">
    <g id="logo">
      <path class="cls-1" d="m89.61,11.75c-1.6-1.53-3.76-2.47-6.15-2.47-3.09,0-5.82,1.57-7.43,3.95-.08.13-.17.25-.24.39l-8.79,14.06-17.05,27.28-13.96,22.34c-2.12,3.39-5.83,5.44-9.82,5.44H0L36.83,23.8l7.09-11.35c.14-.23.29-.45.44-.68,0,0,0-.02.01-.02h0l1.27-1.76C50.32,4.08,57.32.31,64.92.02c.38-.02.76-.02,1.14-.02.31,0,.63,0,.94.02,5.33.16,10.31,1.73,14.58,4.33,1.76,1.08,4.36,2.66,6.76,5.64.56.7.98,1.31,1.27,1.76h0Z"/>
      <path class="cls-1" d="m134,82.75h-26.19c-3.98,0-7.69-2.05-9.81-5.42l-25.47-40.56c-.59-.94-.59-2.13,0-3.07l7.83-12.53c.08-.13.16-.26.24-.39,1.61-2.38,4.34-3.95,7.43-3.95,2.39,0,4.55.94,6.15,2.47h0s.01.01.01.02c.15.23.3.45.44.68l39.35,62.75Z"/>
    </g>
  </g>
</svg>